<?xml version="1.0" encoding="UTF-8" standalone="no"?>
<!-- Created with Inkscape (http://www.inkscape.org/) -->

<svg
   xmlns:dc="http://purl.org/dc/elements/1.1/"
   xmlns:cc="http://creativecommons.org/ns#"
   xmlns:rdf="http://www.w3.org/1999/02/22-rdf-syntax-ns#"
   xmlns:svg="http://www.w3.org/2000/svg"
   xmlns="http://www.w3.org/2000/svg"
   xmlns:sodipodi="http://sodipodi.sourceforge.net/DTD/sodipodi-0.dtd"
   xmlns:inkscape="http://www.inkscape.org/namespaces/inkscape"
   width="94mm"
   height="54mm"
   viewBox="0 0 333.07087 191.33858"
   id="svg2"
   version="1.1"
   inkscape:version="0.91 r13725"
   sodipodi:docname="EMfotografia-wizytowka-awers.svg"
   inkscape:export-filename="/home/marek/js/work/DwG/wizytowka/DwG-wizytowka-awers-b.png"
   inkscape:export-xdpi="300"
   inkscape:export-ydpi="300">
  <defs
     id="defs4">
    <rect
       height="8"
       width="8"
       id="p" />
  </defs>
  <sodipodi:namedview
     id="base"
     pagecolor="#ffffff"
     bordercolor="#666666"
     borderopacity="1.0"
     inkscape:pageopacity="0.0"
     inkscape:pageshadow="2"
     inkscape:zoom="1.5462175"
     inkscape:cx="91.713885"
     inkscape:cy="134.88031"
     inkscape:document-units="mm"
     inkscape:current-layer="layer1"
     showgrid="false"
     borderlayer="true"
     showguides="true"
     inkscape:guide-bbox="true"
     inkscape:window-width="1855"
     inkscape:window-height="1176"
     inkscape:window-x="65"
     inkscape:window-y="24"
     inkscape:window-maximized="1"
     inkscape:snap-page="true">
    <sodipodi:guide
       position="7.0866143,7.0866143"
       orientation="1,0"
       id="guide4136"
       inkscape:label=""
       inkscape:color="rgb(0,0,255)" />
    <sodipodi:guide
       position="7.0866143,7.0866143"
       orientation="0,1"
       id="guide4138" />
    <sodipodi:guide
       position="325.98426,7.0866143"
       orientation="1,0"
       id="guide4140"
       inkscape:label=""
       inkscape:color="rgb(0,0,255)" />
    <sodipodi:guide
       position="21.259843,21.259843"
       orientation="1,0"
       id="guide4144"
       inkscape:label=""
       inkscape:color="rgb(0,0,255)" />
    <sodipodi:guide
       position="21.259843,21.259843"
       orientation="0,1"
       id="guide4163"
       inkscape:label=""
       inkscape:color="rgb(0,0,255)" />
    <sodipodi:guide
       position="311.81103,21.259843"
       orientation="1,0"
       id="guide4165"
       inkscape:label=""
       inkscape:color="rgb(0,0,255)" />
    <sodipodi:guide
       position="21.259843,170.07874"
       orientation="0,1"
       id="guide4167"
       inkscape:label=""
       inkscape:color="rgb(0,0,255)" />
    <sodipodi:guide
       position="171.38598,184.25197"
       orientation="0,1"
       id="guide4574"
       inkscape:label=""
       inkscape:color="rgb(0,0,255)" />
  </sodipodi:namedview>
  <metadata
     id="metadata7">
    <rdf:RDF>
      <cc:Work
         rdf:about="">
        <dc:format>image/svg+xml</dc:format>
        <dc:type
           rdf:resource="http://purl.org/dc/dcmitype/StillImage" />
        <dc:title />
      </cc:Work>
    </rdf:RDF>
  </metadata>
  <g
     inkscape:label="Layer 1"
     inkscape:groupmode="layer"
     id="layer1"
     transform="translate(0,-861.02362)">
    <rect
       style="fill:#ffffff;fill-opacity:1;stroke:none;stroke-width:10;stroke-miterlimit:4;stroke-dasharray:none;stroke-opacity:1"
       id="rect4576"
       width="318.89764"
       height="177.16536"
       x="7.0866141"
       y="868.11023"
       inkscape:export-xdpi="300"
       inkscape:export-ydpi="300" />
    <text
       xml:space="preserve"
       style="font-style:normal;font-variant:normal;font-weight:normal;font-stretch:normal;font-size:28.30391693px;line-height:125%;font-family:'Embassy BT';-inkscape-font-specification:'Embassy BT, Normal';text-align:start;letter-spacing:0px;word-spacing:0px;writing-mode:lr-tb;text-anchor:start;fill:#b3b3b3;fill-opacity:1;stroke:none;stroke-width:1px;stroke-linecap:butt;stroke-linejoin:miter;stroke-opacity:1"
       x="-1008.6243"
       y="306.15515"
       id="text4145"
       sodipodi:linespacing="125%"
       transform="matrix(0,-1,1,0,0,0)"><tspan
         sodipodi:role="line"
         id="tspan4147"
         x="-1008.6243"
         y="306.15515"
         style="font-size:20.44510841px">emfotografia.eu</tspan></text>
    <text
       xml:space="preserve"
       style="font-style:normal;font-variant:normal;font-weight:normal;font-stretch:normal;font-size:28.30391693px;line-height:125%;font-family:'Embassy BT';-inkscape-font-specification:'Embassy BT, Normal';text-align:start;letter-spacing:0px;word-spacing:0px;writing-mode:lr-tb;text-anchor:start;fill:#b3b3b3;fill-opacity:1;stroke:none;stroke-width:1px;stroke-linecap:butt;stroke-linejoin:miter;stroke-opacity:1"
       x="904.76154"
       y="-27.139456"
       id="text4145-3"
       sodipodi:linespacing="125%"
       transform="matrix(0,1,-1,0,0,0)"><tspan
         sodipodi:role="line"
         id="tspan4147-8"
         x="904.76154"
         y="-27.139456"
         style="font-size:20.44510841px">emfotografia.eu</tspan></text>
    <g
       id="g3397"
       transform="matrix(0.4834997,0,0,0.4834997,137.05046,573.47685)">
      <g
         id="text2985-6-7-8"
         style="font-style:normal;font-variant:normal;font-weight:normal;font-stretch:normal;font-size:26.99378395px;line-height:125%;font-family:Gabriola;-inkscape-font-specification:Gabriola;text-align:start;letter-spacing:0px;word-spacing:0px;writing-mode:lr-tb;text-anchor:start;fill:#000000;fill-opacity:1;stroke:none"
         transform="matrix(4.4518155,0,0,7.7710484,-893.63516,-1343.9405)">
        <path
           sodipodi:nodetypes="cccsccccccccccscsccccccccccsccccssccscsccccccsccc"
           inkscape:connector-curvature="0"
           id="path4044-1-6-6"
           d="m 193.51673,263.00698 c -0.0769,-0.0813 -0.18343,-0.14058 -0.31962,-0.17794 -0.13621,-0.0373 -0.31195,-0.056 -0.52723,-0.056 -0.14059,1e-5 -0.39471,0.0188 -0.68094,0.0316 -1.03282,0.0459 -0.70934,-0.58584 0.1291,-0.67003 0.36905,-0.0505 1.31961,-0.15776 1.64253,-0.19516 0.32292,-0.0373 0.62498,-0.0648 0.90617,-0.0824 2.20177,0.10373 4.104,0.0681 6.18168,-0.1253 0.20209,2e-5 0.35696,0.0473 0.46461,0.14169 0.10764,0.0945 0.16146,0.24056 0.16147,0.43826 -1e-5,0.0791 -0.008,0.23287 -0.0231,0.46132 -0.0154,0.22847 -0.0352,0.49099 -0.0593,0.78754 -0.0242,0.29657 -0.0516,0.60961 -0.0824,0.93911 -0.052,0.75771 -0.70552,0.86594 -0.71176,0.43493 0.19417,-0.88358 -0.0454,-1.8266 -0.63127,-2.07428 -0.72446,-0.30629 -3.09307,-0.26757 -4.50215,-0.12039 -0.009,0.36467 -0.0187,0.77217 -0.0297,1.22249 -0.011,0.45035 -0.0231,0.93254 -0.0362,1.44657 -0.0132,0.51405 -0.0275,1.05665 -0.0428,1.6278 -0.0154,0.57117 -0.0319,1.1599 -0.0494,1.76619 1.35937,0.12126 2.43653,0.18909 3.7015,0.10348 0.44007,-0.041 1.05673,-0.28936 1.34656,-0.3762 0.0482,0.23133 -0.0197,0.53412 -0.0197,0.68788 -1e-5,0.12742 -0.0395,0.23506 -0.11863,0.32292 -0.0791,0.0879 -0.19112,0.15928 -0.3361,0.21419 -0.145,0.0549 -0.32074,0.0945 -0.52722,0.11862 -0.20651,0.0242 -0.43717,0.0363 -0.69198,0.0362 -0.45254,10e-6 -0.96549,-0.0253 -1.53883,-0.0758 -0.57336,-0.0505 -1.18736,-0.11312 -1.84199,-0.18782 -0.009,0.25483 -0.0198,0.56128 -0.0329,0.91934 -0.0132,0.35808 -0.0286,0.73922 -0.0461,1.14342 -0.0176,0.4042 -0.0385,0.81829 -0.0626,1.24226 -0.0242,0.42398 -0.0483,0.83038 -0.0725,1.21921 -0.0242,0.38882 -0.0505,0.7447 -0.0791,1.06762 -0.0286,0.32293 -0.0582,0.58764 -0.089,0.79413 0.42616,-0.0615 0.84135,-0.10654 1.24556,-0.1351 0.4042,-0.0286 0.77106,-0.0428 1.10058,-0.0428 0.46131,0 0.89297,0.0121 1.29499,0.0362 0.402,0.0242 0.80071,0.0362 1.19613,0.0362 0.2636,0 0.49536,-0.0362 0.69528,-0.10874 0.19989,-0.0725 0.37453,-0.20211 0.52392,-0.38883 0.14937,-0.18672 0.27349,-0.43825 0.37235,-0.75459 0.32511,-1.15116 0.94093,-0.46515 0.66892,0.65249 -0.0923,0.47889 -0.22079,0.85674 -0.38553,1.13353 -0.16477,0.27679 -0.36577,0.46901 -0.60301,0.57665 -0.23726,0.10764 -0.88127,-0.0376 -1.42962,-0.17304 -2.23175,-0.55114 -3.76157,-0.25243 -6.26124,0.23565 l -0.11862,-0.0132 c -0.0528,-4.60378 1.85691,-9.52682 0.31919,-14.07987 z" />
      </g>
      <g
         id="text2985-1-4-1-0"
         style="font-style:normal;font-variant:normal;font-weight:normal;font-stretch:normal;font-size:24.59490967px;line-height:125%;font-family:Gabriola;-inkscape-font-specification:Gabriola;text-align:start;letter-spacing:0px;word-spacing:0px;writing-mode:lr-tb;text-anchor:start;fill:#000000;fill-opacity:1;stroke:none"
         transform="matrix(3.9258529,0,0,8.1365354,-867.25382,-1346.5663)">
        <path
           sodipodi:nodetypes="cccscccsccssssccccccssccccccccccccssssccccccccsscccscccscssccccsccscccscccccccccccccsccccccccccccscssc"
           inkscape:connector-curvature="0"
           id="path4041-2-8-2"
           d="m 265.46866,264.44804 c -0.21042,0.0851 -0.46737,0.16413 -0.67552,0.22217 -0.20817,0.058 -0.40232,0.10108 -0.58244,0.1291 -0.18016,0.028 -0.35429,0.042 -0.52241,0.042 -0.22818,0 -0.42834,-0.043 -0.60046,-0.1291 -0.17214,-0.0861 -0.31525,-0.22717 -0.42933,-0.42332 -0.1141,-0.19615 -0.19916,-0.45435 -0.25519,-0.7746 -0.0561,-0.32024 -0.0841,-0.71655 -0.0841,-1.18891 l 0,-0.52841 c -10e-6,-0.24818 9.9e-4,-0.5354 0.003,-0.86166 0.002,-0.32625 0.005,-0.67251 0.009,-1.0388 0.004,-0.36627 0.009,-0.73956 0.015,-1.11986 0.006,-0.38028 0.013,-0.74757 0.021,-1.10185 0.008,-0.35426 0.016,-0.68552 0.024,-0.99376 0.008,-0.30823 0.016,-0.57043 0.024,-0.7866 0.02,-0.46836 0.043,-0.93571 0.0691,-1.40208 0.026,-0.46635 0.061,-0.9237 0.10508,-1.37206 l -0.048,-0.018 c -0.0681,0.18015 -0.15012,0.38531 -0.24619,0.61547 -0.0961,0.23019 -0.21818,0.5074 -0.36628,0.83164 -0.35228,0.77661 -0.71156,1.58123 -1.07783,2.41386 -0.36629,0.83264 -0.73657,1.6823 -1.11085,2.54896 -0.3743,0.86667 -0.75159,1.74534 -1.13187,2.63602 -0.70264,0.90026 -0.98634,4.0339 -1.73534,1.69332 -0.12009,-0.37029 -0.2522,-0.7706 -0.3963,-1.20093 -0.14412,-0.43033 -0.29723,-0.88468 -0.45935,-1.36305 -0.16213,-0.47836 -0.32726,-0.96273 -0.49538,-1.45311 -0.16814,-0.49037 -0.33727,-0.97975 -0.50739,-1.46813 -0.17014,-0.48837 -0.33427,-0.95873 -0.49238,-1.41109 -0.15813,-0.45234 -0.30824,-0.87766 -0.45035,-1.27598 -0.14211,-0.39829 -0.26921,-0.75357 -0.38129,-1.06582 -0.1281,-0.36427 -0.23919,-0.68651 -0.33326,-0.96674 -0.0941,-0.2802 -0.17514,-0.5284 -0.24319,-0.74457 l -0.042,0.018 c 0,0.1201 0.001,0.2392 0.003,0.35728 0.002,0.1181 0.003,0.2452 0.003,0.38129 l 0,0.99076 c -1e-5,0.6365 -0.01,1.286 -0.03,1.9485 -0.02,0.66252 -0.046,1.31502 -0.0781,1.9575 -0.032,0.6425 -0.07,1.26398 -0.11408,1.86444 -0.044,0.60046 -0.0901,1.15489 -0.13811,1.66328 -0.04,0.42032 -0.0771,0.7776 -0.11109,1.07182 -0.034,0.29423 -0.0721,0.54142 -0.11408,0.74157 -0.042,0.20015 -0.0931,0.35728 -0.15312,0.47136 -0.0601,0.11409 -0.13511,0.20116 -0.22517,0.2612 -0.0901,0.06 -0.20016,0.0981 -0.33026,0.11409 -0.1301,0.016 -0.28522,0.024 -0.46536,0.024 l -0.18013,0 c -0.036,0 -0.0801,-0.001 -0.13211,-0.003 -0.052,-0.002 -0.11609,-0.005 -0.19214,-0.009 l -0.0841,-0.06 c 0.18815,-0.38829 0.35527,-0.82163 0.50139,-1.3 0.14611,-0.47836 0.27421,-0.98575 0.38429,-1.52217 0.11009,-0.5364 0.20516,-1.09183 0.28522,-1.66628 0.0801,-0.57443 0.14711,-1.14787 0.20116,-1.72032 0.054,-0.57243 0.0981,-1.13687 0.1321,-1.6933 0.034,-0.55642 0.059,-1.08483 0.0751,-1.58522 0.016,-0.50037 0.027,-0.96273 0.033,-1.38707 0.006,-0.42431 0.009,-0.7946 0.009,-1.11085 0,-0.20415 -0.014,-0.37227 -0.042,-0.50439 -0.028,-0.13209 -0.0771,-0.23717 -0.14712,-0.31524 -0.0701,-0.078 -0.16613,-0.13209 -0.28822,-0.16213 -0.12209,-0.03 -0.27921,-0.045 -0.47136,-0.045 -0.1321,1e-5 -0.48457,0.0188 -0.76513,-0.0295 -0.65286,-0.11236 -1.03418,-0.57363 0.5997,-0.71565 0.47236,-0.0821 1.72868,-0.17955 2.0089,-0.17956 0.1441,1e-5 0.2682,0.013 0.37228,0.039 0.10408,0.026 0.19515,0.0701 0.27321,0.1321 0.0781,0.0621 0.14711,0.14412 0.20716,0.24619 0.06,0.10209 0.11809,0.22919 0.17414,0.38129 0.21215,0.59247 0.43633,1.22296 0.67251,1.89146 0.23618,0.66852 0.47736,1.35105 0.72356,2.04757 0.24618,0.69655 0.49237,1.39408 0.73857,2.09261 0.24618,0.69854 0.48336,1.37606 0.71154,2.03256 0.0881,0.26021 0.16913,0.49739 0.24319,0.71155 0.074,0.21417 0.1421,0.41232 0.20416,0.59446 0.062,0.18214 0.12008,0.35627 0.17413,0.5224 0.054,0.16613 0.10507,0.33126 0.15312,0.49538 l 0.042,0 c 0.064,-0.17213 0.13009,-0.34126 0.19815,-0.50739 0.068,-0.16612 0.1401,-0.33826 0.21617,-0.5164 0.0761,-0.17813 0.15911,-0.36928 0.24919,-0.57344 0.0901,-0.20415 0.19114,-0.43433 0.30324,-0.69053 0.2802,-0.64049 0.57143,-1.305 0.87367,-1.99353 0.30222,-0.68852 0.61246,-1.39306 0.93071,-2.11363 0.31824,-0.72054 0.64148,-1.4511 0.96975,-2.19168 0.32824,-0.74056 0.65849,-1.48313 0.99076,-2.22771 0.036,-0.08 0.0851,-0.1461 0.14711,-0.19816 0.062,-0.052 0.13009,-0.0931 0.20416,-0.12309 0.074,-0.03 0.1511,-0.051 0.23118,-0.0631 0.0801,-0.012 0.1541,-0.018 0.22217,-0.018 0.11607,1e-5 0.24317,0.015 0.38129,0.045 0.13809,0.03 0.2712,0.0731 0.39931,0.1291 -0.0601,0.65652 -0.1131,1.285 -0.15912,1.88545 -0.16129,3.31217 -0.46111,6.53282 -0.23719,9.77552 0.036,0.30023 0.0991,0.54542 0.18915,0.73556 0.0901,0.19015 0.21115,0.32925 0.36328,0.41732 0.1521,0.0881 0.34225,0.1321 0.57044,0.1321 0.084,0 0.16511,-0.002 0.24318,-0.006 0.0781,-0.004 0.20137,-0.0166 0.42846,-0.0109 0.62553,0.0159 0.40137,0.39034 -0.18229,0.62636 z" />
      </g>
      <path
         id="path3012-3-9-4"
         d="m 65.66893,713.70982 c -0.72342,-0.0166 -1.45472,-0.004 -2.1914,0.0352 -5.89347,0.31499 -12.14256,2.42567 -17.63868,6.39453 -1.7896,1.29231 -3.61724,2.19102 -5.53906,2.78125 -1.53745,-1.41119 -3.78048,-3.5939 -6.75586,-4.43945 -0.76459,-0.21728 -1.57327,-0.33543 -2.41992,-0.32227 -2.4726,0.0384 -5.26451,1.20026 -8.17383,4.18945 -1.62151,-0.36207 -3.30832,-0.77215 -5.08593,-1.23242 a 0.80644011,0.80644011 0 1 0 -0.4043,1.56055 c 6.22378,1.61149 11.52359,2.74078 16.30273,2.75586 4.77915,0.0151 9.05034,-1.11673 13.02149,-3.98438 10.48813,-7.5737 23.79984,-7.89264 31.20312,-2.05664 8.24636,6.50058 16.16512,8.0079 23.94922,7.70703 a 0.80644011,0.80644011 0 1 0 -0.0625,-1.61132 c -7.54016,0.29144 -14.93743,-1.09534 -22.88867,-7.36328 -3.56635,-2.81136 -8.25242,-4.29771 -13.31641,-4.41407 z m -34.55078,6.03516 c 0.69154,-6.9e-4 1.35174,0.10732 1.98438,0.28711 2.07167,0.58873 3.86277,2.05517 5.31836,3.36328 -1.48,0.29333 -3.02076,0.42897 -4.65235,0.42383 -2.70876,-0.009 -5.66254,-0.40724 -8.91797,-1.06445 2.37639,-2.21212 4.4375,-3.00796 6.26758,-3.00977 z m 33.89258,13.75586 c -11.61823,0 -21.05469,9.43646 -21.05469,21.05469 0,11.61823 9.43646,21.05273 21.05469,21.05273 11.61823,0 21.05273,-9.4345 21.05273,-21.05273 0,-11.61823 -9.4345,-21.05469 -21.05273,-21.05469 z m 0,1.61719 c 10.74466,0 19.4375,8.69284 19.4375,19.4375 0,10.74466 -8.69284,19.4375 -19.4375,19.4375 -10.74466,0 -19.4375,-8.69284 -19.4375,-19.4375 0,-10.74466 8.69284,-19.4375 19.4375,-19.4375 z m -46.96094,51.20898 a 0.83501338,0.83501338 0 0 0 -0.12695,1.65039 c 15.61863,3.61877 29.8754,2.18618 43.64453,1.00586 13.76913,-1.18033 27.0402,-2.10712 40.8457,2.34961 a 0.83508688,0.83508688 0 1 0 0.51172,-1.58984 c -14.16744,-4.57356 -27.71476,-3.60553 -41.5,-2.42383 -13.78523,1.18171 -27.81867,2.57765 -43.125,-0.96875 a 0.83501338,0.83501338 0 0 0 -0.16601,-0.0234 0.83501338,0.83501338 0 0 0 -0.084,0 z"
         style="color:#000000;font-style:normal;font-variant:normal;font-weight:normal;font-stretch:normal;font-size:medium;line-height:normal;font-family:sans-serif;text-indent:0;text-align:start;text-decoration:none;text-decoration-line:none;text-decoration-style:solid;text-decoration-color:#000000;letter-spacing:normal;word-spacing:normal;text-transform:none;direction:ltr;block-progression:tb;writing-mode:lr-tb;baseline-shift:baseline;text-anchor:start;white-space:normal;clip-rule:nonzero;display:inline;overflow:visible;visibility:visible;opacity:1;isolation:auto;mix-blend-mode:normal;color-interpolation:sRGB;color-interpolation-filters:linearRGB;solid-color:#000000;solid-opacity:1;fill:#000000;fill-opacity:1;fill-rule:nonzero;stroke:none;stroke-width:1.66985977;stroke-linecap:round;stroke-linejoin:miter;stroke-miterlimit:4;stroke-dasharray:none;stroke-dashoffset:0;stroke-opacity:1;color-rendering:auto;image-rendering:auto;shape-rendering:auto;text-rendering:auto;enable-background:accumulate"
         inkscape:connector-curvature="0" />
      <path
         inkscape:connector-curvature="0"
         id="path3016-2-2-8"
         d="m 37.27245,733.23825 c -1.22797,-0.48712 -2.91745,0.0892 -5.19336,1.64843 -2.06954,-1.47759 -3.68057,-2.0486 -4.89063,-1.62695 -0.63928,0.22277 -1.10665,0.72938 -1.36132,1.34375 -0.25468,0.61437 -0.33,1.33783 -0.27539,2.13281 0.21841,3.17992 2.49455,7.62863 6.33984,10.1875 l 0.29101,0.19336 0.29688,-0.18554 c 3.46761,-2.17506 5.87232,-6.69393 6.25391,-9.9961 0.0954,-0.82554 0.0633,-1.58329 -0.1543,-2.23437 -0.21759,-0.65108 -0.66032,-1.20651 -1.30664,-1.46289 z m -0.39844,1.00781 c 0.32691,0.12968 0.53326,0.36652 0.67774,0.79883 0.14447,0.4323 0.18853,1.04874 0.10546,1.76758 -0.321,2.7779 -2.54644,6.93375 -5.46289,8.95117 -3.32406,-2.3827 -5.37995,-6.47237 -5.56054,-9.10156 -0.0466,-0.67849 0.0288,-1.24763 0.19336,-1.64454 0.16452,-0.39691 0.38419,-0.61779 0.71875,-0.73437 0.6691,-0.23316 2.07824,0.0661 4.20312,1.6543 l 0.31641,0.23632 0.32226,-0.23047 c 2.34874,-1.67566 3.83252,-1.95662 4.48633,-1.69726 z"
         style="color:#000000;font-style:normal;font-variant:normal;font-weight:normal;font-stretch:normal;font-size:medium;line-height:normal;font-family:sans-serif;text-indent:0;text-align:start;text-decoration:none;text-decoration-line:none;text-decoration-style:solid;text-decoration-color:#000000;letter-spacing:normal;word-spacing:normal;text-transform:none;direction:ltr;block-progression:tb;writing-mode:lr-tb;baseline-shift:baseline;text-anchor:start;white-space:normal;clip-rule:nonzero;display:inline;overflow:visible;visibility:visible;opacity:1;isolation:auto;mix-blend-mode:normal;color-interpolation:sRGB;color-interpolation-filters:linearRGB;solid-color:#000000;solid-opacity:1;fill:#ff0000;fill-opacity:1;fill-rule:nonzero;stroke:none;stroke-width:1.08322585;stroke-linecap:round;stroke-linejoin:miter;stroke-miterlimit:4;stroke-dasharray:none;stroke-dashoffset:0;stroke-opacity:1;color-rendering:auto;image-rendering:auto;shape-rendering:auto;text-rendering:auto;enable-background:accumulate" />
      <path
         id="path4219"
         d="m -8.33693,822.09264 c -3.00492,0 -7.47543,2.79085 -13.410153,8.375 -5.934726,5.55911 -12.595315,13.26043 -19.982422,23.10156 l -2.966797,2.29101 c -6.110013,4.65764 -9.166016,7.27367 -9.166016,7.84961 0,0.20034 0.03816,0.36308 0.113282,0.48828 0.100164,0.12521 0.212686,0.1875 0.33789,0.1875 0.300493,0 1.353296,-0.76351 3.15625,-2.29101 1.827996,-1.55255 3.517768,-2.91682 5.070313,-4.09375 l -6.835938,9.24023 c -0.225369,-0.12522 -0.464433,-0.2136 -0.714843,-0.26367 -0.25041,-0.0751 -0.52568,-0.11133 -0.826172,-0.11133 -0.575944,0 -1.026029,0.17481 -1.351563,0.52539 -0.325533,0.32554 -0.488281,0.7877 -0.488281,1.38868 0,0.30049 0.06229,0.64 0.1875,1.01562 0.100164,0.35057 0.262912,0.7263 0.488281,1.12695 l -16.828125,22.64844 c -0.100166,0.12521 -0.174529,0.24979 -0.224609,0.375 -0.07512,0.15025 -0.113281,0.27679 -0.113281,0.37695 0,0.27546 0.100453,0.48843 0.300781,0.63868 0.200329,0.15024 0.487666,0.22461 0.863281,0.22461 l 1.691406,0 c 0.400657,0 0.738221,-0.0884 1.013672,-0.26368 0.275452,-0.15024 0.550721,-0.42551 0.826172,-0.82617 l 16.152344,-21.78515 1.164062,0 c 2.053366,0 4.11886,-0.38779 6.197266,-1.16407 2.103447,-0.77627 4.319621,-2.00389 6.648438,-3.68164 0.38128,-0.27779 0.678469,-0.52702 1.02539,-0.79297 -0.380511,0.96745 -0.574219,1.90918 -0.574219,2.82227 0,1.25205 0.387791,2.25267 1.164063,3.00391 0.751231,0.75123 1.777944,1.12695 3.080078,1.12695 1.878078,0 4.156547,-0.8258 6.835938,-2.47852 2.679391,-1.67774 5.63494,-4.10689 8.865234,-7.28711 0.575948,0.70115 1.176708,1.21353 1.802738,1.53907 0.65106,0.30049 1.37642,0.45117 2.17773,0.45117 1.20197,0 2.51797,-0.46215 3.94531,-1.38867 0.26226,-0.17024 0.47343,-0.32656 0.6875,-0.48243 0.54087,-0.3676 1.31684,-0.97338 2.39258,-1.88476 1.82799,-1.55255 3.51777,-2.91682 5.07031,-4.09375 -2.15353,2.60427 -3.71871,4.88274 -4.69531,6.83594 -0.9766,1.9532 -1.46484,3.75549 -1.46484,5.4082 0,1.10181 0.32549,1.96577 0.97656,2.5918 0.67611,0.62602 1.59029,0.93945 2.74219,0.93945 1.67774,0 3.7191,-0.5887 6.12304,-1.76563 2.40394,-1.20197 4.99389,-2.91587 7.77344,-5.14453 0.12063,-0.0953 0.17961,-0.14677 0.29492,-0.23828 -0.39239,0.98329 -0.59375,1.93996 -0.59375,2.86719 0,1.25205 0.38779,2.25267 1.16407,3.00391 0.75123,0.75123 1.77794,1.12695 3.08007,1.12695 1.87808,0 4.15655,-0.8258 6.83594,-2.47852 2.6794,-1.67774 5.63494,-4.10689 8.86524,-7.28711 0.57594,0.70115 1.1767,1.21353 1.80273,1.53907 0.65107,0.30049 1.37642,0.45117 2.17773,0.45117 0.90078,0 1.86523,-0.25894 2.89258,-0.7793 -0.66412,1.42362 -1.01367,2.89644 -1.01367,4.42383 0,1.25205 0.26125,2.22853 0.78711,2.92969 0.52586,0.70114 1.26524,1.05078 2.2168,1.05078 0.75123,0 1.52876,-0.10046 2.33008,-0.30078 0.80131,-0.20034 1.63919,-0.51181 2.51562,-0.9375 l -1.46484,1.91406 c -6.33538,2.30377 -11.44286,5.08451 -15.32422,8.33984 -3.90641,3.25534 -5.86133,6.27318 -5.86133,9.05274 0,1.20196 0.27722,2.10214 0.82813,2.70312 0.5509,0.62603 1.38877,0.93946 2.51562,0.93946 2.00329,0 4.84631,-1.68978 8.52734,-5.07032 3.68104,-3.3555 8.2882,-8.48906 13.82227,-15.40039 3.00493,-0.4257 5.8098,-1.17714 8.41406,-2.2539 2.60427,-1.10181 5.29467,-2.66699 8.07422,-4.69532 1.85304,-1.35221 3.28156,-2.49145 4.2832,-3.41797 0.50207,-0.45308 0.87627,-0.83881 1.13282,-1.16015 0.28463,-0.20572 0.62344,-0.48084 1.04492,-0.86719 0.72618,-0.67611 1.34098,-1.21458 1.84179,-1.61523 1.67776,-1.30214 3.02997,-2.24242 4.05665,-2.81836 1.05172,-0.57594 1.90166,-0.86328 2.55273,-0.86328 0.12522,0 0.21361,0.0502 0.26367,0.15039 0.0751,0.0751 0.11328,0.2258 0.11328,0.45117 0,0.75123 -0.48824,1.85231 -1.46484,3.30469 -0.9766,1.45238 -2.86728,3.81923 -5.67188,7.09961 -0.5509,0.60098 -1.26614,1.38863 -2.14257,2.36523 -1.45238,1.57759 -2.17774,2.52994 -2.17774,2.85547 0,0.15025 0.13861,0.27483 0.41406,0.375 0.27545,0.10016 0.65118,0.15039 1.12696,0.15039 0.45074,0 0.95105,-0.0241 1.50195,-0.0742 0.55091,-0.0501 1.15167,-0.1264 1.80273,-0.22656 1.7028,-2.30378 3.55532,-4.55615 5.5586,-6.75977 2.02833,-2.22865 4.1822,-4.38253 6.46094,-6.46093 -0.25042,0.75123 -0.45132,1.45244 -0.60157,2.10351 -0.1252,0.65107 -0.1875,1.22574 -0.1875,1.72656 0,1.4023 0.35159,2.50533 1.05274,3.30664 0.72618,0.77627 1.73887,1.16407 3.04101,1.16407 0.95156,0 1.96621,-0.26321 3.04297,-0.78907 0.71696,-0.36681 1.60953,-0.95874 2.64844,-1.73632 -0.37875,1.08243 -0.58203,2.1981 -0.58203,3.35156 0,1.42734 0.28733,2.52841 0.86328,3.30469 0.57594,0.77626 1.38968,1.16601 2.44141,1.16601 1.00164,0 2.14087,-0.36366 3.41797,-1.08984 1.27709,-0.75124 2.66746,-1.86633 4.16992,-3.34375 -0.025,0.10016 -0.0492,0.21269 -0.0742,0.33789 l 0,0.48828 c 0,1.07677 0.33756,1.94073 1.01367,2.5918 0.70115,0.62602 1.6274,0.93945 2.7793,0.93945 1.60262,0 3.66812,-0.6249 6.19726,-1.87695 2.55419,-1.2771 5.22045,-3.03112 8,-5.25977 l 0.18946,-0.15039 c 1.27952,-1.03961 2.22805,-1.8643 2.92382,-2.52344 0.5407,-0.36983 1.30954,-0.97172 2.3711,-1.87109 1.828,-1.55255 3.51777,-2.91682 5.07031,-4.09375 l -6.83594,9.24023 c -0.22537,-0.12522 -0.46248,-0.2136 -0.71289,-0.26367 -0.25041,-0.0751 -0.52568,-0.11133 -0.82617,-0.11133 -0.57594,0 -1.02798,0.17481 -1.35352,0.52539 -0.32553,0.32554 -0.48828,0.7877 -0.48828,1.38868 0,0.30049 0.0643,0.64 0.18946,1.01562 0.10016,0.35057 0.2629,0.7263 0.48828,1.12695 l -16.82813,22.64844 c -0.10018,0.12521 -0.17454,0.24979 -0.22461,0.375 -0.0751,0.15025 -0.11328,0.27679 -0.11328,0.37695 0,0.27546 0.10045,0.48843 0.30078,0.63868 0.20033,0.15024 0.48767,0.22461 0.86328,0.22461 l 1.68946,0 c 0.40066,0 0.74017,-0.0884 1.01562,-0.26368 0.27545,-0.15024 0.55072,-0.42551 0.82617,-0.82617 l 16.15039,-21.78515 1.16602,0 c 2.05337,0 4.11887,-0.38779 6.19727,-1.16407 2.10345,-0.77627 4.31962,-2.00389 6.64843,-3.68164 1.75288,-1.27709 3.14129,-2.4284 4.16797,-3.45508 0.25667,-0.25667 0.48133,-0.49612 0.67383,-0.71679 0.34076,-0.24164 0.65402,-0.45807 1.13086,-0.82422 1.42734,-1.10181 2.84185,-2.0522 4.24414,-2.85352 -2.57923,2.40394 -4.50806,4.50759 -5.78516,6.31055 -1.27709,1.80295 -1.91601,3.34205 -1.91601,4.61914 0,0.95156 0.33756,1.7291 1.01367,2.33008 0.70115,0.60099 1.60327,0.90039 2.70508,0.90039 1.5275,0 3.4945,-0.5887 5.89844,-1.76563 2.42898,-1.20197 4.92042,-2.84151 7.47461,-4.91992 l 0.82617,-0.67578 c 0.14074,-0.11259 0.23672,-0.19904 0.36914,-0.30664 -0.36084,1.05819 -0.5586,2.14759 -0.5586,3.27344 0,1.42734 0.2893,2.52841 0.86524,3.30469 0.57595,0.77626 1.38968,1.16601 2.4414,1.16601 1.00165,0 2.14088,-0.36366 3.41797,-1.08984 1.2771,-0.75124 2.66747,-1.86633 4.16993,-3.34375 -0.025,0.10016 -0.0511,0.21269 -0.0762,0.33789 l 0,0.48828 c 0,1.07677 0.33757,1.94073 1.01368,2.5918 0.70114,0.62602 1.62936,0.93945 2.78125,0.93945 1.60262,0 3.66811,-0.6249 6.19726,-1.87695 2.55419,-1.2771 5.22045,-3.03112 8,-5.25977 l 0.1875,-0.15039 c 2.80459,-2.27873 4.20703,-3.64301 4.20703,-4.09375 0,-0.20033 -0.0623,-0.36307 -0.1875,-0.48828 -0.10016,-0.12521 -0.23877,-0.1875 -0.41406,-0.1875 -0.22537,0 -0.91256,0.50031 -2.06445,1.50195 -1.15189,1.00165 -2.22883,1.87768 -3.23047,2.62891 -2.40394,1.828 -4.68241,3.28066 -6.83594,4.35742 -2.15353,1.05173 -3.78101,1.57812 -4.88281,1.57812 -0.37562,0 -0.63882,-0.0623 -0.78906,-0.1875 -0.12521,-0.1252 -0.1875,-0.3522 -0.1875,-0.67773 0,-0.80131 0.95039,-2.31627 2.85351,-4.54492 1.90312,-2.25369 4.53317,-4.97019 7.88867,-8.15039 0.37562,-0.32554 0.87593,-0.76355 1.50196,-1.31446 1.15188,-1.02667 1.72851,-1.68974 1.72851,-1.99023 0,-0.32553 -0.18884,-0.55057 -0.56445,-0.67578 -0.37561,-0.15025 -1.00051,-0.22656 -1.87695,-0.22656 -0.17529,0 -0.45056,0.014 -0.82618,0.0391 -0.37562,0.0251 -0.6649,0.0371 -0.86523,0.0371 -0.57594,0.35058 -1.10235,0.7263 -1.57813,1.12695 -0.45074,0.37562 -0.85059,0.7634 -1.20117,1.16406 -0.0751,-0.92652 -0.36246,-1.58958 -0.86328,-1.99023 -0.50082,-0.40066 -1.29042,-0.60156 -2.36719,-0.60156 -1.90312,0 -4.0932,0.57663 -6.57226,1.72851 -2.47906,1.12685 -4.79569,2.65387 -6.94922,4.58203 -0.9927,0.85936 -1.81218,1.73349 -2.49805,2.61914 -0.3126,0.23486 -0.68378,0.52716 -1.18359,0.94922 -1.10181,0.92652 -2.11646,1.72819 -3.04297,2.4043 -2.35386,1.80295 -4.57003,3.22952 -6.64844,4.28125 -2.05336,1.05172 -3.60453,1.57813 -4.65625,1.57813 -0.35058,0 -0.62584,-0.0884 -0.82617,-0.26368 -0.20033,-0.17528 -0.30078,-0.42446 -0.30078,-0.75 0,-0.60098 0.55054,-1.61563 1.65234,-3.04296 1.12685,-1.42734 2.80455,-3.23159 5.03321,-5.41016 1.75287,-1.72783 3.64355,-3.44175 5.67187,-5.14453 2.05337,-1.72784 3.08008,-2.68018 3.08008,-2.85547 0,-0.25041 -0.35159,-0.45132 -1.05273,-0.60156 -0.67612,-0.15025 -1.57628,-0.22461 -2.70313,-0.22461 -0.85139,0 -2.17947,0.53847 -3.98242,1.61523 -1.80296,1.05173 -4.11958,2.66714 -6.94922,4.8457 l -1.36719,1.03711 c -0.051,-0.0395 -0.10767,-0.0605 -0.17187,-0.0605 -0.17529,0 -0.80214,0.5264 -1.87891,1.57812 -1.05173,1.05173 -2.11465,1.96397 -3.19141,2.74024 -1.77791,1.27709 -3.40538,2.22944 -4.88281,2.85547 -1.45238,0.60098 -2.84275,0.90234 -4.16992,0.90234 -0.37561,0 -0.77742,-0.0261 -1.20312,-0.0762 -0.40066,-0.0751 -0.82466,-0.17558 -1.2754,-0.30078 l 14.38477,-19.08008 c 10.26682,-6.68596 17.5784,-11.93204 21.93555,-15.73828 4.35714,-3.83128 6.53711,-6.86119 6.53711,-9.08985 0,-0.90147 -0.25114,-1.59062 -0.75196,-2.0664 -0.47578,-0.47578 -1.1509,-0.71289 -2.02734,-0.71289 -3.00493,0 -7.47543,2.79085 -13.41016,8.375 -5.93472,5.55911 -12.59531,13.26043 -19.98242,23.10156 l -2.96875,2.29101 c -3.44758,2.62808 -5.88639,4.58161 -7.38867,5.91016 -0.30411,0.11855 -0.9319,0.58693 -1.92578,1.45117 -1.1519,1.00165 -2.22883,1.87768 -3.23047,2.62891 -2.40394,1.828 -4.68241,3.28066 -6.83594,4.35742 -2.15353,1.05173 -3.78101,1.57812 -4.88281,1.57812 -0.37562,0 -0.63882,-0.0623 -0.78906,-0.1875 -0.1252,-0.1252 -0.1875,-0.3522 -0.1875,-0.67773 0,-0.80131 0.9504,-2.31627 2.85351,-4.54492 1.90312,-2.25369 4.53317,-4.97019 7.88867,-8.15039 0.37562,-0.32554 0.87593,-0.76355 1.50196,-1.31446 1.15189,-1.02667 1.72851,-1.68974 1.72851,-1.99023 0,-0.32553 -0.18688,-0.55057 -0.5625,-0.67578 -0.37561,-0.15025 -1.00246,-0.22656 -1.8789,-0.22656 -0.17529,0 -0.45056,0.014 -0.82618,0.0391 -0.37561,0.0251 -0.66294,0.0371 -0.86328,0.0371 -0.57594,0.35058 -1.10234,0.7263 -1.57812,1.12695 -0.45074,0.37562 -0.85255,0.7634 -1.20313,1.16406 -0.0751,-0.92652 -0.36246,-1.58958 -0.86328,-1.99023 -0.50082,-0.40066 -1.28847,-0.60156 -2.36523,-0.60156 -1.90312,0 -4.09515,0.57663 -6.57422,1.72851 -2.47906,1.12685 -4.79569,2.65387 -6.94922,4.58203 -0.79487,0.6881 -1.48388,1.38489 -2.08203,2.08985 -0.18689,0.15665 -0.34652,0.27932 -0.58399,0.50195 -0.6761,0.60099 -1.24066,1.08923 -1.6914,1.46484 -1.05173,0.90148 -1.93983,1.54041 -2.66602,1.91602 -0.72619,0.37562 -1.40327,0.5625 -2.02929,0.5625 -0.57595,0 -1.0381,-0.2009 -1.38868,-0.60156 -0.35057,-0.40066 -0.52539,-0.9251 -0.52539,-1.57617 0,-0.87644 0.23711,-1.87902 0.71289,-3.00586 0.50082,-1.15189 1.21412,-2.32928 2.14063,-3.53125 0.30049,-0.40066 0.67621,-0.83868 1.12695,-1.31446 0.47578,-0.50082 0.71485,-0.80022 0.71485,-0.90039 0,-0.20032 -0.25114,-0.37514 -0.75196,-0.52539 -0.50082,-0.17528 -1.10158,-0.26367 -1.80273,-0.26367 -0.17529,0 -0.3762,0.0382 -0.60156,0.11328 -0.20035,0.0751 -0.32494,0.14949 -0.375,0.22461 l -6.08594,5.29688 c 0.4257,-0.90148 0.73913,-1.70315 0.93945,-2.4043 0.20033,-0.72619 0.30078,-1.36511 0.30078,-1.91602 0,-0.75122 -0.20091,-1.33992 -0.60156,-1.76562 -0.40066,-0.45074 -0.9512,-0.67578 -1.65234,-0.67578 -0.90148,0 -2.25369,0.48824 -4.05664,1.46484 -1.77792,0.9766 -3.63044,2.27858 -5.5586,3.90625 -1.32717,1.12685 -2.25343,1.96668 -2.77929,2.51758 -0.26322,0.27637 -0.45325,0.5126 -0.57813,0.71289 -0.31301,0.24042 -0.62643,0.47913 -1.07617,0.86328 -1.17693,1.00165 -2.25387,1.86561 -3.23047,2.5918 -2.8046,2.10344 -5.45879,3.73092 -7.96289,4.88281 -2.47907,1.12685 -4.83189,1.79186 -7.06055,1.99219 3.38055,-4.43227 6.93686,-8.47682 10.66797,-12.13281 3.75615,-3.68103 5.63281,-5.57171 5.63281,-5.67188 0,-0.32553 -0.18688,-0.55057 -0.5625,-0.67578 -0.37562,-0.15025 -1.00247,-0.22656 -1.8789,-0.22656 -0.17529,0 -0.45056,0.014 -0.82617,0.0391 -0.37562,0.0251 -0.66296,0.0371 -0.86329,0.0371 -0.52586,0.32554 -1.0141,0.68919 -1.46484,1.08984 -0.45074,0.37562 -0.86462,0.77547 -1.24023,1.20117 -0.10017,-0.92652 -0.39957,-1.58958 -0.90039,-1.99023 -0.47578,-0.40066 -1.22723,-0.60156 -2.25391,-0.60156 -1.90312,0 -4.10722,0.57663 -6.61133,1.72851 -2.47906,1.12685 -4.83385,2.67801 -7.0625,4.65625 -0.67477,0.59043 -1.26362,1.20077 -1.80078,1.82227 -0.40042,0.21707 -0.93074,0.55268 -1.61719,1.0332 -1.25205,0.8514 -2.35312,1.27735 -3.30469,1.27735 -0.6761,0 -1.25273,-0.13861 -1.72851,-0.41407 -0.47578,-0.27545 -0.8515,-0.7014 -1.12695,-1.27734 0.87644,-1.05173 1.52937,-2.02821 1.95507,-2.92969 0.45074,-0.90148 0.67579,-1.71522 0.67579,-2.4414 0,-1.07677 -0.38975,-1.94073 -1.16602,-2.5918 -0.75123,-0.67611 -1.75185,-1.01367 -3.00391,-1.01367 -1.55254,0 -3.35484,0.39986 -5.4082,1.20117 -2.02833,0.80131 -4.01946,1.90435 -5.97266,3.30664 -1.77442,1.27963 -3.25437,2.58402 -4.48242,3.91016 -0.3367,0.24371 -0.77876,0.61416 -1.33984,1.12304 -1.05173,0.9766 -2.0543,1.81447 -3.00586,2.51563 -2.55419,1.9532 -4.86886,3.45609 -6.94727,4.50781 -2.0784,1.05173 -3.74404,1.57812 -4.99609,1.57812 -0.45074,0 -0.7883,-0.1386 -1.01367,-0.41406 -0.20033,-0.27545 -0.30078,-0.7014 -0.30078,-1.27734 0,-1.07677 0.48824,-2.42898 1.46484,-4.05664 0.9766,-1.65271 2.49156,-3.65591 4.54492,-6.00977 l 8.78906,-10.10351 7.36133,0 1.24024,-1.31446 -7.625,0 6.46093,-7.51172 c 0.15027,-0.20033 0.25072,-0.37709 0.30079,-0.52734 0.0501,-0.15025 0.0742,-0.31299 0.0742,-0.48828 10e-6,-0.32553 -0.25113,-0.60081 -0.75195,-0.82617 -0.50082,-0.22537 -1.16388,-0.33789 -1.99023,-0.33789 -0.45074,0 -0.83853,0.0763 -1.16406,0.22656 -0.3005,0.15025 -0.58783,0.38736 -0.86329,0.71289 l -6.98632,8.75195 -6.6875,0 -1.23829,1.31446 6.60938,0 -3.30469,3.64453 -2.96679,2.29101 c -3.63312,2.76951 -6.16001,4.80061 -7.63282,6.12696 -0.40316,0.2157 -0.9405,0.55405 -1.64453,1.04687 -1.25205,0.8514 -2.35508,1.27735 -3.30664,1.27735 -0.67611,0 -1.25078,-0.13861 -1.72656,-0.41407 -0.47578,-0.27545 -0.85151,-0.7014 -1.12695,-1.27734 0.87643,-1.05173 1.52742,-2.02821 1.95312,-2.92969 0.45074,-0.90148 0.67578,-1.71522 0.67578,-2.4414 0,-1.07677 -0.38779,-1.94073 -1.16406,-2.5918 -0.75123,-0.67611 -1.75381,-1.01367 -3.005861,-1.01367 -1.552544,0 -3.354837,0.39986 -5.408203,1.20117 -2.028324,0.80131 -4.019455,1.90435 -5.972656,3.30664 -1.42755,1.02948 -2.660465,2.07519 -3.734375,3.13476 -0.317975,0.236 -0.812717,0.67886 -1.523437,1.37305 -1.051724,1.05173 -2.116595,1.96397 -3.19336,2.74024 -1.777914,1.27709 -3.405391,2.22944 -4.882812,2.85547 -1.45238,0.60098 -2.842747,0.90234 -4.169922,0.90234 -0.375616,0 -0.775475,-0.0261 -1.201172,-0.0762 -0.400657,-0.0751 -0.826605,-0.17558 -1.277344,-0.30078 l 14.386719,-19.08008 c 10.266826,-6.68596 17.578405,-11.93204 21.935543,-15.73828 4.35714,-3.83128 6.53516,-6.86119 6.53516,-9.08985 0,-0.90147 -0.25113,-1.59062 -0.75195,-2.0664 -0.47578,-0.47578 -1.15091,-0.71289 -2.02735,-0.71289 z m -0.15039,2.21484 c 0.4257,0 0.72706,0.10045 0.90235,0.30078 0.17528,0.17529 0.26172,0.48871 0.26172,0.93945 0,1.62767 -2.04136,4.15727 -6.12305,7.58789 -4.056648,3.43062 -9.578005,7.23612 -16.564455,11.41797 5.78448,-7.21182 10.355438,-12.38354 13.710937,-15.51367 3.355498,-3.15517 5.959458,-4.73242 7.812498,-4.73242 z m 177.44141,0 c 0.4257,0 0.7251,0.10045 0.90039,0.30078 0.17529,0.17529 0.26367,0.48871 0.26367,0.93945 0,1.62767 -2.04136,4.15727 -6.12305,7.58789 -4.05664,3.43062 -9.578,7.23612 -16.56445,11.41797 5.78448,-7.21182 10.35349,-12.38354 13.70899,-15.51367 3.3555,-3.15517 5.96142,-4.73242 7.81445,-4.73242 z m -0.48828,17.0918 c -0.80132,0 -1.45231,0.22504 -1.95313,0.67578 -0.47578,0.42569 -0.71484,0.9883 -0.71484,1.68945 0,0.75123 0.23906,1.35199 0.71484,1.80274 0.47578,0.45073 1.12677,0.67578 1.95313,0.67578 0.80131,0 1.4523,-0.22505 1.95312,-0.67578 0.50082,-0.45074 0.75,-1.05151 0.75,-1.80274 0,-0.70115 -0.24918,-1.26376 -0.75,-1.68945 -0.47578,-0.45074 -1.12676,-0.67578 -1.95312,-0.67578 z m -184.728518,14.23437 c 0.500818,0 0.888618,0.13861 1.164058,0.41406 0.3005,0.27545 0.45118,0.65118 0.45118,1.12696 0,0.90148 -0.57663,2.11507 -1.728519,3.64258 -1.151888,1.50246 -2.753276,3.12993 -4.806641,4.88281 -2.378899,2.00328 -4.470483,3.51824 -6.273438,4.54492 -1.802954,1.02669 -3.255615,1.54101 -4.357421,1.54101 -0.47578,0 -0.825412,-0.0884 -1.050782,-0.26367 -0.225369,-0.20032 -0.33789,-0.52582 -0.33789,-0.97656 0,-0.8514 0.787649,-2.21568 2.365234,-4.09375 1.602627,-1.90312 3.744438,-3.9947 6.423828,-6.27344 1.627668,-1.4023 3.180782,-2.50337 4.658203,-3.30468 1.477422,-0.82636 2.640793,-1.24024 3.492188,-1.24024 z m 47.177738,0 c 0.50082,0 0.88861,0.13861 1.16406,0.41406 0.30049,0.27545 0.45117,0.65118 0.45117,1.12696 0,0.90148 -0.57663,2.11507 -1.72851,3.64258 -1.15189,1.50246 -2.75328,3.12993 -4.80665,4.88281 -2.3789,2.00328 -4.47048,3.51824 -6.27343,4.54492 -1.80296,1.02669 -3.25562,1.54101 -4.35742,1.54101 -0.47579,0 -0.82737,-0.0884 -1.05274,-0.26367 -0.22537,-0.20032 -0.33789,-0.52582 -0.33789,-0.97656 0,-0.8514 0.7896,-2.21568 2.36719,-4.09375 1.60262,-1.90312 3.74443,-3.9947 6.42383,-6.27344 1.62766,-1.4023 3.17883,-2.50337 4.65625,-3.30468 1.47742,-0.82636 2.64274,-1.24024 3.49414,-1.24024 z m 24.79101,0.15039 c 0.3005,0 0.52554,0.0763 0.67578,0.22656 0.15025,0.12521 0.22461,0.32416 0.22461,0.59961 0,0.32554 -0.0864,0.66506 -0.26172,1.01563 -0.17529,0.35057 -0.41435,0.68814 -0.71484,1.01367 l -8.63867,9.20313 c -1.15189,1.25204 -2.27905,2.2406 -3.38086,2.96679 -1.07677,0.70115 -1.94073,1.05078 -2.5918,1.05078 -0.35057,0 -0.63791,-0.10045 -0.86328,-0.30078 -0.20033,-0.22536 -0.30078,-0.5127 -0.30078,-0.86328 0,-1.02668 0.76351,-2.60393 2.29101,-4.73242 1.5275,-2.15353 3.48048,-4.21903 5.85938,-6.19727 1.45238,-1.20196 2.8809,-2.16638 4.2832,-2.89257 1.42734,-0.7262 2.56658,-1.08985 3.41797,-1.08985 z m 56.49219,0 c 0.30049,0 0.5376,0.0763 0.71289,0.22656 0.17529,0.15025 0.26367,0.3492 0.26367,0.59961 0,0.3005 -0.10045,0.62599 -0.30078,0.97657 -0.17529,0.35057 -0.42642,0.70216 -0.75195,1.05273 l -8.63867,9.20313 c -1.15189,1.25204 -2.27906,2.2406 -3.38086,2.96679 -1.07677,0.70115 -1.9528,1.05078 -2.62891,1.05078 -0.32553,0 -0.60081,-0.10045 -0.82617,-0.30078 -0.20034,-0.22536 -0.30078,-0.5127 -0.30078,-0.86328 0,-1.00164 0.77558,-2.57889 2.32812,-4.73242 1.55255,-2.15353 3.51955,-4.21903 5.89844,-6.19727 1.45238,-1.22701 2.86688,-2.19143 4.24414,-2.89257 1.4023,-0.7262 2.52947,-1.08985 3.38086,-1.08985 z m 67.75976,0 c 0.3005,0 0.53956,0.0763 0.71485,0.22656 0.17529,0.15025 0.26367,0.3492 0.26367,0.59961 0,0.3005 -0.10045,0.62599 -0.30078,0.97657 -0.17529,0.35057 -0.42642,0.70216 -0.75195,1.05273 l -8.63868,9.20313 c -1.15189,1.25204 -2.27905,2.2406 -3.38085,2.96679 -1.07677,0.70115 -1.9528,1.05078 -2.62891,1.05078 -0.32553,0 -0.6008,-0.10045 -0.82617,-0.30078 -0.20033,-0.22536 -0.30078,-0.5127 -0.30078,-0.86328 0,-1.00164 0.77557,-2.57889 2.32812,-4.73242 1.55254,-2.15353 3.51759,-4.21903 5.89648,-6.19727 1.45239,-1.22701 2.86884,-2.19143 4.2461,-2.89257 1.40229,-0.7262 2.5275,-1.08985 3.3789,-1.08985 z m -138.93945,20.77149 -7.32422,9.24023 c -2.45402,3.05501 -4.28241,5.10843 -5.48437,6.16016 -1.22702,1.07676 -2.29189,1.61523 -3.19336,1.61523 -0.47578,0 -0.86357,-0.22504 -1.16406,-0.67578 -0.3005,-0.42569 -0.44922,-0.97624 -0.44922,-1.65234 0,-2.1285 1.57725,-4.51949 4.73242,-7.17383 3.13013,-2.65436 7.42387,-5.15982 12.88281,-7.51367 z"
         style="font-style:normal;font-variant:normal;font-weight:normal;font-stretch:normal;font-size:medium;line-height:125%;font-family:'Embassy BT';-inkscape-font-specification:'Embassy BT';text-align:start;letter-spacing:0px;word-spacing:0px;writing-mode:lr-tb;text-anchor:start;fill:#000000;fill-opacity:1;stroke:none"
         inkscape:connector-curvature="0" />
    </g>
  </g>
</svg>
