<?xml version="1.0" encoding="UTF-8" standalone="no"?>
<!-- Created with Inkscape (http://www.inkscape.org/) -->

<svg
   xmlns:dc="http://purl.org/dc/elements/1.1/"
   xmlns:cc="http://creativecommons.org/ns#"
   xmlns:rdf="http://www.w3.org/1999/02/22-rdf-syntax-ns#"
   xmlns:svg="http://www.w3.org/2000/svg"
   xmlns="http://www.w3.org/2000/svg"
   xmlns:sodipodi="http://sodipodi.sourceforge.net/DTD/sodipodi-0.dtd"
   xmlns:inkscape="http://www.inkscape.org/namespaces/inkscape"
   width="354.33069"
   height="354.33069"
   id="svg2"
   version="1.1"
   inkscape:version="0.91 r13725"
   sodipodi:docname="logoEM.svg"
   inkscape:export-filename="/home/marek/js/work/EMfotografia/logo/logoEM"
   inkscape:export-xdpi="203.2"
   inkscape:export-ydpi="203.2">
  <defs
     id="defs4" />
  <sodipodi:namedview
     id="base"
     pagecolor="#ffffff"
     bordercolor="#666666"
     borderopacity="1.0"
     inkscape:pageopacity="0.0"
     inkscape:pageshadow="2"
     inkscape:zoom="2"
     inkscape:cx="146.30861"
     inkscape:cy="159.05175"
     inkscape:document-units="cm"
     inkscape:current-layer="layer1"
     showgrid="false"
     inkscape:window-width="1855"
     inkscape:window-height="1176"
     inkscape:window-x="65"
     inkscape:window-y="24"
     inkscape:window-maximized="1"
     units="cm"
     inkscape:snap-page="true"
     borderlayer="true" />
  <metadata
     id="metadata7">
    <rdf:RDF>
      <cc:Work
         rdf:about="">
        <dc:format>image/svg+xml</dc:format>
        <dc:type
           rdf:resource="http://purl.org/dc/dcmitype/StillImage" />
        <dc:title></dc:title>
      </cc:Work>
    </rdf:RDF>
  </metadata>
  <g
     inkscape:label="Layer 1"
     inkscape:groupmode="layer"
     id="layer1"
     transform="translate(0,-698.03017)">
    <rect
       style="fill:#ffffff;fill-opacity:1;stroke:none;stroke-width:0.99212599;stroke-miterlimit:4;stroke-dasharray:none;stroke-opacity:1"
       id="rect4144"
       width="354.33069"
       height="354.33069"
       x="0"
       y="698.03015" />
    <g
       transform="matrix(4.4518155,0,0,7.7710484,-777.45253,-1254.4932)"
       style="font-style:normal;font-variant:normal;font-weight:normal;font-stretch:normal;font-size:26.99378395px;line-height:125%;font-family:Gabriola;-inkscape-font-specification:Gabriola;text-align:start;letter-spacing:0px;word-spacing:0px;writing-mode:lr-tb;text-anchor:start;fill:#000000;fill-opacity:1;stroke:none"
       id="text2985-6-7-8">
      <path
         d="m 193.51673,263.00698 c -0.0769,-0.0813 -0.18343,-0.14058 -0.31962,-0.17794 -0.13621,-0.0373 -0.31195,-0.056 -0.52723,-0.056 -0.14059,1e-5 -0.39471,0.0188 -0.68094,0.0316 -1.03282,0.0459 -0.70934,-0.58584 0.1291,-0.67003 0.36905,-0.0505 1.31961,-0.15776 1.64253,-0.19516 0.32292,-0.0373 0.62498,-0.0648 0.90617,-0.0824 2.20177,0.10373 4.104,0.0681 6.18168,-0.1253 0.20209,2e-5 0.35696,0.0473 0.46461,0.14169 0.10764,0.0945 0.16146,0.24056 0.16147,0.43826 -1e-5,0.0791 -0.008,0.23287 -0.0231,0.46132 -0.0154,0.22847 -0.0352,0.49099 -0.0593,0.78754 -0.0242,0.29657 -0.0516,0.60961 -0.0824,0.93911 -0.052,0.75771 -0.70552,0.86594 -0.71176,0.43493 0.19417,-0.88358 -0.0454,-1.8266 -0.63127,-2.07428 -0.72446,-0.30629 -3.09307,-0.26757 -4.50215,-0.12039 -0.009,0.36467 -0.0187,0.77217 -0.0297,1.22249 -0.011,0.45035 -0.0231,0.93254 -0.0362,1.44657 -0.0132,0.51405 -0.0275,1.05665 -0.0428,1.6278 -0.0154,0.57117 -0.0319,1.1599 -0.0494,1.76619 1.35937,0.12126 2.43653,0.18909 3.7015,0.10348 0.44007,-0.041 1.05673,-0.28936 1.34656,-0.3762 0.0482,0.23133 -0.0197,0.53412 -0.0197,0.68788 -1e-5,0.12742 -0.0395,0.23506 -0.11863,0.32292 -0.0791,0.0879 -0.19112,0.15928 -0.3361,0.21419 -0.145,0.0549 -0.32074,0.0945 -0.52722,0.11862 -0.20651,0.0242 -0.43717,0.0363 -0.69198,0.0362 -0.45254,10e-6 -0.96549,-0.0253 -1.53883,-0.0758 -0.57336,-0.0505 -1.18736,-0.11312 -1.84199,-0.18782 -0.009,0.25483 -0.0198,0.56128 -0.0329,0.91934 -0.0132,0.35808 -0.0286,0.73922 -0.0461,1.14342 -0.0176,0.4042 -0.0385,0.81829 -0.0626,1.24226 -0.0242,0.42398 -0.0483,0.83038 -0.0725,1.21921 -0.0242,0.38882 -0.0505,0.7447 -0.0791,1.06762 -0.0286,0.32293 -0.0582,0.58764 -0.089,0.79413 0.42616,-0.0615 0.84135,-0.10654 1.24556,-0.1351 0.4042,-0.0286 0.77106,-0.0428 1.10058,-0.0428 0.46131,0 0.89297,0.0121 1.29499,0.0362 0.402,0.0242 0.80071,0.0362 1.19613,0.0362 0.2636,0 0.49536,-0.0362 0.69528,-0.10874 0.19989,-0.0725 0.37453,-0.20211 0.52392,-0.38883 0.14937,-0.18672 0.27349,-0.43825 0.37235,-0.75459 0.32511,-1.15116 0.94093,-0.46515 0.66892,0.65249 -0.0923,0.47889 -0.22079,0.85674 -0.38553,1.13353 -0.16477,0.27679 -0.36577,0.46901 -0.60301,0.57665 -0.23726,0.10764 -0.88127,-0.0376 -1.42962,-0.17304 -2.23175,-0.55114 -3.76157,-0.25243 -6.26124,0.23565 l -0.11862,-0.0132 c -0.0528,-4.60378 1.85691,-9.52682 0.31919,-14.07987 z"
         id="path4044-1-6-6"
         inkscape:connector-curvature="0"
         sodipodi:nodetypes="cccsccccccccccscsccccccccccsccccssccscsccccccsccc" />
    </g>
    <g
       transform="matrix(3.9258529,0,0,8.1365354,-751.07119,-1257.119)"
       style="font-style:normal;font-variant:normal;font-weight:normal;font-stretch:normal;font-size:24.59490967px;line-height:125%;font-family:Gabriola;-inkscape-font-specification:Gabriola;text-align:start;letter-spacing:0px;word-spacing:0px;writing-mode:lr-tb;text-anchor:start;fill:#000000;fill-opacity:1;stroke:none"
       id="text2985-1-4-1-0">
      <path
         d="m 265.46866,264.44804 c -0.21042,0.0851 -0.46737,0.16413 -0.67552,0.22217 -0.20817,0.058 -0.40232,0.10108 -0.58244,0.1291 -0.18016,0.028 -0.35429,0.042 -0.52241,0.042 -0.22818,0 -0.42834,-0.043 -0.60046,-0.1291 -0.17214,-0.0861 -0.31525,-0.22717 -0.42933,-0.42332 -0.1141,-0.19615 -0.19916,-0.45435 -0.25519,-0.7746 -0.0561,-0.32024 -0.0841,-0.71655 -0.0841,-1.18891 l 0,-0.52841 c -10e-6,-0.24818 9.9e-4,-0.5354 0.003,-0.86166 0.002,-0.32625 0.005,-0.67251 0.009,-1.0388 0.004,-0.36627 0.009,-0.73956 0.015,-1.11986 0.006,-0.38028 0.013,-0.74757 0.021,-1.10185 0.008,-0.35426 0.016,-0.68552 0.024,-0.99376 0.008,-0.30823 0.016,-0.57043 0.024,-0.7866 0.02,-0.46836 0.043,-0.93571 0.0691,-1.40208 0.026,-0.46635 0.061,-0.9237 0.10508,-1.37206 l -0.048,-0.018 c -0.0681,0.18015 -0.15012,0.38531 -0.24619,0.61547 -0.0961,0.23019 -0.21818,0.5074 -0.36628,0.83164 -0.35228,0.77661 -0.71156,1.58123 -1.07783,2.41386 -0.36629,0.83264 -0.73657,1.6823 -1.11085,2.54896 -0.3743,0.86667 -0.75159,1.74534 -1.13187,2.63602 -0.70264,0.90026 -0.98634,4.0339 -1.73534,1.69332 -0.12009,-0.37029 -0.2522,-0.7706 -0.3963,-1.20093 -0.14412,-0.43033 -0.29723,-0.88468 -0.45935,-1.36305 -0.16213,-0.47836 -0.32726,-0.96273 -0.49538,-1.45311 -0.16814,-0.49037 -0.33727,-0.97975 -0.50739,-1.46813 -0.17014,-0.48837 -0.33427,-0.95873 -0.49238,-1.41109 -0.15813,-0.45234 -0.30824,-0.87766 -0.45035,-1.27598 -0.14211,-0.39829 -0.26921,-0.75357 -0.38129,-1.06582 -0.1281,-0.36427 -0.23919,-0.68651 -0.33326,-0.96674 -0.0941,-0.2802 -0.17514,-0.5284 -0.24319,-0.74457 l -0.042,0.018 c 0,0.1201 0.001,0.2392 0.003,0.35728 0.002,0.1181 0.003,0.2452 0.003,0.38129 l 0,0.99076 c -1e-5,0.6365 -0.01,1.286 -0.03,1.9485 -0.02,0.66252 -0.046,1.31502 -0.0781,1.9575 -0.032,0.6425 -0.07,1.26398 -0.11408,1.86444 -0.044,0.60046 -0.0901,1.15489 -0.13811,1.66328 -0.04,0.42032 -0.0771,0.7776 -0.11109,1.07182 -0.034,0.29423 -0.0721,0.54142 -0.11408,0.74157 -0.042,0.20015 -0.0931,0.35728 -0.15312,0.47136 -0.0601,0.11409 -0.13511,0.20116 -0.22517,0.2612 -0.0901,0.06 -0.20016,0.0981 -0.33026,0.11409 -0.1301,0.016 -0.28522,0.024 -0.46536,0.024 l -0.18013,0 c -0.036,0 -0.0801,-0.001 -0.13211,-0.003 -0.052,-0.002 -0.11609,-0.005 -0.19214,-0.009 l -0.0841,-0.06 c 0.18815,-0.38829 0.35527,-0.82163 0.50139,-1.3 0.14611,-0.47836 0.27421,-0.98575 0.38429,-1.52217 0.11009,-0.5364 0.20516,-1.09183 0.28522,-1.66628 0.0801,-0.57443 0.14711,-1.14787 0.20116,-1.72032 0.054,-0.57243 0.0981,-1.13687 0.1321,-1.6933 0.034,-0.55642 0.059,-1.08483 0.0751,-1.58522 0.016,-0.50037 0.027,-0.96273 0.033,-1.38707 0.006,-0.42431 0.009,-0.7946 0.009,-1.11085 0,-0.20415 -0.014,-0.37227 -0.042,-0.50439 -0.028,-0.13209 -0.0771,-0.23717 -0.14712,-0.31524 -0.0701,-0.078 -0.16613,-0.13209 -0.28822,-0.16213 -0.12209,-0.03 -0.27921,-0.045 -0.47136,-0.045 -0.1321,1e-5 -0.48457,0.0188 -0.76513,-0.0295 -0.65286,-0.11236 -1.03418,-0.57363 0.5997,-0.71565 0.47236,-0.0821 1.72868,-0.17955 2.0089,-0.17956 0.1441,1e-5 0.2682,0.013 0.37228,0.039 0.10408,0.026 0.19515,0.0701 0.27321,0.1321 0.0781,0.0621 0.14711,0.14412 0.20716,0.24619 0.06,0.10209 0.11809,0.22919 0.17414,0.38129 0.21215,0.59247 0.43633,1.22296 0.67251,1.89146 0.23618,0.66852 0.47736,1.35105 0.72356,2.04757 0.24618,0.69655 0.49237,1.39408 0.73857,2.09261 0.24618,0.69854 0.48336,1.37606 0.71154,2.03256 0.0881,0.26021 0.16913,0.49739 0.24319,0.71155 0.074,0.21417 0.1421,0.41232 0.20416,0.59446 0.062,0.18214 0.12008,0.35627 0.17413,0.5224 0.054,0.16613 0.10507,0.33126 0.15312,0.49538 l 0.042,0 c 0.064,-0.17213 0.13009,-0.34126 0.19815,-0.50739 0.068,-0.16612 0.1401,-0.33826 0.21617,-0.5164 0.0761,-0.17813 0.15911,-0.36928 0.24919,-0.57344 0.0901,-0.20415 0.19114,-0.43433 0.30324,-0.69053 0.2802,-0.64049 0.57143,-1.305 0.87367,-1.99353 0.30222,-0.68852 0.61246,-1.39306 0.93071,-2.11363 0.31824,-0.72054 0.64148,-1.4511 0.96975,-2.19168 0.32824,-0.74056 0.65849,-1.48313 0.99076,-2.22771 0.036,-0.08 0.0851,-0.1461 0.14711,-0.19816 0.062,-0.052 0.13009,-0.0931 0.20416,-0.12309 0.074,-0.03 0.1511,-0.051 0.23118,-0.0631 0.0801,-0.012 0.1541,-0.018 0.22217,-0.018 0.11607,1e-5 0.24317,0.015 0.38129,0.045 0.13809,0.03 0.2712,0.0731 0.39931,0.1291 -0.0601,0.65652 -0.1131,1.285 -0.15912,1.88545 -0.16129,3.31217 -0.46111,6.53282 -0.23719,9.77552 0.036,0.30023 0.0991,0.54542 0.18915,0.73556 0.0901,0.19015 0.21115,0.32925 0.36328,0.41732 0.1521,0.0881 0.34225,0.1321 0.57044,0.1321 0.084,0 0.16511,-0.002 0.24318,-0.006 0.0781,-0.004 0.20137,-0.0166 0.42846,-0.0109 0.62553,0.0159 0.40137,0.39034 -0.18229,0.62636 z"
         id="path4041-2-8-2"
         inkscape:connector-curvature="0"
         sodipodi:nodetypes="cccscccsccssssccccccssccccccccccccssssccccccccsscccscccscssccccsccscccscccccccccccccsccccccccccccscssc" />
    </g>
    <path
       style="fill:none;stroke:#000000;stroke-width:1.66985977;stroke-linecap:round;stroke-linejoin:miter;stroke-miterlimit:4;stroke-dasharray:none;stroke-opacity:1;marker-start:none"
       d="m 134.29366,876.611 c 30.92496,7.16518 56.58473,-5.65662 84.55768,3.37367"
       id="path3012-3-9-4"
       inkscape:connector-curvature="0"
       sodipodi:nodetypes="cc" />
    <path
       style="fill:none;stroke:#ff0000;stroke-width:1.08322585;stroke-linecap:round;stroke-linejoin:miter;stroke-miterlimit:4;stroke-dasharray:none;stroke-opacity:1;marker-start:none"
       d="m 148.25519,824.95032 c 9.62996,-6.87032 6.65552,6.86983 0.11908,10.9698 -7.3621,-4.89916 -8.86233,-17.50482 -0.11908,-10.9698 z"
       id="path3016-2-2-8"
       inkscape:connector-curvature="0"
       sodipodi:nodetypes="ccc" />
    <circle
       r="20.2458"
       cy="844.0014"
       cx="181.19257"
       style="fill:none;stroke:#000000;stroke-width:1.61640549;stroke-linecap:round;stroke-linejoin:round;stroke-miterlimit:4;stroke-dasharray:none;stroke-dashoffset:0;stroke-opacity:1;marker-start:none"
       id="path3786-2-7-6" />
    <path
       style="fill:none;stroke:#000000;stroke-width:1.61271894;stroke-linecap:round;stroke-linejoin:miter;stroke-miterlimit:4;stroke-dasharray:none;stroke-opacity:1;marker-start:none"
       d="m 133.84558,811.34295 c 12.40825,3.2128 20.98359,4.43274 28.64889,-1.10254 10.74018,-7.75571 24.39707,-8.16731 32.17454,-2.03633 8.0988,6.38426 15.7561,7.8307 23.41823,7.53455"
       id="path2992-8-4-9"
       inkscape:connector-curvature="0"
       sodipodi:nodetypes="cssc" />
    <path
       style="fill:none;stroke:#000000;stroke-width:1.61271894;stroke-linecap:round;stroke-linejoin:miter;stroke-miterlimit:4;stroke-dasharray:none;stroke-opacity:1;marker-start:none"
       d="m 139.4835,812.58224 c 7.71789,-8.17955 13.4772,-2.33583 16.59643,0.50936"
       id="path2994-5-3-0"
       inkscape:connector-curvature="0"
       sodipodi:nodetypes="cc" />
    <path
       style="font-style:normal;font-variant:normal;font-weight:normal;font-stretch:normal;font-size:medium;line-height:125%;font-family:'Embassy BT';-inkscape-font-specification:'Embassy BT';text-align:start;letter-spacing:0px;word-spacing:0px;writing-mode:lr-tb;text-anchor:start;fill:#000000;fill-opacity:1;stroke:none"
       d="M 107.8457 213.50977 C 104.84078 213.50977 100.37027 216.30062 94.435547 221.88477 C 88.500821 227.44388 81.840232 235.1452 74.453125 244.98633 L 71.486328 247.27734 C 65.376315 251.93498 62.320312 254.55101 62.320312 255.12695 C 62.320312 255.32729 62.358471 255.49003 62.433594 255.61523 C 62.533758 255.74044 62.64628 255.80273 62.771484 255.80273 C 63.071977 255.80273 64.12478 255.03922 65.927734 253.51172 C 67.75573 251.95917 69.445502 250.5949 70.998047 249.41797 L 64.162109 258.6582 C 63.93674 258.53298 63.697676 258.4446 63.447266 258.39453 C 63.196856 258.3194 62.921586 258.2832 62.621094 258.2832 C 62.04515 258.2832 61.595065 258.45801 61.269531 258.80859 C 60.943998 259.13413 60.78125 259.59629 60.78125 260.19727 C 60.78125 260.49776 60.843545 260.83727 60.96875 261.21289 C 61.068914 261.56346 61.231662 261.93919 61.457031 262.33984 L 44.628906 284.98828 C 44.52874 285.11349 44.454377 285.23807 44.404297 285.36328 C 44.329174 285.51353 44.291016 285.64007 44.291016 285.74023 C 44.291016 286.01569 44.391469 286.22866 44.591797 286.37891 C 44.792126 286.52915 45.079463 286.60352 45.455078 286.60352 L 47.146484 286.60352 C 47.547141 286.60352 47.884705 286.51513 48.160156 286.33984 C 48.435608 286.1896 48.710877 285.91433 48.986328 285.51367 L 65.138672 263.72852 L 66.302734 263.72852 C 68.3561 263.72852 70.421594 263.34073 72.5 262.56445 C 74.603447 261.78818 76.819621 260.56056 79.148438 258.88281 C 79.529718 258.60502 79.826907 258.35579 80.173828 258.08984 C 79.793317 259.05729 79.599609 259.99902 79.599609 260.91211 C 79.599609 262.16416 79.9874 263.16478 80.763672 263.91602 C 81.514903 264.66725 82.541616 265.04297 83.84375 265.04297 C 85.721828 265.04297 88.000297 264.21717 90.679688 262.56445 C 93.359079 260.88671 96.314628 258.45756 99.544922 255.27734 C 100.12087 255.97849 100.72163 256.49087 101.34766 256.81641 C 101.99872 257.1169 102.72408 257.26758 103.52539 257.26758 C 104.72736 257.26758 106.04336 256.80543 107.4707 255.87891 C 107.73296 255.70867 107.94413 255.55235 108.1582 255.39648 C 108.69907 255.02888 109.47504 254.4231 110.55078 253.51172 C 112.37877 251.95917 114.06855 250.5949 115.62109 249.41797 C 113.46756 252.02224 111.90238 254.30071 110.92578 256.25391 C 109.94918 258.20711 109.46094 260.0094 109.46094 261.66211 C 109.46094 262.76392 109.78643 263.62788 110.4375 264.25391 C 111.11361 264.87993 112.02779 265.19336 113.17969 265.19336 C 114.85743 265.19336 116.89879 264.60466 119.30273 263.42773 C 121.70667 262.22576 124.29662 260.51186 127.07617 258.2832 C 127.1968 258.18789 127.25578 258.13643 127.37109 258.04492 C 126.9787 259.02821 126.77734 259.98488 126.77734 260.91211 C 126.77734 262.16416 127.16513 263.16478 127.94141 263.91602 C 128.69264 264.66725 129.71935 265.04297 131.02148 265.04297 C 132.89956 265.04297 135.17803 264.21717 137.85742 262.56445 C 140.53682 260.88671 143.49236 258.45756 146.72266 255.27734 C 147.2986 255.97849 147.89936 256.49087 148.52539 256.81641 C 149.17646 257.1169 149.90181 257.26758 150.70312 257.26758 C 151.6039 257.26758 152.56835 257.00864 153.5957 256.48828 C 152.93158 257.9119 152.58203 259.38472 152.58203 260.91211 C 152.58203 262.16416 152.84328 263.14064 153.36914 263.8418 C 153.895 264.54294 154.63438 264.89258 155.58594 264.89258 C 156.33717 264.89258 157.1147 264.79212 157.91602 264.5918 C 158.71733 264.39146 159.55521 264.07999 160.43164 263.6543 L 158.9668 265.56836 C 152.63142 267.87213 147.52394 270.65287 143.64258 273.9082 C 139.73617 277.16354 137.78125 280.18138 137.78125 282.96094 C 137.78125 284.1629 138.05847 285.06308 138.60938 285.66406 C 139.16028 286.29009 139.99815 286.60352 141.125 286.60352 C 143.12829 286.60352 145.97131 284.91374 149.65234 281.5332 C 153.33338 278.1777 157.94054 273.04414 163.47461 266.13281 C 166.47954 265.70711 169.28441 264.95567 171.88867 263.87891 C 174.49294 262.7771 177.18334 261.21192 179.96289 259.18359 C 181.81593 257.83138 183.24445 256.69214 184.24609 255.76562 C 184.74816 255.31254 185.12236 254.92681 185.37891 254.60547 C 185.66354 254.39975 186.00235 254.12463 186.42383 253.73828 C 187.15001 253.06217 187.76481 252.5237 188.26562 252.12305 C 189.94338 250.82091 191.29559 249.88063 192.32227 249.30469 C 193.37399 248.72875 194.22393 248.44141 194.875 248.44141 C 195.00022 248.44141 195.08861 248.49164 195.13867 248.5918 C 195.21379 248.66692 195.25195 248.8176 195.25195 249.04297 C 195.25195 249.7942 194.76371 250.89528 193.78711 252.34766 C 192.81051 253.80004 190.91983 256.16689 188.11523 259.44727 C 187.56433 260.04825 186.84909 260.8359 185.97266 261.8125 C 184.52028 263.39009 183.79492 264.34244 183.79492 264.66797 C 183.79492 264.81822 183.93353 264.9428 184.20898 265.04297 C 184.48443 265.14313 184.86016 265.19336 185.33594 265.19336 C 185.78668 265.19336 186.28699 265.16921 186.83789 265.11914 C 187.3888 265.06906 187.98956 264.99274 188.64062 264.89258 C 190.34342 262.5888 192.19594 260.33643 194.19922 258.13281 C 196.22755 255.90416 198.38142 253.75028 200.66016 251.67188 C 200.40974 252.42311 200.20884 253.12432 200.05859 253.77539 C 199.93339 254.42646 199.87109 255.00113 199.87109 255.50195 C 199.87109 256.90425 200.22268 258.00728 200.92383 258.80859 C 201.65001 259.58486 202.6627 259.97266 203.96484 259.97266 C 204.9164 259.97266 205.93105 259.70945 207.00781 259.18359 C 207.72477 258.81678 208.61734 258.22485 209.65625 257.44727 C 209.2775 258.5297 209.07422 259.64537 209.07422 260.79883 C 209.07422 262.22617 209.36155 263.32724 209.9375 264.10352 C 210.51344 264.87978 211.32718 265.26953 212.37891 265.26953 C 213.38055 265.26953 214.51978 264.90587 215.79688 264.17969 C 217.07397 263.42845 218.46434 262.31336 219.9668 260.83594 C 219.9418 260.9361 219.91764 261.04863 219.89258 261.17383 L 219.89258 261.66211 C 219.89258 262.73888 220.23014 263.60284 220.90625 264.25391 C 221.6074 264.87993 222.53365 265.19336 223.68555 265.19336 C 225.28817 265.19336 227.35367 264.56846 229.88281 263.31641 C 232.437 262.03931 235.10326 260.28529 237.88281 258.05664 L 238.07227 257.90625 C 239.35179 256.86664 240.30032 256.04195 240.99609 255.38281 C 241.53679 255.01298 242.30563 254.41109 243.36719 253.51172 C 245.19519 251.95917 246.88496 250.5949 248.4375 249.41797 L 241.60156 258.6582 C 241.37619 258.53298 241.13908 258.4446 240.88867 258.39453 C 240.63826 258.3194 240.36299 258.2832 240.0625 258.2832 C 239.48656 258.2832 239.03452 258.45801 238.70898 258.80859 C 238.38345 259.13413 238.2207 259.59629 238.2207 260.19727 C 238.2207 260.49776 238.28495 260.83727 238.41016 261.21289 C 238.51032 261.56346 238.67306 261.93919 238.89844 262.33984 L 222.07031 284.98828 C 221.97013 285.11349 221.89577 285.23807 221.8457 285.36328 C 221.77058 285.51353 221.73242 285.64007 221.73242 285.74023 C 221.73242 286.01569 221.83287 286.22866 222.0332 286.37891 C 222.23353 286.52915 222.52087 286.60352 222.89648 286.60352 L 224.58594 286.60352 C 224.9866 286.60352 225.32611 286.51513 225.60156 286.33984 C 225.87701 286.1896 226.15228 285.91433 226.42773 285.51367 L 242.57812 263.72852 L 243.74414 263.72852 C 245.79751 263.72852 247.86301 263.34073 249.94141 262.56445 C 252.04486 261.78818 254.26103 260.56056 256.58984 258.88281 C 258.34272 257.60572 259.73113 256.45441 260.75781 255.42773 C 261.01448 255.17106 261.23914 254.93161 261.43164 254.71094 C 261.7724 254.4693 262.08566 254.25287 262.5625 253.88672 C 263.98984 252.78491 265.40435 251.83452 266.80664 251.0332 C 264.22741 253.43714 262.29858 255.54079 261.02148 257.34375 C 259.74439 259.1467 259.10547 260.6858 259.10547 261.96289 C 259.10547 262.91445 259.44303 263.69199 260.11914 264.29297 C 260.82029 264.89396 261.72241 265.19336 262.82422 265.19336 C 264.35172 265.19336 266.31872 264.60466 268.72266 263.42773 C 271.15164 262.22576 273.64308 260.58622 276.19727 258.50781 L 277.02344 257.83203 C 277.16418 257.71944 277.26016 257.63299 277.39258 257.52539 C 277.03174 258.58358 276.83398 259.67298 276.83398 260.79883 C 276.83398 262.22617 277.12328 263.32724 277.69922 264.10352 C 278.27517 264.87978 279.0889 265.26953 280.14062 265.26953 C 281.14227 265.26953 282.2815 264.90587 283.55859 264.17969 C 284.83569 263.42845 286.22606 262.31336 287.72852 260.83594 C 287.70352 260.9361 287.67741 261.04863 287.65234 261.17383 L 287.65234 261.66211 C 287.65234 262.73888 287.98991 263.60284 288.66602 264.25391 C 289.36716 264.87993 290.29538 265.19336 291.44727 265.19336 C 293.04989 265.19336 295.11538 264.56846 297.64453 263.31641 C 300.19872 262.03931 302.86498 260.28529 305.64453 258.05664 L 305.83203 257.90625 C 308.63662 255.62752 310.03906 254.26324 310.03906 253.8125 C 310.03906 253.61217 309.97676 253.44943 309.85156 253.32422 C 309.7514 253.19901 309.61279 253.13672 309.4375 253.13672 C 309.21213 253.13672 308.52494 253.63703 307.37305 254.63867 C 306.22116 255.64032 305.14422 256.51635 304.14258 257.26758 C 301.73864 259.09558 299.46017 260.54824 297.30664 261.625 C 295.15311 262.67673 293.52563 263.20312 292.42383 263.20312 C 292.04821 263.20312 291.78501 263.14083 291.63477 263.01562 C 291.50956 262.89042 291.44727 262.66342 291.44727 262.33789 C 291.44727 261.53658 292.39766 260.02162 294.30078 257.79297 C 296.2039 255.53928 298.83395 252.82278 302.18945 249.64258 C 302.56507 249.31704 303.06538 248.87903 303.69141 248.32812 C 304.84329 247.30145 305.41992 246.63838 305.41992 246.33789 C 305.41992 246.01236 305.23108 245.78732 304.85547 245.66211 C 304.47986 245.51186 303.85496 245.43555 302.97852 245.43555 C 302.80323 245.43555 302.52796 245.44954 302.15234 245.47461 C 301.77672 245.49968 301.48744 245.51172 301.28711 245.51172 C 300.71117 245.8623 300.18476 246.23802 299.70898 246.63867 C 299.25824 247.01429 298.85839 247.40207 298.50781 247.80273 C 298.43269 246.87621 298.14535 246.21315 297.64453 245.8125 C 297.14371 245.41184 296.35411 245.21094 295.27734 245.21094 C 293.37422 245.21094 291.18414 245.78757 288.70508 246.93945 C 286.22602 248.0663 283.90939 249.59332 281.75586 251.52148 C 280.76316 252.38084 279.94368 253.25497 279.25781 254.14062 C 278.94521 254.37548 278.57403 254.66778 278.07422 255.08984 C 276.97241 256.01636 275.95776 256.81803 275.03125 257.49414 C 272.67739 259.29709 270.46122 260.72366 268.38281 261.77539 C 266.32945 262.82711 264.77828 263.35352 263.72656 263.35352 C 263.37598 263.35352 263.10072 263.26513 262.90039 263.08984 C 262.70006 262.91456 262.59961 262.66538 262.59961 262.33984 C 262.59961 261.73886 263.15015 260.72421 264.25195 259.29688 C 265.3788 257.86954 267.0565 256.06529 269.28516 253.88672 C 271.03803 252.15889 272.92871 250.44497 274.95703 248.74219 C 277.0104 247.01435 278.03711 246.06201 278.03711 245.88672 C 278.03711 245.63631 277.68552 245.4354 276.98438 245.28516 C 276.30826 245.13491 275.4081 245.06055 274.28125 245.06055 C 273.42986 245.06055 272.10178 245.59902 270.29883 246.67578 C 268.49587 247.72751 266.17925 249.34292 263.34961 251.52148 L 261.98242 252.55859 C 261.93139 252.51908 261.87475 252.49805 261.81055 252.49805 C 261.63526 252.49805 261.00841 253.02445 259.93164 254.07617 C 258.87991 255.1279 257.81699 256.04014 256.74023 256.81641 C 254.96232 258.0935 253.33485 259.04585 251.85742 259.67188 C 250.40504 260.27286 249.01467 260.57422 247.6875 260.57422 C 247.31189 260.57422 246.91008 260.54811 246.48438 260.49805 C 246.08372 260.42292 245.65972 260.32247 245.20898 260.19727 L 259.59375 241.11719 C 269.86057 234.43123 277.17215 229.18515 281.5293 225.37891 C 285.88644 221.54763 288.06641 218.51772 288.06641 216.28906 C 288.06641 215.38759 287.81527 214.69844 287.31445 214.22266 C 286.83867 213.74688 286.16355 213.50977 285.28711 213.50977 C 282.28218 213.50977 277.81168 216.30062 271.87695 221.88477 C 265.94223 227.44388 259.28164 235.1452 251.89453 244.98633 L 248.92578 247.27734 C 245.4782 249.90542 243.03939 251.85895 241.53711 253.1875 C 241.233 253.30605 240.60521 253.77443 239.61133 254.63867 C 238.45943 255.64032 237.3825 256.51635 236.38086 257.26758 C 233.97692 259.09558 231.69845 260.54824 229.54492 261.625 C 227.39139 262.67673 225.76391 263.20312 224.66211 263.20312 C 224.28649 263.20312 224.02329 263.14083 223.87305 263.01562 C 223.74785 262.89042 223.68555 262.66342 223.68555 262.33789 C 223.68555 261.53658 224.63595 260.02162 226.53906 257.79297 C 228.44218 255.53928 231.07223 252.82278 234.42773 249.64258 C 234.80335 249.31704 235.30366 248.87903 235.92969 248.32812 C 237.08158 247.30145 237.6582 246.63838 237.6582 246.33789 C 237.6582 246.01236 237.47132 245.78732 237.0957 245.66211 C 236.72009 245.51186 236.09324 245.43555 235.2168 245.43555 C 235.04151 245.43555 234.76624 245.44954 234.39062 245.47461 C 234.01501 245.49968 233.72768 245.51172 233.52734 245.51172 C 232.9514 245.8623 232.425 246.23802 231.94922 246.63867 C 231.49848 247.01429 231.09667 247.40207 230.74609 247.80273 C 230.67097 246.87621 230.38363 246.21315 229.88281 245.8125 C 229.38199 245.41184 228.59434 245.21094 227.51758 245.21094 C 225.61446 245.21094 223.42243 245.78757 220.94336 246.93945 C 218.4643 248.0663 216.14767 249.59332 213.99414 251.52148 C 213.19927 252.20958 212.51026 252.90637 211.91211 253.61133 C 211.72522 253.76798 211.56559 253.89065 211.32812 254.11328 C 210.65202 254.71427 210.08746 255.20251 209.63672 255.57812 C 208.58499 256.4796 207.69689 257.11853 206.9707 257.49414 C 206.24451 257.86976 205.56743 258.05664 204.94141 258.05664 C 204.36546 258.05664 203.90331 257.85574 203.55273 257.45508 C 203.20216 257.05442 203.02734 256.52998 203.02734 255.87891 C 203.02734 255.00247 203.26445 253.99989 203.74023 252.87305 C 204.24105 251.72116 204.95435 250.54377 205.88086 249.3418 C 206.18135 248.94114 206.55707 248.50312 207.00781 248.02734 C 207.48359 247.52652 207.72266 247.22712 207.72266 247.12695 C 207.72266 246.92663 207.47152 246.75181 206.9707 246.60156 C 206.46988 246.42628 205.86912 246.33789 205.16797 246.33789 C 204.99268 246.33789 204.79177 246.37605 204.56641 246.45117 C 204.36606 246.5263 204.24147 246.60066 204.19141 246.67578 L 198.10547 251.97266 C 198.53117 251.07118 198.8446 250.26951 199.04492 249.56836 C 199.24525 248.84217 199.3457 248.20325 199.3457 247.65234 C 199.3457 246.90112 199.14479 246.31242 198.74414 245.88672 C 198.34348 245.43598 197.79294 245.21094 197.0918 245.21094 C 196.19032 245.21094 194.83811 245.69918 193.03516 246.67578 C 191.25724 247.65238 189.40472 248.95436 187.47656 250.58203 C 186.14939 251.70888 185.22313 252.54871 184.69727 253.09961 C 184.43405 253.37598 184.24402 253.61221 184.11914 253.8125 C 183.80613 254.05292 183.49271 254.29163 183.04297 254.67578 C 181.86604 255.67743 180.7891 256.54139 179.8125 257.26758 C 177.0079 259.37102 174.35371 260.9985 171.84961 262.15039 C 169.37054 263.27724 167.01772 263.94225 164.78906 264.14258 C 168.16961 259.71031 171.72592 255.66576 175.45703 252.00977 C 179.21318 248.32874 181.08984 246.43806 181.08984 246.33789 C 181.08984 246.01236 180.90296 245.78732 180.52734 245.66211 C 180.15172 245.51186 179.52487 245.43555 178.64844 245.43555 C 178.47315 245.43555 178.19788 245.44954 177.82227 245.47461 C 177.44665 245.49968 177.15931 245.51172 176.95898 245.51172 C 176.43312 245.83726 175.94488 246.20091 175.49414 246.60156 C 175.0434 246.97718 174.62952 247.37703 174.25391 247.80273 C 174.15374 246.87621 173.85434 246.21315 173.35352 245.8125 C 172.87774 245.41184 172.12629 245.21094 171.09961 245.21094 C 169.19649 245.21094 166.99239 245.78757 164.48828 246.93945 C 162.00922 248.0663 159.65443 249.61746 157.42578 251.5957 C 156.75101 252.18613 156.16216 252.79647 155.625 253.41797 C 155.22458 253.63504 154.69426 253.97065 154.00781 254.45117 C 152.75576 255.30257 151.65469 255.72852 150.70312 255.72852 C 150.02702 255.72852 149.45039 255.58991 148.97461 255.31445 C 148.49883 255.039 148.12311 254.61305 147.84766 254.03711 C 148.7241 252.98538 149.37703 252.0089 149.80273 251.10742 C 150.25347 250.20594 150.47852 249.3922 150.47852 248.66602 C 150.47852 247.58925 150.08877 246.72529 149.3125 246.07422 C 148.56127 245.39811 147.56065 245.06055 146.30859 245.06055 C 144.75605 245.06055 142.95375 245.46041 140.90039 246.26172 C 138.87206 247.06303 136.88093 248.16607 134.92773 249.56836 C 133.15331 250.84799 131.67336 252.15238 130.44531 253.47852 C 130.10861 253.72223 129.66655 254.09268 129.10547 254.60156 C 128.05374 255.57816 127.05117 256.41603 126.09961 257.11719 C 123.54542 259.07039 121.23075 260.57328 119.15234 261.625 C 117.07394 262.67673 115.4083 263.20312 114.15625 263.20312 C 113.70551 263.20312 113.36795 263.06452 113.14258 262.78906 C 112.94225 262.51361 112.8418 262.08766 112.8418 261.51172 C 112.8418 260.43495 113.33004 259.08274 114.30664 257.45508 C 115.28324 255.80237 116.7982 253.79917 118.85156 251.44531 L 127.64062 241.3418 L 135.00195 241.3418 L 136.24219 240.02734 L 128.61719 240.02734 L 135.07812 232.51562 C 135.22839 232.31529 135.32884 232.13853 135.37891 231.98828 C 135.42897 231.83803 135.45312 231.67529 135.45312 231.5 C 135.45313 231.17447 135.20199 230.89919 134.70117 230.67383 C 134.20035 230.44846 133.53729 230.33594 132.71094 230.33594 C 132.2602 230.33594 131.87241 230.41226 131.54688 230.5625 C 131.24638 230.71275 130.95905 230.94986 130.68359 231.27539 L 123.69727 240.02734 L 117.00977 240.02734 L 115.77148 241.3418 L 122.38086 241.3418 L 119.07617 244.98633 L 116.10938 247.27734 C 112.47626 250.04685 109.94937 252.07795 108.47656 253.4043 C 108.0734 253.62 107.53606 253.95835 106.83203 254.45117 C 105.57998 255.30257 104.47695 255.72852 103.52539 255.72852 C 102.84928 255.72852 102.27461 255.58991 101.79883 255.31445 C 101.32305 255.039 100.94732 254.61305 100.67188 254.03711 C 101.54831 252.98538 102.1993 252.0089 102.625 251.10742 C 103.07574 250.20594 103.30078 249.3922 103.30078 248.66602 C 103.30078 247.58925 102.91299 246.72529 102.13672 246.07422 C 101.38549 245.39811 100.38291 245.06055 99.130859 245.06055 C 97.578315 245.06055 95.776022 245.46041 93.722656 246.26172 C 91.694332 247.06303 89.703201 248.16607 87.75 249.56836 C 86.32245 250.59784 85.089535 251.64355 84.015625 252.70312 C 83.69765 252.93912 83.202908 253.38198 82.492188 254.07617 C 81.440464 255.1279 80.375593 256.04014 79.298828 256.81641 C 77.520914 258.0935 75.893437 259.04585 74.416016 259.67188 C 72.963636 260.27286 71.573269 260.57422 70.246094 260.57422 C 69.870478 260.57422 69.470619 260.54811 69.044922 260.49805 C 68.644265 260.42292 68.218317 260.32247 67.767578 260.19727 L 82.154297 241.11719 C 92.421123 234.43123 99.732702 229.18515 104.08984 225.37891 C 108.44698 221.54763 110.625 218.51772 110.625 216.28906 C 110.625 215.38759 110.37387 214.69844 109.87305 214.22266 C 109.39727 213.74688 108.72214 213.50977 107.8457 213.50977 z M 107.69531 215.72461 C 108.12101 215.72461 108.42237 215.82506 108.59766 216.02539 C 108.77294 216.20068 108.85938 216.5141 108.85938 216.96484 C 108.85938 218.59251 106.81802 221.12211 102.73633 224.55273 C 98.679682 227.98335 93.158325 231.78885 86.171875 235.9707 C 91.956355 228.75888 96.527313 223.58716 99.882812 220.45703 C 103.23831 217.30186 105.84227 215.72461 107.69531 215.72461 z M 285.13672 215.72461 C 285.56242 215.72461 285.86182 215.82506 286.03711 216.02539 C 286.2124 216.20068 286.30078 216.5141 286.30078 216.96484 C 286.30078 218.59251 284.25942 221.12211 280.17773 224.55273 C 276.12109 227.98335 270.59973 231.78885 263.61328 235.9707 C 269.39776 228.75888 273.96677 223.58716 277.32227 220.45703 C 280.67777 217.30186 283.28369 215.72461 285.13672 215.72461 z M 284.64844 232.81641 C 283.84712 232.81641 283.19613 233.04145 282.69531 233.49219 C 282.21953 233.91788 281.98047 234.48049 281.98047 235.18164 C 281.98047 235.93287 282.21953 236.53363 282.69531 236.98438 C 283.17109 237.43511 283.82208 237.66016 284.64844 237.66016 C 285.44975 237.66016 286.10074 237.43511 286.60156 236.98438 C 287.10238 236.53364 287.35156 235.93287 287.35156 235.18164 C 287.35156 234.48049 287.10238 233.91788 286.60156 233.49219 C 286.12578 233.04145 285.4748 232.81641 284.64844 232.81641 z M 99.919922 247.05078 C 100.42074 247.05078 100.80854 247.18939 101.08398 247.46484 C 101.38448 247.74029 101.53516 248.11602 101.53516 248.5918 C 101.53516 249.49328 100.95853 250.70687 99.806641 252.23438 C 98.654753 253.73684 97.053365 255.36431 95 257.11719 C 92.621101 259.12047 90.529517 260.63543 88.726562 261.66211 C 86.923608 262.6888 85.470947 263.20312 84.369141 263.20312 C 83.893361 263.20312 83.543729 263.11474 83.318359 262.93945 C 83.09299 262.73913 82.980469 262.41363 82.980469 261.96289 C 82.980469 261.11149 83.768118 259.74721 85.345703 257.86914 C 86.94833 255.96602 89.090141 253.87444 91.769531 251.5957 C 93.397199 250.1934 94.950313 249.09233 96.427734 248.29102 C 97.905156 247.46466 99.068527 247.05078 99.919922 247.05078 z M 147.09766 247.05078 C 147.59848 247.05078 147.98627 247.18939 148.26172 247.46484 C 148.56221 247.74029 148.71289 248.11602 148.71289 248.5918 C 148.71289 249.49328 148.13626 250.70687 146.98438 252.23438 C 145.83249 253.73684 144.2311 255.36431 142.17773 257.11719 C 139.79883 259.12047 137.70725 260.63543 135.9043 261.66211 C 134.10134 262.6888 132.64868 263.20312 131.54688 263.20312 C 131.07109 263.20312 130.71951 263.11474 130.49414 262.93945 C 130.26877 262.73913 130.15625 262.41363 130.15625 261.96289 C 130.15625 261.11149 130.94585 259.74721 132.52344 257.86914 C 134.12606 255.96602 136.26787 253.87444 138.94727 251.5957 C 140.57493 250.1934 142.1261 249.09233 143.60352 248.29102 C 145.08094 247.46466 146.24626 247.05078 147.09766 247.05078 z M 171.88867 247.20117 C 172.18917 247.20117 172.41421 247.27749 172.56445 247.42773 C 172.7147 247.55294 172.78906 247.75189 172.78906 248.02734 C 172.78906 248.35288 172.70263 248.6924 172.52734 249.04297 C 172.35205 249.39354 172.11299 249.73111 171.8125 250.05664 L 163.17383 259.25977 C 162.02194 260.51181 160.89478 261.50037 159.79297 262.22656 C 158.7162 262.92771 157.85224 263.27734 157.20117 263.27734 C 156.8506 263.27734 156.56326 263.17689 156.33789 262.97656 C 156.13756 262.7512 156.03711 262.46386 156.03711 262.11328 C 156.03711 261.0866 156.80062 259.50935 158.32812 257.38086 C 159.85562 255.22733 161.8086 253.16183 164.1875 251.18359 C 165.63988 249.98163 167.0684 249.01721 168.4707 248.29102 C 169.89804 247.56482 171.03728 247.20117 171.88867 247.20117 z M 228.38086 247.20117 C 228.68135 247.20117 228.91846 247.27749 229.09375 247.42773 C 229.26904 247.57798 229.35742 247.77693 229.35742 248.02734 C 229.35742 248.32784 229.25697 248.65333 229.05664 249.00391 C 228.88135 249.35448 228.63022 249.70607 228.30469 250.05664 L 219.66602 259.25977 C 218.51413 260.51181 217.38696 261.50037 216.28516 262.22656 C 215.20839 262.92771 214.33236 263.27734 213.65625 263.27734 C 213.33072 263.27734 213.05544 263.17689 212.83008 262.97656 C 212.62974 262.7512 212.5293 262.46386 212.5293 262.11328 C 212.5293 261.11164 213.30488 259.53439 214.85742 257.38086 C 216.40997 255.22733 218.37697 253.16183 220.75586 251.18359 C 222.20824 249.95658 223.62274 248.99216 225 248.29102 C 226.4023 247.56482 227.52947 247.20117 228.38086 247.20117 z M 296.14062 247.20117 C 296.44112 247.20117 296.68018 247.27749 296.85547 247.42773 C 297.03076 247.57798 297.11914 247.77693 297.11914 248.02734 C 297.11914 248.32784 297.01869 248.65333 296.81836 249.00391 C 296.64307 249.35448 296.39194 249.70607 296.06641 250.05664 L 287.42773 259.25977 C 286.27584 260.51181 285.14868 261.50037 284.04688 262.22656 C 282.97011 262.92771 282.09408 263.27734 281.41797 263.27734 C 281.09244 263.27734 280.81717 263.17689 280.5918 262.97656 C 280.39147 262.7512 280.29102 262.46386 280.29102 262.11328 C 280.29102 261.11164 281.06659 259.53439 282.61914 257.38086 C 284.17168 255.22733 286.13673 253.16183 288.51562 251.18359 C 289.96801 249.95658 291.38446 248.99216 292.76172 248.29102 C 294.16401 247.56482 295.28922 247.20117 296.14062 247.20117 z M 157.20117 267.97266 L 149.87695 277.21289 C 147.42293 280.2679 145.59454 282.32132 144.39258 283.37305 C 143.16556 284.44981 142.10069 284.98828 141.19922 284.98828 C 140.72344 284.98828 140.33565 284.76324 140.03516 284.3125 C 139.73466 283.88681 139.58594 283.33626 139.58594 282.66016 C 139.58594 280.53166 141.16319 278.14067 144.31836 275.48633 C 147.44849 272.83197 151.74223 270.32651 157.20117 267.97266 z "
       transform="translate(0,698.03017)"
       id="path4219" />
    <rect
       style="fill:none;fill-opacity:1;fill-rule:nonzero;stroke:#000000;stroke-width:0.99212598;stroke-linecap:round;stroke-linejoin:round;stroke-miterlimit:4;stroke-opacity:1;stroke-dasharray:none;stroke-dashoffset:0"
       id="rect4397"
       width="325.2691"
       height="325.2691"
       x="14.530792"
       y="712.56097" />
  </g>
</svg>
