<?xml version="1.0" encoding="UTF-8" standalone="no"?>
<!-- Created with Inkscape (http://www.inkscape.org/) -->

<svg
   xmlns:dc="http://purl.org/dc/elements/1.1/"
   xmlns:cc="http://creativecommons.org/ns#"
   xmlns:rdf="http://www.w3.org/1999/02/22-rdf-syntax-ns#"
   xmlns:svg="http://www.w3.org/2000/svg"
   xmlns="http://www.w3.org/2000/svg"
   xmlns:sodipodi="http://sodipodi.sourceforge.net/DTD/sodipodi-0.dtd"
   xmlns:inkscape="http://www.inkscape.org/namespaces/inkscape"
   width="354.33069"
   height="354.33069"
   id="svg2"
   version="1.1"
   inkscape:version="0.48.4 r9939"
   sodipodi:docname="logoEM.svg"
   inkscape:export-filename="C:\Users\Marek\Desktop\logoEM.png"
   inkscape:export-xdpi="203.2"
   inkscape:export-ydpi="203.2">
  <defs
     id="defs4" />
  <sodipodi:namedview
     id="base"
     pagecolor="#ffffff"
     bordercolor="#666666"
     borderopacity="1.0"
     inkscape:pageopacity="0.0"
     inkscape:pageshadow="2"
     inkscape:zoom="1"
     inkscape:cx="598.54518"
     inkscape:cy="188.40217"
     inkscape:document-units="cm"
     inkscape:current-layer="layer1"
     showgrid="false"
     inkscape:window-width="1600"
     inkscape:window-height="837"
     inkscape:window-x="1912"
     inkscape:window-y="172"
     inkscape:window-maximized="1"
     units="cm" />
  <metadata
     id="metadata7">
    <rdf:RDF>
      <cc:Work
         rdf:about="">
        <dc:format>image/svg+xml</dc:format>
        <dc:type
           rdf:resource="http://purl.org/dc/dcmitype/StillImage" />
        <dc:title />
      </cc:Work>
    </rdf:RDF>
  </metadata>
  <g
     inkscape:label="Layer 1"
     inkscape:groupmode="layer"
     id="layer1"
     transform="translate(0,-698.03017)">
    <rect
       style="fill:#ffffff;stroke:#000000;stroke-width:0.96369368000000000;stroke-linecap:round;stroke-linejoin:round;stroke-miterlimit:4;stroke-opacity:1;stroke-dasharray:none;stroke-dashoffset:0;fill-opacity:1"
       id="rect4399"
       width="353.367"
       height="353.367"
       x="0.48184204"
       y="698.51202" />
    <g
       id="g4384"
       transform="matrix(5.8817747,0,0,5.8817747,-2025.642,-1251.9605)">
      <g
         id="text2985-6-7-8"
         style="font-size:26.99378395px;font-style:normal;font-variant:normal;font-weight:normal;font-stretch:normal;text-align:start;line-height:125%;letter-spacing:0px;word-spacing:0px;writing-mode:lr-tb;text-anchor:start;fill:#000000;fill-opacity:1;stroke:none;font-family:Gabriola;-inkscape-font-specification:Gabriola"
         transform="matrix(0.75688303,0,0,1.3212081,212.21307,-0.43059829)">
        <path
           sodipodi:nodetypes="cccsccccccccccscsccccccccccsccccssccscsccccccsccc"
           inkscape:connector-curvature="0"
           id="path4044-1-6-6"
           d="m 193.51673,263.00698 c -0.0769,-0.0813 -0.18343,-0.14058 -0.31962,-0.17794 -0.13621,-0.0373 -0.31195,-0.056 -0.52723,-0.056 -0.14059,1e-5 -0.39471,0.0188 -0.68094,0.0316 -1.03282,0.0459 -0.70934,-0.58584 0.1291,-0.67003 0.36905,-0.0505 1.31961,-0.15776 1.64253,-0.19516 0.32292,-0.0373 0.62498,-0.0648 0.90617,-0.0824 2.20177,0.10373 4.104,0.0681 6.18168,-0.1253 0.20209,2e-5 0.35696,0.0473 0.46461,0.14169 0.10764,0.0945 0.16146,0.24056 0.16147,0.43826 -1e-5,0.0791 -0.008,0.23287 -0.0231,0.46132 -0.0154,0.22847 -0.0352,0.49099 -0.0593,0.78754 -0.0242,0.29657 -0.0516,0.60961 -0.0824,0.93911 -0.052,0.75771 -0.70552,0.86594 -0.71176,0.43493 0.19417,-0.88358 -0.0454,-1.8266 -0.63127,-2.07428 -0.72446,-0.30629 -3.09307,-0.26757 -4.50215,-0.12039 -0.009,0.36467 -0.0187,0.77217 -0.0297,1.22249 -0.011,0.45035 -0.0231,0.93254 -0.0362,1.44657 -0.0132,0.51405 -0.0275,1.05665 -0.0428,1.6278 -0.0154,0.57117 -0.0319,1.1599 -0.0494,1.76619 1.35937,0.12126 2.43653,0.18909 3.7015,0.10348 0.44007,-0.041 1.05673,-0.28936 1.34656,-0.3762 0.0482,0.23133 -0.0197,0.53412 -0.0197,0.68788 -1e-5,0.12742 -0.0395,0.23506 -0.11863,0.32292 -0.0791,0.0879 -0.19112,0.15928 -0.3361,0.21419 -0.145,0.0549 -0.32074,0.0945 -0.52722,0.11862 -0.20651,0.0242 -0.43717,0.0363 -0.69198,0.0362 -0.45254,10e-6 -0.96549,-0.0253 -1.53883,-0.0758 -0.57336,-0.0505 -1.18736,-0.11312 -1.84199,-0.18782 -0.009,0.25483 -0.0198,0.56128 -0.0329,0.91934 -0.0132,0.35808 -0.0286,0.73922 -0.0461,1.14342 -0.0176,0.4042 -0.0385,0.81829 -0.0626,1.24226 -0.0242,0.42398 -0.0483,0.83038 -0.0725,1.21921 -0.0242,0.38882 -0.0505,0.7447 -0.0791,1.06762 -0.0286,0.32293 -0.0582,0.58764 -0.089,0.79413 0.42616,-0.0615 0.84135,-0.10654 1.24556,-0.1351 0.4042,-0.0286 0.77106,-0.0428 1.10058,-0.0428 0.46131,0 0.89297,0.0121 1.29499,0.0362 0.402,0.0242 0.80071,0.0362 1.19613,0.0362 0.2636,0 0.49536,-0.0362 0.69528,-0.10874 0.19989,-0.0725 0.37453,-0.20211 0.52392,-0.38883 0.14937,-0.18672 0.27349,-0.43825 0.37235,-0.75459 0.32511,-1.15116 0.94093,-0.46515 0.66892,0.65249 -0.0923,0.47889 -0.22079,0.85674 -0.38553,1.13353 -0.16477,0.27679 -0.36577,0.46901 -0.60301,0.57665 -0.23726,0.10764 -0.88127,-0.0376 -1.42962,-0.17304 -2.23175,-0.55114 -3.76157,-0.25243 -6.26124,0.23565 l -0.11862,-0.0132 c -0.0528,-4.60378 1.85691,-9.52682 0.31919,-14.07987 z" />
      </g>
      <g
         id="text2985-1-4-1-0"
         style="font-size:24.59490967px;font-style:normal;font-variant:normal;font-weight:normal;font-stretch:normal;text-align:start;line-height:125%;letter-spacing:0px;word-spacing:0px;writing-mode:lr-tb;text-anchor:start;fill:#000000;fill-opacity:1;stroke:none;font-family:Gabriola;-inkscape-font-specification:Gabriola"
         transform="matrix(0.6674606,0,0,1.383347,216.69834,-0.87702827)">
        <path
           sodipodi:nodetypes="cccscccsccssssccccccssccccccccccccssssccccccccsscccscccscssccccsccscccscccccccccccccsccccccccccccscssc"
           inkscape:connector-curvature="0"
           id="path4041-2-8-2"
           d="m 265.46866,264.44804 c -0.21042,0.0851 -0.46737,0.16413 -0.67552,0.22217 -0.20817,0.058 -0.40232,0.10108 -0.58244,0.1291 -0.18016,0.028 -0.35429,0.042 -0.52241,0.042 -0.22818,0 -0.42834,-0.043 -0.60046,-0.1291 -0.17214,-0.0861 -0.31525,-0.22717 -0.42933,-0.42332 -0.1141,-0.19615 -0.19916,-0.45435 -0.25519,-0.7746 -0.0561,-0.32024 -0.0841,-0.71655 -0.0841,-1.18891 l 0,-0.52841 c -10e-6,-0.24818 9.9e-4,-0.5354 0.003,-0.86166 0.002,-0.32625 0.005,-0.67251 0.009,-1.0388 0.004,-0.36627 0.009,-0.73956 0.015,-1.11986 0.006,-0.38028 0.013,-0.74757 0.021,-1.10185 0.008,-0.35426 0.016,-0.68552 0.024,-0.99376 0.008,-0.30823 0.016,-0.57043 0.024,-0.7866 0.02,-0.46836 0.043,-0.93571 0.0691,-1.40208 0.026,-0.46635 0.061,-0.9237 0.10508,-1.37206 l -0.048,-0.018 c -0.0681,0.18015 -0.15012,0.38531 -0.24619,0.61547 -0.0961,0.23019 -0.21818,0.5074 -0.36628,0.83164 -0.35228,0.77661 -0.71156,1.58123 -1.07783,2.41386 -0.36629,0.83264 -0.73657,1.6823 -1.11085,2.54896 -0.3743,0.86667 -0.75159,1.74534 -1.13187,2.63602 -0.70264,0.90026 -0.98634,4.0339 -1.73534,1.69332 -0.12009,-0.37029 -0.2522,-0.7706 -0.3963,-1.20093 -0.14412,-0.43033 -0.29723,-0.88468 -0.45935,-1.36305 -0.16213,-0.47836 -0.32726,-0.96273 -0.49538,-1.45311 -0.16814,-0.49037 -0.33727,-0.97975 -0.50739,-1.46813 -0.17014,-0.48837 -0.33427,-0.95873 -0.49238,-1.41109 -0.15813,-0.45234 -0.30824,-0.87766 -0.45035,-1.27598 -0.14211,-0.39829 -0.26921,-0.75357 -0.38129,-1.06582 -0.1281,-0.36427 -0.23919,-0.68651 -0.33326,-0.96674 -0.0941,-0.2802 -0.17514,-0.5284 -0.24319,-0.74457 l -0.042,0.018 c 0,0.1201 0.001,0.2392 0.003,0.35728 0.002,0.1181 0.003,0.2452 0.003,0.38129 l 0,0.99076 c -1e-5,0.6365 -0.01,1.286 -0.03,1.9485 -0.02,0.66252 -0.046,1.31502 -0.0781,1.9575 -0.032,0.6425 -0.07,1.26398 -0.11408,1.86444 -0.044,0.60046 -0.0901,1.15489 -0.13811,1.66328 -0.04,0.42032 -0.0771,0.7776 -0.11109,1.07182 -0.034,0.29423 -0.0721,0.54142 -0.11408,0.74157 -0.042,0.20015 -0.0931,0.35728 -0.15312,0.47136 -0.0601,0.11409 -0.13511,0.20116 -0.22517,0.2612 -0.0901,0.06 -0.20016,0.0981 -0.33026,0.11409 -0.1301,0.016 -0.28522,0.024 -0.46536,0.024 l -0.18013,0 c -0.036,0 -0.0801,-0.001 -0.13211,-0.003 -0.052,-0.002 -0.11609,-0.005 -0.19214,-0.009 l -0.0841,-0.06 c 0.18815,-0.38829 0.35527,-0.82163 0.50139,-1.3 0.14611,-0.47836 0.27421,-0.98575 0.38429,-1.52217 0.11009,-0.5364 0.20516,-1.09183 0.28522,-1.66628 0.0801,-0.57443 0.14711,-1.14787 0.20116,-1.72032 0.054,-0.57243 0.0981,-1.13687 0.1321,-1.6933 0.034,-0.55642 0.059,-1.08483 0.0751,-1.58522 0.016,-0.50037 0.027,-0.96273 0.033,-1.38707 0.006,-0.42431 0.009,-0.7946 0.009,-1.11085 0,-0.20415 -0.014,-0.37227 -0.042,-0.50439 -0.028,-0.13209 -0.0771,-0.23717 -0.14712,-0.31524 -0.0701,-0.078 -0.16613,-0.13209 -0.28822,-0.16213 -0.12209,-0.03 -0.27921,-0.045 -0.47136,-0.045 -0.1321,1e-5 -0.48457,0.0188 -0.76513,-0.0295 -0.65286,-0.11236 -1.03418,-0.57363 0.5997,-0.71565 0.47236,-0.0821 1.72868,-0.17955 2.0089,-0.17956 0.1441,1e-5 0.2682,0.013 0.37228,0.039 0.10408,0.026 0.19515,0.0701 0.27321,0.1321 0.0781,0.0621 0.14711,0.14412 0.20716,0.24619 0.06,0.10209 0.11809,0.22919 0.17414,0.38129 0.21215,0.59247 0.43633,1.22296 0.67251,1.89146 0.23618,0.66852 0.47736,1.35105 0.72356,2.04757 0.24618,0.69655 0.49237,1.39408 0.73857,2.09261 0.24618,0.69854 0.48336,1.37606 0.71154,2.03256 0.0881,0.26021 0.16913,0.49739 0.24319,0.71155 0.074,0.21417 0.1421,0.41232 0.20416,0.59446 0.062,0.18214 0.12008,0.35627 0.17413,0.5224 0.054,0.16613 0.10507,0.33126 0.15312,0.49538 l 0.042,0 c 0.064,-0.17213 0.13009,-0.34126 0.19815,-0.50739 0.068,-0.16612 0.1401,-0.33826 0.21617,-0.5164 0.0761,-0.17813 0.15911,-0.36928 0.24919,-0.57344 0.0901,-0.20415 0.19114,-0.43433 0.30324,-0.69053 0.2802,-0.64049 0.57143,-1.305 0.87367,-1.99353 0.30222,-0.68852 0.61246,-1.39306 0.93071,-2.11363 0.31824,-0.72054 0.64148,-1.4511 0.96975,-2.19168 0.32824,-0.74056 0.65849,-1.48313 0.99076,-2.22771 0.036,-0.08 0.0851,-0.1461 0.14711,-0.19816 0.062,-0.052 0.13009,-0.0931 0.20416,-0.12309 0.074,-0.03 0.1511,-0.051 0.23118,-0.0631 0.0801,-0.012 0.1541,-0.018 0.22217,-0.018 0.11607,1e-5 0.24317,0.015 0.38129,0.045 0.13809,0.03 0.2712,0.0731 0.39931,0.1291 -0.0601,0.65652 -0.1131,1.285 -0.15912,1.88545 -0.16129,3.31217 -0.46111,6.53282 -0.23719,9.77552 0.036,0.30023 0.0991,0.54542 0.18915,0.73556 0.0901,0.19015 0.21115,0.32925 0.36328,0.41732 0.1521,0.0881 0.34225,0.1321 0.57044,0.1321 0.084,0 0.16511,-0.002 0.24318,-0.006 0.0781,-0.004 0.20137,-0.0166 0.42846,-0.0109 0.62553,0.0159 0.40137,0.39034 -0.18229,0.62636 z" />
      </g>
      <path
         sodipodi:nodetypes="cc"
         inkscape:connector-curvature="0"
         id="path3012-3-9-4"
         d="m 367.22516,361.89273 c 5.25776,1.2182 9.62035,-0.96172 14.37622,0.57358"
         style="fill:none;stroke:#000000;stroke-width:0.28390408;stroke-linecap:round;stroke-linejoin:miter;stroke-miterlimit:4;stroke-opacity:1;stroke-dasharray:none;marker-start:none" />
      <path
         sodipodi:nodetypes="ccc"
         inkscape:connector-curvature="0"
         id="path3016-2-2-8"
         d="m 369.5732,353.04793 c 2.08808,-1.10796 0.8266,0.97414 0.0459,1.92667 -0.95113,-1.1936 -1.93814,-2.93254 -0.0459,-1.92667 z"
         style="fill:none;stroke:#ff0000;stroke-width:0.18416649;stroke-linecap:round;stroke-linejoin:miter;stroke-miterlimit:4;stroke-opacity:1;stroke-dasharray:none;marker-start:none" />
      <path
         transform="matrix(0.81373829,0,0,0.81373829,237.25692,65.588401)"
         d="m 173.74623,357.31409 c 0,2.33617 -1.89384,4.23001 -4.23001,4.23001 -2.33617,0 -4.23001,-1.89384 -4.23001,-4.23001 0,-2.33618 1.89384,-4.23002 4.23001,-4.23002 2.33617,0 4.23001,1.89384 4.23001,4.23002 z"
         sodipodi:ry="4.2300138"
         sodipodi:rx="4.2300138"
         sodipodi:cy="357.31409"
         sodipodi:cx="169.51622"
         id="path3786-2-7-6"
         style="fill:none;stroke:#000000;stroke-width:0.3377203;stroke-linecap:round;stroke-linejoin:round;stroke-miterlimit:4;stroke-opacity:1;stroke-dasharray:none;stroke-dashoffset:0;marker-start:none"
         sodipodi:type="arc" />
      <path
         sodipodi:nodetypes="cssc"
         inkscape:connector-curvature="0"
         id="path2992-8-4-9"
         d="m 367.14898,350.79607 c 2.10961,0.54623 3.56756,0.75364 4.87079,-0.18745 1.82601,-1.3186 4.14791,-1.38858 5.47021,-0.34621 1.37693,1.08543 2.6788,1.33135 3.98149,1.281"
         style="fill:none;stroke:#000000;stroke-width:0.27418917;stroke-linecap:round;stroke-linejoin:miter;stroke-miterlimit:4;stroke-opacity:1;stroke-dasharray:none;marker-start:none" />
      <path
         sodipodi:nodetypes="cc"
         inkscape:connector-curvature="0"
         id="path2994-5-3-0"
         d="m 368.10752,351.00677 c 1.31217,-1.39066 2.29135,-0.39713 2.82167,0.0866"
         style="fill:none;stroke:#000000;stroke-width:0.27418917;stroke-linecap:round;stroke-linejoin:miter;stroke-miterlimit:4;stroke-opacity:1;stroke-dasharray:none;marker-start:none" />
      <text
         sodipodi:linespacing="125%"
         id="text3788-1-9-6"
         y="376.56726"
         x="354.81616"
         style="font-size:13.07871819px;font-style:normal;font-variant:normal;font-weight:normal;font-stretch:normal;text-align:start;line-height:125%;letter-spacing:0px;word-spacing:0px;writing-mode:lr-tb;text-anchor:start;fill:#000000;fill-opacity:1;stroke:none;font-family:Embassy BT;-inkscape-font-specification:Embassy BT"
         xml:space="preserve"><tspan
           y="376.56726"
           x="354.81616"
           id="tspan3790-6-5-6"
           sodipodi:role="line">fotografia</tspan></text>
    </g>
    <rect
       style="fill:none;fill-opacity:1;fill-rule:nonzero;stroke:#000000;stroke-width:1;stroke-linecap:round;stroke-linejoin:round;stroke-miterlimit:4;stroke-opacity:1;stroke-dasharray:none;stroke-dashoffset:0"
       id="rect4397"
       width="325.2691"
       height="325.2691"
       x="14.530792"
       y="712.56097" />
    <path
       style="fill:#ffffff;fill-opacity:1;stroke:#000000;stroke-width:0.96369368;stroke-linecap:round;stroke-linejoin:round;stroke-miterlimit:4;stroke-dashoffset:0;stroke-opacity:1"
       d="m 525.31653,683.67737 353.367,0 0,353.36703 -353.367,0 z"
       id="rect4399-1" />
    <g
       transform="matrix(4.4518155,0,0,7.7710484,-252.61783,-1269.3279)"
       style="font-size:26.99378395px;font-style:normal;font-variant:normal;font-weight:normal;font-stretch:normal;text-align:start;line-height:125%;letter-spacing:0px;word-spacing:0px;writing-mode:lr-tb;text-anchor:start;fill:#000000;fill-opacity:1;stroke:none;font-family:Gabriola;-inkscape-font-specification:Gabriola"
       id="text2985-6-7-8-4">
      <path
         d="m 193.51673,263.00698 c -0.0769,-0.0813 -0.18343,-0.14058 -0.31962,-0.17794 -0.13621,-0.0373 -0.31195,-0.056 -0.52723,-0.056 -0.14059,1e-5 -0.39471,0.0188 -0.68094,0.0316 -1.03282,0.0459 -0.70934,-0.58584 0.1291,-0.67003 0.36905,-0.0505 1.31961,-0.15776 1.64253,-0.19516 0.32292,-0.0373 0.62498,-0.0648 0.90617,-0.0824 2.20177,0.10373 4.104,0.0681 6.18168,-0.1253 0.20209,2e-5 0.35696,0.0473 0.46461,0.14169 0.10764,0.0945 0.16146,0.24056 0.16147,0.43826 -1e-5,0.0791 -0.008,0.23287 -0.0231,0.46132 -0.0154,0.22847 -0.0352,0.49099 -0.0593,0.78754 -0.0242,0.29657 -0.0516,0.60961 -0.0824,0.93911 -0.052,0.75771 -0.70552,0.86594 -0.71176,0.43493 0.19417,-0.88358 -0.0454,-1.8266 -0.63127,-2.07428 -0.72446,-0.30629 -3.09307,-0.26757 -4.50215,-0.12039 -0.009,0.36467 -0.0187,0.77217 -0.0297,1.22249 -0.011,0.45035 -0.0231,0.93254 -0.0362,1.44657 -0.0132,0.51405 -0.0275,1.05665 -0.0428,1.6278 -0.0154,0.57117 -0.0319,1.1599 -0.0494,1.76619 1.35937,0.12126 2.43653,0.18909 3.7015,0.10348 0.44007,-0.041 1.05673,-0.28936 1.34656,-0.3762 0.0482,0.23133 -0.0197,0.53412 -0.0197,0.68788 -1e-5,0.12742 -0.0395,0.23506 -0.11863,0.32292 -0.0791,0.0879 -0.19112,0.15928 -0.3361,0.21419 -0.145,0.0549 -0.32074,0.0945 -0.52722,0.11862 -0.20651,0.0242 -0.43717,0.0363 -0.69198,0.0362 -0.45254,10e-6 -0.96549,-0.0253 -1.53883,-0.0758 -0.57336,-0.0505 -1.18736,-0.11312 -1.84199,-0.18782 -0.009,0.25483 -0.0198,0.56128 -0.0329,0.91934 -0.0132,0.35808 -0.0286,0.73922 -0.0461,1.14342 -0.0176,0.4042 -0.0385,0.81829 -0.0626,1.24226 -0.0242,0.42398 -0.0483,0.83038 -0.0725,1.21921 -0.0242,0.38882 -0.0505,0.7447 -0.0791,1.06762 -0.0286,0.32293 -0.0582,0.58764 -0.089,0.79413 0.42616,-0.0615 0.84135,-0.10654 1.24556,-0.1351 0.4042,-0.0286 0.77106,-0.0428 1.10058,-0.0428 0.46131,0 0.89297,0.0121 1.29499,0.0362 0.402,0.0242 0.80071,0.0362 1.19613,0.0362 0.2636,0 0.49536,-0.0362 0.69528,-0.10874 0.19989,-0.0725 0.37453,-0.20211 0.52392,-0.38883 0.14937,-0.18672 0.27349,-0.43825 0.37235,-0.75459 0.32511,-1.15116 0.94093,-0.46515 0.66892,0.65249 -0.0923,0.47889 -0.22079,0.85674 -0.38553,1.13353 -0.16477,0.27679 -0.36577,0.46901 -0.60301,0.57665 -0.23726,0.10764 -0.88127,-0.0376 -1.42962,-0.17304 -2.23175,-0.55114 -3.76157,-0.25243 -6.26124,0.23565 l -0.11862,-0.0132 c -0.0528,-4.60378 1.85691,-9.52682 0.31919,-14.07987 z"
         id="path4044-1-6-6-0"
         inkscape:connector-curvature="0"
         sodipodi:nodetypes="cccsccccccccccscsccccccccccsccccssccscsccccccsccc" />
    </g>
    <g
       transform="matrix(3.9258529,0,0,8.1365354,-226.23649,-1271.9537)"
       style="font-size:24.59490967px;font-style:normal;font-variant:normal;font-weight:normal;font-stretch:normal;text-align:start;line-height:125%;letter-spacing:0px;word-spacing:0px;writing-mode:lr-tb;text-anchor:start;fill:#000000;fill-opacity:1;stroke:none;font-family:Gabriola;-inkscape-font-specification:Gabriola"
       id="text2985-1-4-1-0-9">
      <path
         d="m 265.46866,264.44804 c -0.21042,0.0851 -0.46737,0.16413 -0.67552,0.22217 -0.20817,0.058 -0.40232,0.10108 -0.58244,0.1291 -0.18016,0.028 -0.35429,0.042 -0.52241,0.042 -0.22818,0 -0.42834,-0.043 -0.60046,-0.1291 -0.17214,-0.0861 -0.31525,-0.22717 -0.42933,-0.42332 -0.1141,-0.19615 -0.19916,-0.45435 -0.25519,-0.7746 -0.0561,-0.32024 -0.0841,-0.71655 -0.0841,-1.18891 l 0,-0.52841 c -10e-6,-0.24818 9.9e-4,-0.5354 0.003,-0.86166 0.002,-0.32625 0.005,-0.67251 0.009,-1.0388 0.004,-0.36627 0.009,-0.73956 0.015,-1.11986 0.006,-0.38028 0.013,-0.74757 0.021,-1.10185 0.008,-0.35426 0.016,-0.68552 0.024,-0.99376 0.008,-0.30823 0.016,-0.57043 0.024,-0.7866 0.02,-0.46836 0.043,-0.93571 0.0691,-1.40208 0.026,-0.46635 0.061,-0.9237 0.10508,-1.37206 l -0.048,-0.018 c -0.0681,0.18015 -0.15012,0.38531 -0.24619,0.61547 -0.0961,0.23019 -0.21818,0.5074 -0.36628,0.83164 -0.35228,0.77661 -0.71156,1.58123 -1.07783,2.41386 -0.36629,0.83264 -0.73657,1.6823 -1.11085,2.54896 -0.3743,0.86667 -0.75159,1.74534 -1.13187,2.63602 -0.70264,0.90026 -0.98634,4.0339 -1.73534,1.69332 -0.12009,-0.37029 -0.2522,-0.7706 -0.3963,-1.20093 -0.14412,-0.43033 -0.29723,-0.88468 -0.45935,-1.36305 -0.16213,-0.47836 -0.32726,-0.96273 -0.49538,-1.45311 -0.16814,-0.49037 -0.33727,-0.97975 -0.50739,-1.46813 -0.17014,-0.48837 -0.33427,-0.95873 -0.49238,-1.41109 -0.15813,-0.45234 -0.30824,-0.87766 -0.45035,-1.27598 -0.14211,-0.39829 -0.26921,-0.75357 -0.38129,-1.06582 -0.1281,-0.36427 -0.23919,-0.68651 -0.33326,-0.96674 -0.0941,-0.2802 -0.17514,-0.5284 -0.24319,-0.74457 l -0.042,0.018 c 0,0.1201 0.001,0.2392 0.003,0.35728 0.002,0.1181 0.003,0.2452 0.003,0.38129 l 0,0.99076 c -1e-5,0.6365 -0.01,1.286 -0.03,1.9485 -0.02,0.66252 -0.046,1.31502 -0.0781,1.9575 -0.032,0.6425 -0.07,1.26398 -0.11408,1.86444 -0.044,0.60046 -0.0901,1.15489 -0.13811,1.66328 -0.04,0.42032 -0.0771,0.7776 -0.11109,1.07182 -0.034,0.29423 -0.0721,0.54142 -0.11408,0.74157 -0.042,0.20015 -0.0931,0.35728 -0.15312,0.47136 -0.0601,0.11409 -0.13511,0.20116 -0.22517,0.2612 -0.0901,0.06 -0.20016,0.0981 -0.33026,0.11409 -0.1301,0.016 -0.28522,0.024 -0.46536,0.024 l -0.18013,0 c -0.036,0 -0.0801,-0.001 -0.13211,-0.003 -0.052,-0.002 -0.11609,-0.005 -0.19214,-0.009 l -0.0841,-0.06 c 0.18815,-0.38829 0.35527,-0.82163 0.50139,-1.3 0.14611,-0.47836 0.27421,-0.98575 0.38429,-1.52217 0.11009,-0.5364 0.20516,-1.09183 0.28522,-1.66628 0.0801,-0.57443 0.14711,-1.14787 0.20116,-1.72032 0.054,-0.57243 0.0981,-1.13687 0.1321,-1.6933 0.034,-0.55642 0.059,-1.08483 0.0751,-1.58522 0.016,-0.50037 0.027,-0.96273 0.033,-1.38707 0.006,-0.42431 0.009,-0.7946 0.009,-1.11085 0,-0.20415 -0.014,-0.37227 -0.042,-0.50439 -0.028,-0.13209 -0.0771,-0.23717 -0.14712,-0.31524 -0.0701,-0.078 -0.16613,-0.13209 -0.28822,-0.16213 -0.12209,-0.03 -0.27921,-0.045 -0.47136,-0.045 -0.1321,1e-5 -0.48457,0.0188 -0.76513,-0.0295 -0.65286,-0.11236 -1.03418,-0.57363 0.5997,-0.71565 0.47236,-0.0821 1.72868,-0.17955 2.0089,-0.17956 0.1441,1e-5 0.2682,0.013 0.37228,0.039 0.10408,0.026 0.19515,0.0701 0.27321,0.1321 0.0781,0.0621 0.14711,0.14412 0.20716,0.24619 0.06,0.10209 0.11809,0.22919 0.17414,0.38129 0.21215,0.59247 0.43633,1.22296 0.67251,1.89146 0.23618,0.66852 0.47736,1.35105 0.72356,2.04757 0.24618,0.69655 0.49237,1.39408 0.73857,2.09261 0.24618,0.69854 0.48336,1.37606 0.71154,2.03256 0.0881,0.26021 0.16913,0.49739 0.24319,0.71155 0.074,0.21417 0.1421,0.41232 0.20416,0.59446 0.062,0.18214 0.12008,0.35627 0.17413,0.5224 0.054,0.16613 0.10507,0.33126 0.15312,0.49538 l 0.042,0 c 0.064,-0.17213 0.13009,-0.34126 0.19815,-0.50739 0.068,-0.16612 0.1401,-0.33826 0.21617,-0.5164 0.0761,-0.17813 0.15911,-0.36928 0.24919,-0.57344 0.0901,-0.20415 0.19114,-0.43433 0.30324,-0.69053 0.2802,-0.64049 0.57143,-1.305 0.87367,-1.99353 0.30222,-0.68852 0.61246,-1.39306 0.93071,-2.11363 0.31824,-0.72054 0.64148,-1.4511 0.96975,-2.19168 0.32824,-0.74056 0.65849,-1.48313 0.99076,-2.22771 0.036,-0.08 0.0851,-0.1461 0.14711,-0.19816 0.062,-0.052 0.13009,-0.0931 0.20416,-0.12309 0.074,-0.03 0.1511,-0.051 0.23118,-0.0631 0.0801,-0.012 0.1541,-0.018 0.22217,-0.018 0.11607,1e-5 0.24317,0.015 0.38129,0.045 0.13809,0.03 0.2712,0.0731 0.39931,0.1291 -0.0601,0.65652 -0.1131,1.285 -0.15912,1.88545 -0.16129,3.31217 -0.46111,6.53282 -0.23719,9.77552 0.036,0.30023 0.0991,0.54542 0.18915,0.73556 0.0901,0.19015 0.21115,0.32925 0.36328,0.41732 0.1521,0.0881 0.34225,0.1321 0.57044,0.1321 0.084,0 0.16511,-0.002 0.24318,-0.006 0.0781,-0.004 0.20137,-0.0166 0.42846,-0.0109 0.62553,0.0159 0.40137,0.39034 -0.18229,0.62636 z"
         id="path4041-2-8-2-4"
         inkscape:connector-curvature="0"
         sodipodi:nodetypes="cccscccsccssssccccccssccccccccccccssssccccccccsscccscccscssccccsccscccscccccccccccccsccccccccccccscssc" />
    </g>
    <path
       style="fill:none;stroke:#000000;stroke-width:1.66985977;stroke-linecap:round;stroke-linejoin:miter;stroke-miterlimit:4;stroke-opacity:1;stroke-dasharray:none;marker-start:none"
       d="m 659.12836,861.7763 c 30.92496,7.16518 56.58473,-5.65662 84.55768,3.37367"
       id="path3012-3-9-4-8"
       inkscape:connector-curvature="0"
       sodipodi:nodetypes="cc" />
    <path
       style="fill:none;stroke:#ff0000;stroke-width:1.08322585;stroke-linecap:round;stroke-linejoin:miter;stroke-miterlimit:4;stroke-opacity:1;stroke-dasharray:none;marker-start:none"
       d="m 672.939,809.75318 c 12.28161,-6.51677 4.86187,5.72967 0.26997,11.33224 -5.59433,-7.02048 -11.3997,-17.24854 -0.26997,-11.33224 z"
       id="path3016-2-2-8-8"
       inkscape:connector-curvature="0"
       sodipodi:nodetypes="ccc" />
    <path
       transform="matrix(4.7862253,0,0,4.7862253,-105.31555,-881.019)"
       style="fill:none;stroke:#000000;stroke-width:0.3377203;stroke-linecap:round;stroke-linejoin:round;stroke-miterlimit:4;stroke-dashoffset:0;stroke-opacity:1;marker-start:none"
       d="m 173.74623,357.31409 c 0,2.33617 -1.89384,4.23001 -4.23001,4.23001 -2.33617,0 -4.23001,-1.89384 -4.23001,-4.23001 0,-2.33618 1.89384,-4.23002 4.23001,-4.23002 2.33617,0 4.23001,1.89384 4.23001,4.23002 z"
       id="path3786-2-7-6-2" />
    <path
       style="fill:none;stroke:#000000;stroke-width:1.61271894;stroke-linecap:round;stroke-linejoin:miter;stroke-miterlimit:4;stroke-opacity:1;stroke-dasharray:none;marker-start:none"
       d="m 658.68028,796.50825 c 12.40825,3.2128 20.98359,4.43274 28.64889,-1.10254 10.74018,-7.75571 24.39707,-8.16731 32.17454,-2.03633 8.0988,6.38426 15.7561,7.8307 23.41823,7.53455"
       id="path2992-8-4-9-4"
       inkscape:connector-curvature="0"
       sodipodi:nodetypes="cssc" />
    <path
       style="fill:none;stroke:#000000;stroke-width:1.61271894;stroke-linecap:round;stroke-linejoin:miter;stroke-miterlimit:4;stroke-opacity:1;stroke-dasharray:none;marker-start:none"
       d="m 664.3182,797.74754 c 7.71789,-8.17955 13.4772,-2.33583 16.59643,0.50936"
       id="path2994-5-3-0-5"
       inkscape:connector-curvature="0"
       sodipodi:nodetypes="cc" />
    <g
       style="font-size:76.92607117px;font-style:normal;font-variant:normal;font-weight:normal;font-stretch:normal;text-align:start;line-height:125%;letter-spacing:0px;word-spacing:0px;writing-mode:lr-tb;text-anchor:start;fill:#000000;fill-opacity:1;stroke:none;font-family:Embassy BT;-inkscape-font-specification:Embassy BT"
       id="text3788-1-9-6-5">
      <path
         d="m 611.00717,919.16616 c 6.98642,-4.18182 12.51422,-7.98805 16.58343,-11.41871 4.06912,-3.43058 6.1037,-5.95972 6.10375,-7.58744 -5e-5,-0.45069 -0.0877,-0.76996 -0.26293,-0.95782 -0.17533,-0.18775 -0.47583,-0.28166 -0.90148,-0.28171 -1.85308,5e-5 -4.45734,1.57138 -7.8128,4.71398 -3.35554,3.14269 -7.92552,8.31992 -13.70997,15.5317 z m -24.71551,26.36822 c -0.22536,-0.40066 -0.39439,-0.77627 -0.50708,-1.12685 -0.11268,-0.35057 -0.16902,-0.68862 -0.16902,-1.01416 0,-0.60098 0.16276,-1.0705 0.4883,-1.40856 0.32553,-0.33805 0.77627,-0.50708 1.35221,-0.50708 0.30049,0 0.57594,0.0313 0.82636,0.0939 0.25041,0.0626 0.48829,0.15651 0.71367,0.28171 l 6.8362,-9.24014 c -1.55255,1.17694 -3.23656,2.53542 -5.05203,4.07543 -1.81548,1.54003 -2.87346,2.31004 -3.17395,2.31003 -0.12521,10e-6 -0.23163,-0.0626 -0.31927,-0.1878 -0.0877,-0.1252 -0.13147,-0.28797 -0.13147,-0.4883 0,-0.57594 3.055,-3.19272 9.16502,-7.85037 l 2.96736,-2.29125 c 7.38709,-9.8411 14.048,-17.54747 19.98275,-23.11914 5.93469,-5.57159 10.40451,-8.3574 13.40948,-8.35745 0.87639,5e-5 1.55876,0.23794 2.0471,0.71367 0.48826,0.47583 0.73241,1.16446 0.73245,2.06589 -4e-5,2.22869 -2.17861,5.2524 -6.53571,9.07111 -4.35718,3.8188 -11.66915,9.07115 -21.93595,15.75708 l -14.38607,19.08127 c 0.45073,0.12521 0.88269,0.21911 1.29587,0.28171 0.41317,0.0626 0.80757,0.0939 1.18319,0.0939 1.32716,10e-6 2.7232,-0.30675 4.18811,-0.92026 1.46489,-0.61349 3.08629,-1.55879 4.86422,-2.83589 1.07675,-0.77627 2.14725,-1.69026 3.21152,-2.742 1.06422,-1.05171 1.68399,-1.57757 1.8593,-1.57758 0.12518,10e-6 0.23786,0.0751 0.33805,0.22537 0.10014,0.15026 0.15022,0.31302 0.15025,0.4883 -3e-5,0.45075 -0.51337,1.18946 -1.54003,2.21613 -1.0267,1.02669 -2.41648,2.17858 -4.16933,3.45566 -2.32883,1.67776 -4.5387,2.90477 -6.62962,3.68104 -2.09093,0.77627 -4.16308,1.1644 -6.21643,1.1644 l -1.16441,0 -16.15147,21.78571 c -0.27544,0.40063 -0.55089,0.68234 -0.82636,0.84513 -0.27543,0.16275 -0.61349,0.24413 -1.01416,0.24415 l -1.69027,0 c -0.3756,-2e-5 -0.66357,-0.0751 -0.86391,-0.22537 -0.20032,-0.15026 -0.30048,-0.36311 -0.3005,-0.63854 2e-5,-0.10019 0.0313,-0.21913 0.0939,-0.35684 0.0626,-0.13774 0.144,-0.26921 0.24415,-0.39439 z"
         style=""
         id="path3066" />
      <path
         d="m 607.81444,945.15876 c 0,0.45074 0.11268,0.77001 0.33805,0.95782 0.22537,0.18781 0.57594,0.28171 1.05173,0.28171 1.1018,0 2.55418,-0.51334 4.35714,-1.54002 1.80294,-1.02668 3.89387,-2.54166 6.27278,-4.54495 2.05335,-1.75286 3.65597,-3.38679 4.80788,-4.90178 1.15186,-1.51497 1.72781,-2.7232 1.72783,-3.62469 -2e-5,-0.47577 -0.14401,-0.85138 -0.43196,-1.12685 -0.28799,-0.27543 -0.68239,-0.41316 -1.18319,-0.41318 -0.85141,2e-5 -2.01582,0.40694 -3.49322,1.22075 -1.47744,0.81385 -3.02998,1.92192 -4.65764,3.3242 -2.6794,2.27875 -4.81414,4.36341 -6.40424,6.254 -1.59011,1.8906 -2.38516,3.2616 -2.38516,4.11299 z m 16.56464,-6.68596 c -3.2303,3.18022 -6.18514,5.60294 -8.86452,7.26816 -2.6794,1.66523 -4.95813,2.49785 -6.83621,2.49785 -1.30213,0 -2.33507,-0.37562 -3.09882,-1.12685 -0.76376,-0.75123 -1.14563,-1.75287 -1.14563,-3.00492 0,-1.75287 0.70741,-3.61217 2.12223,-5.57789 1.41481,-1.96571 3.42435,-3.88761 6.02863,-5.7657 1.95319,-1.40229 3.95021,-2.50409 5.99106,-3.30542 2.04083,-0.80129 3.83753,-1.20195 5.39009,-1.20197 1.25203,2e-5 2.25993,0.33181 3.0237,0.99538 0.76373,0.66361 1.14561,1.53378 1.14563,2.61053 -2e-5,0.7262 -0.21913,1.54004 -0.65733,2.4415 -0.43824,0.90149 -1.09556,1.87809 -1.97198,2.9298 0.27543,0.57596 0.65105,1.00165 1.12685,1.27709 0.47576,0.27547 1.0517,0.41319 1.72783,0.41318 0.95154,10e-6 2.05334,-0.43195 3.30542,-1.29587 1.25202,-0.86391 2.02829,-1.29586 2.32881,-1.29588 0.15022,2e-5 0.26291,0.0501 0.33806,0.15025 0.0751,0.10018 0.11265,0.25042 0.11268,0.45074 -3e-5,0.50083 -0.7137,1.2145 -2.14101,2.14101 -1.42736,0.92652 -2.74201,1.38978 -3.94396,1.38978 -0.80133,0 -1.52126,-0.1565 -2.15979,-0.46952 -0.63857,-0.31301 -1.24581,-0.82009 -1.82174,-1.52125 z"
         style=""
         id="path3068" />
      <path
         d="m 640.45543,932.6132 c -1.55255,1.17694 -3.23656,2.53542 -5.05203,4.07543 -1.81548,1.54003 -2.87346,2.31004 -3.17395,2.31003 -0.12521,10e-6 -0.23163,-0.0626 -0.31927,-0.1878 -0.0876,-0.1252 -0.13147,-0.28797 -0.13147,-0.4883 0,-0.57594 3.055,-3.19272 9.16502,-7.85037 l 2.96736,-2.29125 3.30542,-3.64347 -6.61083,0 1.23953,-1.31466 6.68596,0 6.98645,-8.75184 c 0.27542,-0.3255 0.56965,-0.56339 0.88269,-0.71367 0.31299,-0.15021 0.69487,-0.22534 1.14563,-0.22537 0.82633,3e-5 1.48991,0.11272 1.99076,0.33805 0.50079,0.22541 0.7512,0.50086 0.75123,0.82636 -3e-5,0.17532 -0.0251,0.33808 -0.0751,0.4883 -0.0501,0.15028 -0.15027,0.32556 -0.30049,0.52586 l -6.46059,7.51231 7.625,0 -1.23953,1.31466 -7.36207,0 -8.7894,10.10405 c -2.05338,2.35387 -3.56836,4.35089 -4.54495,5.99107 -0.97661,1.6402 -1.46491,2.99867 -1.4649,4.07543 -10e-6,0.57595 0.10641,1.00165 0.31927,1.27709 0.21284,0.27546 0.54463,0.41318 0.99538,0.41318 1.25204,0 2.91727,-0.52586 4.99569,-1.57758 2.07839,-1.05172 4.39468,-2.55418 6.94889,-4.50739 0.95153,-0.70114 1.95944,-1.54002 3.0237,-2.51662 1.06422,-0.97659 1.72155,-1.46489 1.97198,-1.46491 0.17527,2e-5 0.31925,0.0626 0.43196,0.18781 0.11266,0.12522 0.169,0.28799 0.16903,0.4883 -3e-5,0.30051 -0.26296,0.71994 -0.78879,1.25831 -0.52589,0.5384 -1.80298,1.6089 -3.83128,3.21152 -2.77958,2.22865 -5.37132,3.9377 -7.77525,5.12715 -2.40395,1.18945 -4.44479,1.78417 -6.12253,1.78417 -1.15189,0 -2.05963,-0.31301 -2.72321,-0.93903 -0.66359,-0.62603 -0.99539,-1.48994 -0.99538,-2.59175 -10e-6,-1.65271 0.48829,-3.45566 1.4649,-5.40887 0.97659,-1.95319 2.54165,-4.23192 4.69519,-6.8362 z"
         style=""
         id="path3070" />
      <path
         d="m 654.99175,945.15876 c 0,0.45074 0.11269,0.77001 0.33806,0.95782 0.22537,0.18781 0.57594,0.28171 1.05172,0.28171 1.1018,0 2.55418,-0.51334 4.35714,-1.54002 1.80295,-1.02668 3.89387,-2.54166 6.27278,-4.54495 2.05335,-1.75286 3.65598,-3.38679 4.80788,-4.90178 1.15187,-1.51497 1.72781,-2.7232 1.72783,-3.62469 -2e-5,-0.47577 -0.144,-0.85138 -0.43195,-1.12685 -0.288,-0.27543 -0.68239,-0.41316 -1.18319,-0.41318 -0.85142,2e-5 -2.01582,0.40694 -3.49323,1.22075 -1.47743,0.81385 -3.02998,1.92192 -4.65763,3.3242 -2.6794,2.27875 -4.81415,4.36341 -6.40425,6.254 -1.59011,1.8906 -2.38516,3.2616 -2.38516,4.11299 z m 16.56465,-6.68596 c -3.23031,3.18022 -6.18515,5.60294 -8.86453,7.26816 -2.67939,1.66523 -4.95813,2.49785 -6.8362,2.49785 -1.30214,0 -2.33508,-0.37562 -3.09883,-1.12685 -0.76375,-0.75123 -1.14562,-1.75287 -1.14563,-3.00492 10e-6,-1.75287 0.70741,-3.61217 2.12223,-5.57789 1.41482,-1.96571 3.42436,-3.88761 6.02863,-5.7657 1.95319,-1.40229 3.95022,-2.50409 5.99107,-3.30542 2.04083,-0.80129 3.83752,-1.20195 5.39008,-1.20197 1.25204,2e-5 2.25994,0.33181 3.02371,0.99538 0.76373,0.66361 1.14561,1.53378 1.14563,2.61053 -2e-5,0.7262 -0.21913,1.54004 -0.65733,2.4415 -0.43824,0.90149 -1.09557,1.87809 -1.97198,2.9298 0.27543,0.57596 0.65104,1.00165 1.12685,1.27709 0.47575,0.27547 1.0517,0.41319 1.72783,0.41318 0.95153,10e-6 2.05334,-0.43195 3.30541,-1.29587 1.25203,-0.86391 2.0283,-1.29586 2.32882,-1.29588 0.15022,2e-5 0.2629,0.0501 0.33805,0.15025 0.0751,0.10018 0.11266,0.25042 0.11269,0.45074 -3e-5,0.50083 -0.7137,1.2145 -2.14101,2.14101 -1.42736,0.92652 -2.74202,1.38978 -3.94396,1.38978 -0.80134,0 -1.52127,-0.1565 -2.15979,-0.46952 -0.63857,-0.31301 -1.24581,-0.82009 -1.82174,-1.52125 z"
         style=""
         id="path3072" />
      <path
         d="m 682.03607,951.16861 c -5.45894,2.35385 -9.75974,4.85795 -12.90239,7.51231 -3.14264,2.65434 -4.71396,5.04576 -4.71398,7.17426 2e-5,0.67609 0.15026,1.23325 0.45074,1.67149 0.30051,0.4382 0.68864,0.65731 1.16441,0.65733 0.90149,-2e-5 1.95947,-0.53215 3.17395,-1.59637 1.2145,-1.06426 3.04875,-3.12389 5.50277,-6.17888 z m 5.97229,-8.71428 8.63916,-9.20258 c 0.30047,-0.32552 0.53836,-0.66358 0.71367,-1.01417 0.17527,-0.35055 0.26291,-0.68861 0.26293,-1.01416 -2e-5,-0.27543 -0.0814,-0.48202 -0.24415,-0.61976 -0.16279,-0.13771 -0.38189,-0.20657 -0.65733,-0.20659 -0.85141,2e-5 -1.98452,0.36311 -3.39932,1.08928 -1.41483,0.72621 -2.84843,1.69029 -4.3008,2.89224 -2.3789,1.97826 -4.3321,4.03788 -5.8596,6.17888 -1.52751,2.14101 -2.29126,3.72486 -2.29125,4.75154 -10e-6,0.35057 0.10642,0.63229 0.31927,0.84513 0.21284,0.21285 0.49456,0.31928 0.84513,0.31928 0.65107,0 1.52124,-0.35684 2.61053,-1.07051 1.08928,-0.71367 2.20986,-1.69653 3.36176,-2.94858 z m 0.30049,6.87376 c -5.53407,6.91132 -10.14162,12.05099 -13.82265,15.41902 -3.68102,3.368 -6.52318,5.05201 -8.52647,5.05203 -1.12684,-2e-5 -1.96571,-0.30677 -2.51663,-0.92026 -0.55089,-0.61352 -0.82634,-1.52126 -0.82635,-2.72321 10e-6,-2.77957 1.94695,-5.79701 5.84082,-9.05233 3.89389,-3.25534 9.00851,-6.0349 15.3439,-8.33867 l 1.4649,-1.91564 c -0.87644,0.4257 -1.71532,0.73871 -2.51663,0.93904 -0.80131,0.20033 -1.57759,0.30049 -2.32881,0.30049 -0.95156,0 -1.69027,-0.35057 -2.21614,-1.05172 -0.52586,-0.70115 -0.78879,-1.67775 -0.78879,-2.9298 0,-1.67775 0.40692,-3.29915 1.22075,-4.86422 0.81384,-1.56506 2.02206,-3.04874 3.62469,-4.45105 2.22865,-1.97823 4.58876,-3.53703 7.08036,-4.67641 2.49157,-1.13935 4.68892,-1.70903 6.59205,-1.70905 1.02666,2e-5 1.78415,0.20034 2.27247,0.60098 0.48828,0.40068 0.78252,1.06426 0.8827,1.99076 0.3756,-0.42568 0.78877,-0.83259 1.23953,-1.22075 0.45072,-0.38812 0.93902,-0.74495 1.4649,-1.0705 0.20031,2e-5 0.48828,-0.0125 0.86392,-0.0376 0.37559,-0.025 0.65104,-0.0375 0.82635,-0.0376 0.87641,2e-5 1.50244,0.0689 1.87808,0.20659 0.37559,0.13775 0.5634,0.36938 0.56342,0.69489 -2e-5,0.10018 -1.87184,1.98452 -5.61545,5.65302 -3.74365,3.66852 -7.30574,7.7189 -10.68626,12.15116 2.22864,-0.20033 4.58875,-0.87017 7.08035,-2.00954 2.49156,-1.13937 5.13965,-2.76077 7.94427,-4.86422 0.97657,-0.72619 2.0596,-1.59636 3.24908,-2.61053 1.18941,-1.01415 1.89682,-1.52123 2.12222,-1.52125 0.17526,2e-5 0.31925,0.0626 0.43196,0.18781 0.11265,0.12522 0.169,0.28799 0.16903,0.4883 -3e-5,0.37563 -0.50711,1.02669 -1.52124,1.9532 -1.0142,0.92653 -2.44779,2.0659 -4.3008,3.41811 -2.77958,2.02832 -5.47149,3.58713 -8.07574,4.67641 -2.60428,1.08928 -5.40887,1.84677 -8.41379,2.27247 z"
         style=""
         id="path3074" />
      <path
         d="m 729.02559,929.87121 c 0.0501,-0.0751 0.17526,-0.14397 0.37561,-0.20659 0.20031,-0.0626 0.40064,-0.10641 0.60099,-0.13147 0.70112,2e-5 1.30211,0.0814 1.80295,0.24415 0.5008,0.16279 0.75121,0.34433 0.75123,0.54464 -2e-5,0.10019 -0.23165,0.39442 -0.69488,0.8827 -0.46329,0.48832 -0.84516,0.9328 -1.14563,1.33344 -0.92654,1.20198 -1.63395,2.37265 -2.12223,3.512 -0.48832,1.13938 -0.73247,2.14728 -0.73245,3.02371 -2e-5,0.65107 0.17527,1.17693 0.52586,1.57758 0.35055,0.40067 0.81381,0.601 1.38978,0.60099 0.626,1e-5 1.30211,-0.1878 2.02832,-0.56342 0.72617,-0.37561 1.61512,-1.01416 2.66687,-1.91564 0.45071,-0.37561 1.01414,-0.86391 1.69027,-1.46491 0.80129,-0.75121 1.31463,-1.12683 1.54003,-1.12684 0.2003,10e-6 0.35054,0.0563 0.45074,0.16903 0.10013,0.11269 0.16273,0.28172 0.1878,0.50708 -3e-5,0.22538 -0.13775,0.50709 -0.41317,0.84513 -0.27548,0.33807 -0.86395,0.88271 -1.7654,1.63393 -1.80298,1.47743 -3.24284,2.48533 -4.31957,3.0237 -1.07679,0.53839 -2.09095,0.80758 -3.04249,0.80758 -1.30216,0 -2.31006,-0.39439 -3.02371,-1.18319 -0.71368,-0.78879 -1.07052,-1.88433 -1.0705,-3.28664 -2e-5,-0.50081 0.0688,-1.07675 0.20659,-1.72783 0.13771,-0.65105 0.33177,-1.3522 0.5822,-2.10345 -2.27875,2.07842 -4.42602,4.22569 -6.44181,6.44181 -2.01581,2.21614 -3.8751,4.47609 -5.57789,6.77986 -0.65107,0.10017 -1.25205,0.17529 -1.80295,0.22537 -0.55091,0.0501 -1.05173,0.0751 -1.50246,0.0751 -0.47579,0 -0.8514,-0.0501 -1.12685,-0.15024 -0.27545,-0.10017 -0.41318,-0.22537 -0.41318,-0.37562 0,-0.32553 0.72619,-1.27709 2.17857,-2.85468 0.87643,-0.97659 1.5901,-1.76538 2.14101,-2.36637 2.80459,-3.28037 4.69519,-5.64675 5.6718,-7.09914 0.97658,-1.45236 1.46488,-2.55417 1.4649,-3.30542 -2e-5,-0.22535 -0.0313,-0.38186 -0.0939,-0.46952 -0.0626,-0.0876 -0.15652,-0.13144 -0.28171,-0.13146 -0.65108,2e-5 -1.49621,0.28799 -2.5354,0.86392 -1.03922,0.57595 -2.39769,1.51499 -4.07543,2.81711 -0.50083,0.40067 -1.11433,0.93905 -1.84052,1.61515 -0.90148,0.82636 -1.48994,1.23954 -1.76539,1.23953 -0.20033,10e-6 -0.36936,-0.0688 -0.50708,-0.20659 -0.13773,-0.13771 -0.20659,-0.30674 -0.20659,-0.50708 0,-0.2504 0.25667,-0.64479 0.77001,-1.18319 0.51334,-0.53837 1.4336,-1.37098 2.76077,-2.49784 1.92816,-1.62765 3.78745,-2.92979 5.5779,-3.9064 1.79042,-0.97659 3.13637,-1.46488 4.03786,-1.4649 0.70114,2e-5 1.25204,0.21912 1.65271,0.65732 0.40064,0.43824 0.60097,1.03296 0.60099,1.78418 -2e-5,0.55092 -0.10018,1.1832 -0.3005,1.89686 -0.20034,0.71368 -0.51335,1.52125 -0.93903,2.42272 z"
         style=""
         id="path3076" />
      <path
         d="m 744.50095,942.45433 8.63916,-9.20258 c 0.32552,-0.35056 0.58219,-0.70114 0.77001,-1.05173 0.18779,-0.35056 0.2817,-0.67609 0.28171,-0.9766 -10e-6,-0.25039 -0.0877,-0.45072 -0.26293,-0.60098 -0.1753,-0.15023 -0.41319,-0.22535 -0.71367,-0.22537 -0.85141,2e-5 -1.97199,0.35685 -3.36176,1.0705 -1.38979,0.71369 -2.81086,1.68403 -4.26323,2.91102 -2.37891,1.97826 -4.34463,4.04414 -5.89717,6.19766 -1.55254,2.15354 -2.32882,3.73112 -2.32881,4.73276 -10e-6,0.35057 0.10642,0.63229 0.31927,0.84513 0.21285,0.21285 0.48204,0.31928 0.80757,0.31928 0.67611,0 1.5588,-0.35684 2.64809,-1.07051 1.08928,-0.71367 2.20987,-1.69653 3.36176,-2.94858 z m 0.3005,1.57758 c -1.50248,1.47743 -2.89225,2.58549 -4.16934,3.3242 -1.2771,0.73871 -2.41646,1.10807 -3.4181,1.10807 -1.05172,0 -1.86556,-0.38814 -2.4415,-1.16441 -0.57594,-0.77627 -0.86392,-1.87808 -0.86392,-3.30542 0,-1.67774 0.40066,-3.28037 1.20197,-4.80788 0.80132,-1.52749 2.04085,-3.01743 3.7186,-4.46982 2.15352,-1.92815 4.46981,-3.46191 6.94889,-4.60129 2.47905,-1.13935 4.67013,-1.70903 6.57327,-1.70905 1.07674,2e-5 1.86554,0.20034 2.36638,0.60098 0.5008,0.40068 0.78877,1.06426 0.86391,1.99076 0.35056,-0.40064 0.75747,-0.79503 1.22075,-1.18319 0.46324,-0.38811 0.98284,-0.75747 1.55881,-1.10806 0.2003,2e-5 0.48827,-0.0125 0.86391,-0.0376 0.37559,-0.025 0.65105,-0.0375 0.82636,-0.0376 0.87641,2e-5 1.50243,0.0689 1.87808,0.20659 0.37558,0.13775 0.56339,0.36938 0.56342,0.69489 -3e-5,0.30051 -0.57597,0.9641 -1.72783,1.99076 -0.62605,0.55092 -1.12687,0.98914 -1.50246,1.31466 -3.35553,3.18022 -5.98483,5.89091 -7.88793,8.13208 -1.90314,2.24117 -2.85469,3.76242 -2.85468,4.56373 -10e-6,0.32553 0.0688,0.5509 0.20659,0.6761 0.13771,0.12521 0.39438,0.18781 0.77001,0.18781 1.10179,0 2.72946,-0.53212 4.883,-1.59636 2.15351,-1.06424 4.43224,-2.51036 6.83621,-4.33836 1.00161,-0.75123 2.07837,-1.62766 3.23029,-2.62931 1.15186,-1.00163 1.84048,-1.50245 2.06589,-1.50247 0.17525,2e-5 0.31924,0.0626 0.43195,0.18781 0.11266,0.12522 0.169,0.28799 0.16903,0.4883 -3e-5,0.45075 -1.40233,1.81549 -4.20689,4.09421 l -0.18781,0.15025 c -2.77958,2.22866 -5.44019,3.97527 -7.98183,5.23984 -2.54169,1.26457 -4.61383,1.89685 -6.21644,1.89685 -1.1519,0 -2.07216,-0.31927 -2.76077,-0.95782 -0.68864,-0.63854 -1.03296,-1.4962 -1.03295,-2.57296 -10e-6,-0.22537 0.006,-0.39439 0.0188,-0.50708 0.0125,-0.11268 0.0313,-0.21911 0.0564,-0.31928 z"
         style=""
         id="path3078" />
      <path
         d="m 788.44797,919.16616 c 6.98641,-4.18182 12.51422,-7.98805 16.58342,-11.41871 4.06913,-3.43058 6.10371,-5.95972 6.10376,-7.58744 -5e-5,-0.45069 -0.0877,-0.76996 -0.26293,-0.95782 -0.17534,-0.18775 -0.47583,-0.28166 -0.90148,-0.28171 -1.85308,5e-5 -4.45735,1.57138 -7.81281,4.71398 -3.35553,3.14269 -7.92551,8.31992 -13.70996,15.5317 z m -24.71551,26.36822 c -0.22537,-0.40066 -0.3944,-0.77627 -0.50708,-1.12685 -0.11268,-0.35057 -0.16903,-0.68862 -0.16903,-1.01416 0,-0.60098 0.16277,-1.0705 0.4883,-1.40856 0.32554,-0.33805 0.77627,-0.50708 1.35222,-0.50708 0.30049,0 0.57594,0.0313 0.82635,0.0939 0.25041,0.0626 0.4883,0.15651 0.71367,0.28171 l 6.83621,-9.24014 c -1.55256,1.17694 -3.23656,2.53542 -5.05203,4.07543 -1.81548,1.54003 -2.87346,2.31004 -3.17395,2.31003 -0.12521,10e-6 -0.23164,-0.0626 -0.31928,-0.1878 -0.0876,-0.1252 -0.13146,-0.28797 -0.13146,-0.4883 0,-0.57594 3.055,-3.19272 9.16502,-7.85037 l 2.96736,-2.29125 c 7.38709,-9.8411 14.048,-17.54747 19.98275,-23.11914 5.93469,-5.57159 10.40451,-8.3574 13.40947,-8.35745 0.87639,5e-5 1.55876,0.23794 2.04711,0.71367 0.48825,0.47583 0.7324,1.16446 0.73245,2.06589 -5e-5,2.22869 -2.17862,5.2524 -6.53571,9.07111 -4.35718,3.8188 -11.66916,9.07115 -21.93595,15.75708 l -14.38608,19.08127 c 0.45073,0.12521 0.88269,0.21911 1.29588,0.28171 0.41317,0.0626 0.80756,0.0939 1.18319,0.0939 1.32716,10e-6 2.7232,-0.30675 4.18811,-0.92026 1.46489,-0.61349 3.08629,-1.55879 4.86422,-2.83589 1.07675,-0.77627 2.14725,-1.69026 3.21151,-2.742 1.06423,-1.05171 1.68399,-1.57757 1.8593,-1.57758 0.12518,10e-6 0.23787,0.0751 0.33806,0.22537 0.10014,0.15026 0.15022,0.31302 0.15024,0.4883 -2e-5,0.45075 -0.51336,1.18946 -1.54002,2.21613 -1.02671,1.02669 -2.41648,2.17858 -4.16934,3.45566 -2.32883,1.67776 -4.5387,2.90477 -6.62961,3.68104 -2.09094,0.77627 -4.16308,1.1644 -6.21644,1.1644 l -1.16441,0 -16.15147,21.78571 c -0.27544,0.40063 -0.55089,0.68234 -0.82635,0.84513 -0.27544,0.16275 -0.61349,0.24413 -1.01416,0.24415 l -1.69027,0 c -0.3756,-2e-5 -0.66357,-0.0751 -0.86392,-0.22537 -0.20031,-0.15026 -0.30047,-0.36311 -0.30049,-0.63854 2e-5,-0.10019 0.0313,-0.21913 0.0939,-0.35684 0.0626,-0.13774 0.14401,-0.26921 0.24415,-0.39439 z"
         style=""
         id="path3080" />
      <path
         d="m 806.81558,918.37737 c -3e-5,-0.70112 0.24412,-1.2708 0.73245,-1.70905 0.48827,-0.43819 1.13308,-0.6573 1.93442,-0.65733 0.82633,3e-5 1.48365,0.21914 1.97198,0.65733 0.48827,0.43825 0.73242,1.00793 0.73245,1.70905 -3e-5,0.75126 -0.25044,1.35224 -0.75123,1.80295 -0.50085,0.45077 -1.15192,0.67614 -1.9532,0.67611 -0.82638,3e-5 -1.47745,-0.22534 -1.9532,-0.67611 -0.47581,-0.45071 -0.7137,-1.05169 -0.71367,-1.80295 z m -15.17487,15.85098 c -1.40231,0.80132 -2.81086,1.74662 -4.22568,2.83589 -1.41482,1.0893 -2.23491,1.63394 -2.46028,1.63393 -0.15025,10e-6 -0.27545,-0.0501 -0.37561,-0.15024 -0.10017,-0.10016 -0.15025,-0.22536 -0.15025,-0.37562 0,-0.40065 0.46326,-0.95155 1.38978,-1.65271 l 0.0376,-0.0376 2.32881,-1.76539 c 2.82963,-2.17856 5.14593,-3.79996 6.94889,-4.86422 1.80294,-1.06423 3.13012,-1.59635 3.98153,-1.59637 1.12683,2e-5 2.03456,0.0751 2.72321,0.22537 0.68861,0.15026 1.03292,0.35059 1.03294,0.60098 -2e-5,0.17531 -1.02044,1.12061 -3.06126,2.8359 -2.04086,1.71533 -3.93772,3.4369 -5.69058,5.16472 -2.22866,2.17857 -3.90015,3.98153 -5.01447,5.40886 -1.11433,1.42734 -1.67149,2.4415 -1.67149,3.04249 0,0.32553 0.10016,0.57594 0.3005,0.75123 0.20032,0.17529 0.47577,0.26293 0.82635,0.26293 1.05172,0 2.61052,-0.52586 4.67641,-1.57759 2.06588,-1.05172 4.27575,-2.47905 6.62962,-4.28201 0.9265,-0.6761 1.94692,-1.48368 3.06127,-2.42273 1.1143,-0.93902 1.75911,-1.40854 1.93442,-1.40855 0.15022,10e-6 0.28169,0.0626 0.39439,0.1878 0.11267,0.12522 0.16901,0.26295 0.16903,0.41318 -2e-5,0.47579 -1.18947,1.66524 -3.56835,3.56835 l -0.82635,0.67611 c -2.5542,2.07841 -5.03952,3.71233 -7.45597,4.90178 -2.41647,1.18945 -4.38845,1.78417 -5.91595,1.78417 -1.10181,0 -1.99702,-0.30049 -2.68565,-0.90147 -0.68863,-0.60099 -1.03294,-1.37726 -1.03294,-2.32882 0,-1.27709 0.63854,-2.81711 1.91564,-4.62007 1.27709,-1.80295 3.20525,-3.90639 5.78448,-6.31034 z"
         style=""
         id="path3082" />
      <path
         d="m 812.262,942.45433 8.63916,-9.20258 c 0.32551,-0.35056 0.58218,-0.70114 0.77001,-1.05173 0.18779,-0.35056 0.28169,-0.67609 0.28171,-0.9766 -2e-5,-0.25039 -0.0877,-0.45072 -0.26293,-0.60098 -0.17531,-0.15023 -0.41319,-0.22535 -0.71367,-0.22537 -0.85141,2e-5 -1.972,0.35685 -3.36176,1.0705 -1.38979,0.71369 -2.81087,1.68403 -4.26323,2.91102 -2.37891,1.97826 -4.34463,4.04414 -5.89717,6.19766 -1.55255,2.15354 -2.32882,3.73112 -2.32882,4.73276 0,0.35057 0.10643,0.63229 0.31928,0.84513 0.21284,0.21285 0.48203,0.31928 0.80757,0.31928 0.6761,0 1.5588,-0.35684 2.64809,-1.07051 1.08928,-0.71367 2.20986,-1.69653 3.36176,-2.94858 z m 0.30049,1.57758 c -1.50247,1.47743 -2.89224,2.58549 -4.16933,3.3242 -1.2771,0.73871 -2.41646,1.10807 -3.4181,1.10807 -1.05173,0 -1.86556,-0.38814 -2.4415,-1.16441 -0.57595,-0.77627 -0.86392,-1.87808 -0.86392,-3.30542 0,-1.67774 0.40066,-3.28037 1.20197,-4.80788 0.80131,-1.52749 2.04084,-3.01743 3.71859,-4.46982 2.15353,-1.92815 4.46982,-3.46191 6.94889,-4.60129 2.47905,-1.13935 4.67014,-1.70903 6.57328,-1.70905 1.07674,2e-5 1.86553,0.20034 2.36637,0.60098 0.5008,0.40068 0.78878,1.06426 0.86392,1.99076 0.35055,-0.40064 0.75747,-0.79503 1.22075,-1.18319 0.46324,-0.38811 0.98284,-0.75747 1.55881,-1.10806 0.2003,2e-5 0.48827,-0.0125 0.86391,-0.0376 0.37559,-0.025 0.65104,-0.0375 0.82636,-0.0376 0.87641,2e-5 1.50243,0.0689 1.87807,0.20659 0.37559,0.13775 0.5634,0.36938 0.56343,0.69489 -3e-5,0.30051 -0.57597,0.9641 -1.72784,1.99076 -0.62605,0.55092 -1.12687,0.98914 -1.50246,1.31466 -3.35552,3.18022 -5.98482,5.89091 -7.88792,8.13208 -1.90314,2.24117 -2.8547,3.76242 -2.85468,4.56373 -2e-5,0.32553 0.0688,0.5509 0.20659,0.6761 0.13771,0.12521 0.39438,0.18781 0.77001,0.18781 1.10179,0 2.72945,-0.53212 4.883,-1.59636 2.15351,-1.06424 4.43224,-2.51036 6.8362,-4.33836 1.00162,-0.75123 2.07838,-1.62766 3.2303,-2.62931 1.15185,-1.00163 1.84048,-1.50245 2.06588,-1.50247 0.17526,2e-5 0.31924,0.0626 0.43196,0.18781 0.11265,0.12522 0.169,0.28799 0.16903,0.4883 -3e-5,0.45075 -1.40233,1.81549 -4.2069,4.09421 l -0.1878,0.15025 c -2.77958,2.22866 -5.44019,3.97527 -7.98184,5.23984 -2.54168,1.26457 -4.61382,1.89685 -6.21643,1.89685 -1.1519,0 -2.07216,-0.31927 -2.76078,-0.95782 -0.68864,-0.63854 -1.03295,-1.4962 -1.03294,-2.57296 -1e-5,-0.22537 0.006,-0.39439 0.0188,-0.50708 0.0125,-0.11268 0.0313,-0.21911 0.0563,-0.31928 z"
         style=""
         id="path3084" />
    </g>
    <path
       style="fill:none;stroke:#000000;stroke-width:1;stroke-linecap:round;stroke-linejoin:round;stroke-miterlimit:4;stroke-dashoffset:0;stroke-opacity:1"
       d="m 539.36542,697.72632 325.2691,0 0,325.26908 -325.2691,0 z"
       id="rect4397-7" />
  </g>
</svg>
