<?xml version="1.0" encoding="UTF-8" standalone="no"?>
<!-- Created with Inkscape (http://www.inkscape.org/) -->
<svg id="svg2" xmlns:rdf="http://www.w3.org/1999/02/22-rdf-syntax-ns#" xmlns="http://www.w3.org/2000/svg" height="270" width="354.33" version="1.1" xmlns:cc="http://creativecommons.org/ns#" xmlns:dc="http://purl.org/dc/elements/1.1/" viewBox="0 0 354.33 270">
 <metadata id="metadata7">
  <rdf:RDF>
   <cc:Work rdf:about="">
    <dc:format>image/svg+xml</dc:format>
    <dc:type rdf:resource="http://purl.org/dc/dcmitype/StillImage"/>
    <dc:title/>
   </cc:Work>
  </rdf:RDF>
 </metadata>
 <g id="layer1" transform="translate(0,-782.36)">
  <path id="main" fill="#000000" d="m100.53 787.35c-11.721 1.9045-22.45 2.2539-34.871 1.2324-1.5863 0.17331-3.2916 0.44519-5.1133 0.8125-1.8217 0.36828-7.1837 1.4246-9.2656 1.9219-4.7298 0.82904-6.5549 7.0496-0.72852 6.5977 1.6147-0.12604 3.0487-0.31045 3.8418-0.31055 1.2144 0 2.2062 0.18348 2.9746 0.55078 0.76828 0.3679 1.3689 0.95137 1.8027 1.752 8.6746 44.835-2.0986 93.314-1.8008 138.65l0.66992 0.12891c14.101-4.8062 22.731-7.7475 35.32-2.3203 3.0934 1.3337 6.726 2.765 8.0645 1.7051 1.3383-1.06 2.4728-2.9541 3.4023-5.6797 0.92933-2.7256 1.6551-6.4464 2.1758-11.162 1.5345-11.006-1.9394-17.76-3.7734-6.4238-0.55769 3.1151-1.2589 5.591-2.1016 7.4297-0.84274 1.8387-1.8275 3.1162-2.9551 3.8301-1.1278 0.71432-2.4349 1.0703-3.9219 1.0703-2.2306 0-4.4803-0.11913-6.748-0.35742-2.2679-0.23732-4.7023-0.35547-7.3047-0.35547-1.8589 0-3.9288 0.14024-6.209 0.42187-2.2802 0.28124-4.6233 0.72448-7.0273 1.3301 0.17375-2.0334 0.34062-4.6403 0.50195-7.8203 0.16134-3.1799 0.31075-6.6849 0.44726-10.514 0.13652-3.8289 0.27168-7.8308 0.4082-12.006 0.13595-4.1749 0.25424-8.2522 0.35352-12.232 0.09872-3.9803 0.18531-7.7337 0.25977-11.26 0.0739-3.5259 0.13478-6.5434 0.18555-9.0527 3.6929 0.73559 7.1562 1.3523 10.391 1.8496 3.2343 0.49729 6.1288 0.7462 8.6816 0.7461 1.4374 0.00099 2.7393-0.11717 3.9043-0.35547 1.1648-0.23751 2.1547-0.6293 2.9727-1.1699 0.81786-0.54071 1.4503-1.2419 1.8965-2.1074 0.44639-0.86518 0.66986-1.9269 0.66992-3.1816 0-1.5141 0.38324-4.4955 0.11133-6.7734-1.635 0.85513-5.1151 3.3013-7.5977 3.7051-7.136 0.84302-13.212 0.17454-20.881-1.0195 0.09872-5.9703 0.19242-11.766 0.2793-17.391 0.08631-5.6242 0.16773-10.967 0.24219-16.029 0.0739-5.0618 0.14108-9.8114 0.20312-14.246 0.06205-4.4344 0.1172-8.4461 0.16797-12.037 7.9489-1.4493 21.312-1.8306 25.398 1.1855 3.305 2.439 4.6559 11.725 3.5605 20.426 0.0352 4.2443 3.7223 3.1782 4.0156-4.2832 0.17375-3.2447 0.32833-6.3276 0.46485-9.248 0.13595-2.9202 0.24708-5.5041 0.33398-7.7539 0.0852-2.2496 0.13081-3.764 0.13086-4.543-0.00005-1.9468-0.30489-3.3858-0.91211-4.3164-0.60728-0.92947-1.481-1.3943-2.6211-1.3945zm211.1 4.3379c-0.33863 0-0.707 0.0618-1.1055 0.18555-0.39838 0.12476-0.78226 0.34108-1.1504 0.65039-0.36848 0.30921-0.70718 0.73339-1.0156 1.2695-0.30848 0.53676-0.55138 1.2181-0.73047 2.043-1.653 7.6769-3.2968 15.333-4.9297 22.969-1.633 7.6357-3.2411 15.169-4.8242 22.598-1.5832 7.4294-3.1254 14.692-4.6289 21.791-1.5036 7.099-2.9537 13.951-4.3477 20.555-0.55767 2.6415-1.0596 5.0143-1.5078 7.1191-0.44813 2.105-0.86166 4.0755-1.2402 5.9121-0.37842 1.8367-0.73594 3.6115-1.0742 5.3242-0.33857 1.7129-0.66794 3.4577-0.98632 5.2324h-0.20899c-0.23904-1.6921-0.49309-3.3946-0.76172-5.1074-0.26889-1.7129-0.55875-3.5088-0.86718-5.3867-0.30873-1.8779-0.6475-3.9207-1.0156-6.1289-0.36843-2.2081-0.77071-4.6531-1.209-7.3359-1.1351-6.7688-2.3144-13.755-3.5391-20.957-1.2248-7.2021-2.4511-14.394-3.6758-21.576-1.2248-7.1814-2.4247-14.219-3.5996-21.111-1.1749-6.8925-2.2884-13.393-3.3438-19.502-0.27883-1.5682-0.5687-2.8771-0.86718-3.9297-0.29874-1.0524-0.64272-1.8988-1.0312-2.5391-0.38832-0.63924-0.84161-1.0933-1.3594-1.3613-0.51777-0.26806-1.1347-0.40224-1.8516-0.40234-1.394 0.0001-7.6443 1.0051-9.9941 1.8516-8.1281 1.4643-6.2302 6.2204-2.9824 7.3789 1.3957 0.49799 3.1495 0.30284 3.8066 0.30273 0.9559 0 1.7364 0.15554 2.3438 0.46485 0.60736 0.30972 1.0868 0.86766 1.4355 1.6719 0.34833 0.80493 0.59118 1.8881 0.73047 3.25 0.13934 1.3622 0.20899 3.0944 0.20899 5.1992 0 3.2607-0.015 7.0803-0.0449 11.455-0.0299 4.3751-0.0845 9.1418-0.16406 14.301-0.0801 5.1592-0.2039 10.607-0.37304 16.344s-0.38957 11.557-0.65821 17.459c-0.26888 5.9022-0.60153 11.814-1 17.736-0.39828 5.9228-0.87031 11.649-1.418 17.18-0.54762 5.5307-1.1852 10.763-1.9121 15.695-0.72691 4.9322-1.5581 9.3989-2.4941 13.402l0.41797 0.61914c0.37832 0.0412 0.69639 0.0731 0.95508 0.0937 0.25873 0.0206 0.47911 0.0293 0.6582 0.0293h0.89649c0.89614 0 1.6672-0.0811 2.3144-0.24609 0.64721-0.16486 1.1944-0.5591 1.6426-1.1777 0.44802-0.61903 0.82211-1.5151 1.1211-2.6914 0.29858-1.1762 0.55278-2.7977 0.76172-4.8613 0.20883-2.0636 0.39727-4.6109 0.56641-7.6445 0.16909-3.0335 0.35375-6.7171 0.55273-11.051 0.23884-5.2417 0.46862-10.959 0.6875-17.15 0.21929-6.191 0.40917-12.598 0.56836-19.223 0.15969-6.6242 0.28722-13.351 0.38672-20.182 0.0995-6.8306 0.15034-13.527 0.15039-20.09v-10.215c0-1.4031-0.006-2.714-0.0156-3.9316-0.01-1.2174-0.0137-2.4453-0.0137-3.6836l0.20899-0.18555c0.33853 2.2288 0.74086 4.7868 1.209 7.6758 0.46797 2.8893 1.021 6.211 1.6582 9.9668 0.55757 3.2194 1.1895 6.8837 1.8965 10.99 0.70696 4.1068 1.4536 8.4925 2.2402 13.156 0.78655 4.664 1.6028 9.5135 2.4492 14.549 0.8463 5.0354 1.6889 10.081 2.5254 15.137 0.83635 5.056 1.6563 10.05 2.4629 14.982 0.8065 4.9322 1.5682 9.6159 2.2852 14.053 0.71685 4.4369 1.3752 8.565 1.9727 12.383 3.7261 24.132 5.1374-8.177 8.6328-17.459 1.8918-9.1832 3.7688-18.244 5.6309-27.18 1.8619-8.9356 3.7032-17.694 5.5254-26.279 1.8221-8.5847 3.6088-16.882 5.3613-24.889 0.73676-3.343 1.3442-6.2009 1.8223-8.5742 0.47792-2.373 0.88583-4.4883 1.2246-6.3457l0.24024 0.18555c-0.21929 4.6228-0.3941 9.3382-0.52344 14.146-0.12984 4.8084-0.24425 9.6261-0.34375 14.455-0.0398 2.2288-0.0793 4.9334-0.11914 8.1113-0.0398 3.1781-0.0793 6.5935-0.11914 10.246-0.0398 3.6528-0.0757 7.4386-0.10547 11.359-0.0298 3.921-0.0543 7.7705-0.0742 11.547-0.0199 3.7766-0.0349 7.3472-0.0449 10.711-0.01 3.3639-0.0157 6.324-0.0156 8.8828v5.4492c0 4.8702 0.14085 8.956 0.41993 12.258 0.27873 3.3019 0.70191 5.964 1.2695 7.9863 0.56752 2.0224 1.2784 3.4775 2.1348 4.3652 0.85625 0.88772 1.8532 1.3301 2.9883 1.3301 0.83635 0 1.7014-0.1449 2.5977-0.43359 0.89604-0.2889 1.8629-0.73208 2.8984-1.3301 1.0355-0.59841 2.3126-1.4136 3.3594-2.291 2.9036-2.4334 4.02-6.295 0.90821-6.459-1.1297-0.0588-1.7443 0.0721-2.1328 0.11328-0.38837 0.0413-0.7911 0.0625-1.209 0.0625-1.1352 0-2.0812-0.45493-2.8379-1.3633-0.75681-0.90803-1.3584-2.3422-1.8066-4.3027-0.44797-1.9604-0.76232-4.4885-0.94141-7.584-1.1139-33.433 0.37731-66.639 1.1797-100.79 0.22893-6.1909 0.49204-12.67 0.79101-19.439-0.6373-0.57738-1.2994-1.0208-1.9863-1.3301-0.68711-0.30931-1.3191-0.46475-1.8965-0.46485zm-129.91 25.936c-0.46012 0.007-0.92272 0.024-1.3867 0.0488-7.4241 0.39674-15.302 3.0517-22.232 8.0566-2.3218 1.6766-4.6986 2.8401-7.1992 3.5938-1.9544-1.7883-4.8111-4.5969-8.5664-5.6641-0.95125-0.27032-1.9576-0.41736-3.0098-0.40234-3.097 0.0443-6.597 1.5052-10.287 5.332-2.0926-0.46549-4.2704-0.99338-6.5664-1.5879a0.80644 0.80644 0 1 0 -0.4043 1.5605c7.8814 2.0407 14.581 3.4654 20.604 3.4844 6.0223 0.019 11.378-1.4007 16.373-5.0078 13.358-9.6458 30.318-10.076 39.799-2.6016 10.41 8.2063 20.374 10.101 30.205 9.7207a0.80644 0.80644 0 1 0 -0.0606 -1.6113c-9.5872 0.37056-19.03-1.4014-29.145-9.375-4.7951-3.78-11.221-5.6544-18.123-5.5469zm-42.398 7.2188c0.89721-0.003 1.753 0.13632 2.5723 0.36914 2.841 0.80736 5.239 2.867 7.1367 4.5938-2.0176 0.43551-4.122 0.63399-6.3535 0.62695-3.576-0.0113-7.4697-0.54857-11.779-1.4375 3.1861-3.077 5.961-4.1452 8.4238-4.1523zm42.945 17.859c-14.606 0-26.465 11.857-26.465 26.463s11.859 26.463 26.465 26.463 26.463-11.857 26.463-26.463-11.857-26.463-26.463-26.463zm0 1.6172c13.732 0 24.846 11.114 24.846 24.846s-11.114 24.848-24.846 24.848-24.848-11.116-24.848-24.848 11.116-24.846 24.848-24.846zm-59.49 65.33a0.83501 0.83501 0 0 0 -0.12891 1.6504c19.75 4.5759 37.788 2.7654 55.238 1.2695s34.301-2.6767 51.844 2.9863a0.83501 0.83501 0 1 0 0.51367 -1.5879c-17.904-5.7799-35.034-4.5578-52.5-3.0606s-35.281 3.2692-54.719-1.2344a0.83501 0.83501 0 0 0 -0.16406 -0.0234 0.83501 0.83501 0 0 0 -0.084 0zm-33.453 45.098c-3.8077 0-9.4738 3.5372-16.994 10.613-7.5203 7.0443-15.96 16.803-25.32 29.273l-3.7598 2.9023c-7.7424 5.902-11.615 9.2175-11.615 9.9473 0 0.2539 0.04933 0.4605 0.14453 0.6191 0.12692 0.1587 0.26908 0.2363 0.42773 0.2363 0.38078 0 1.7154-0.9667 4-2.9023 2.3164-1.9673 4.4565-3.6961 6.4238-5.1875l-8.6621 11.709c-0.28558-0.1587-0.58894-0.2705-0.90625-0.334-0.31731-0.095-0.6661-0.1406-1.0469-0.1406-0.72982 0-1.2984 0.2198-1.7109 0.664-0.41251 0.4125-0.61914 0.9983-0.61914 1.7598 0 0.3808 0.07767 0.8111 0.23633 1.2871 0.12692 0.4442 0.33356 0.9201 0.61914 1.4277l-21.324 28.701c-0.12693 0.1586-0.2217 0.316-0.28516 0.4746-0.095194 0.1904-0.14258 0.3497-0.14258 0.4766 0 0.3491 0.12701 0.6201 0.38086 0.8105s0.61778 0.2852 1.0937 0.2852h2.1445c0.5077 0 0.93416-0.1138 1.2832-0.3359 0.34904-0.1904 0.69783-0.5392 1.0469-1.0469l20.469-27.606h1.4746c2.602 0 5.2198-0.4909 7.8535-1.4746 2.6654-0.9837 5.4728-2.5381 8.4238-4.6641 0.48315-0.352 0.85922-0.6688 1.2988-1.0058-0.48217 1.2259-0.72656 2.4191-0.72656 3.5762 0 1.5865 0.49094 2.8546 1.4746 3.8066 0.95194 0.9519 2.2523 1.4277 3.9023 1.4277 2.3798 0 5.2688-1.0463 8.6641-3.1406 3.3952-2.126 7.1391-5.2045 11.232-9.2344 0.72982 0.8885 1.4919 1.5387 2.2852 1.9512 0.825 0.3808 1.7444 0.5723 2.7598 0.5723 1.5231 0 3.1894-0.5857 4.998-1.7598 0.33233-0.2157 0.59983-0.4138 0.87109-0.6113 0.68538-0.4658 1.6701-1.2338 3.0332-2.3887 2.3164-1.9673 4.4565-3.6961 6.4238-5.1875-2.7289 3.3001-4.7117 6.1871-5.9492 8.6621-1.2375 2.4751-1.8555 4.7593-1.8555 6.8535 0 1.3962 0.41131 2.4899 1.2363 3.2832 0.85675 0.7933 2.015 1.1914 3.4746 1.1914 2.126 0 4.7136-0.7469 7.7598-2.2383 3.0462-1.5231 6.3274-3.6934 9.8496-6.5175 0.15286-0.1208 0.22889-0.1868 0.375-0.3028-0.49722 1.246-0.75391 2.4579-0.75391 3.6329 0 1.5865 0.49289 2.8546 1.4766 3.8066 0.95193 0.9519 2.2523 1.4277 3.9023 1.4277 2.3798 0 5.2669-1.0463 8.6621-3.1406 3.3953-2.126 7.141-5.2045 11.234-9.2344 0.72981 0.8885 1.4899 1.5387 2.2832 1.9512 0.82502 0.3808 1.7444 0.5723 2.7598 0.5723 1.1414 0 2.3642-0.3289 3.666-0.9883-0.84155 1.804-1.2852 3.67-1.2852 5.6055 0 1.5865 0.3317 2.8244 0.99805 3.7129 0.66636 0.8884 1.6028 1.332 2.8086 1.332 0.95194 0 1.9377-0.127 2.9531-0.3809 1.0154-0.2538 2.0769-0.65 3.1875-1.1894l-1.8555 2.4258c-8.028 2.9192-14.502 6.4432-19.42 10.568-4.9501 4.1251-7.4258 7.9485-7.4258 11.471 0 1.5231 0.35072 2.6642 1.0488 3.4258 0.69809 0.7933 1.7596 1.1914 3.1875 1.1914 2.5385 0 6.1422-2.1421 10.807-6.4258 4.6645-4.252 10.501-10.758 17.514-19.516 3.8078-0.5394 7.3621-1.491 10.662-2.8555 3.3-1.3962 6.7103-3.379 10.232-5.9492 2.3481-1.7135 4.1585-3.158 5.4277-4.332 0.63621-0.5742 1.1105-1.0616 1.4356-1.4688 0.36068-0.2607 0.79014-0.61 1.3242-1.0996 0.9202-0.8567 1.6974-1.5392 2.332-2.0469 2.126-1.65 3.8396-2.8424 5.1406-3.5722 1.3327-0.72983 2.4113-1.0938 3.2363-1.0938 0.15867 0 0.27056 0.064 0.33399 0.1914 0.0952 0.095 0.14257 0.2867 0.14257 0.5723 0 0.95193-0.61794 2.3471-1.8555 4.1875-1.2375 1.8404-3.6336 4.8393-7.1875 8.9961-0.69809 0.7615-1.6043 1.7586-2.7148 2.9961-1.8404 1.9991-2.7598 3.2066-2.7598 3.6191 0 0.1904 0.17635 0.3477 0.52539 0.4746 0.34904 0.127 0.82484 0.1914 1.4277 0.1914 0.57117 0 1.2043-0.03 1.9024-0.094 0.6981-0.063 1.4601-0.1601 2.2852-0.2871 2.1577-2.9192 4.5045-5.774 7.043-8.5664 2.5702-2.8241 5.3-5.5538 8.1875-8.1875-0.31732 0.952-0.57133 1.841-0.76172 2.666-0.15865 0.8251-0.23828 1.5529-0.23828 2.1875 0 1.777 0.44551 3.1741 1.334 4.1895 0.9202 0.9837 2.2035 1.4766 3.8535 1.4766 1.2058 0 2.491-0.3337 3.8555-1 0.90851-0.4649 2.0409-1.2159 3.3574-2.2012-0.47994 1.3716-0.73828 2.7864-0.73828 4.248 0 1.8087 0.36392 3.2039 1.0938 4.1875 0.72981 0.9837 1.761 1.4766 3.0938 1.4766 1.2692 0 2.7118-0.4607 4.3301-1.3809 1.6183-0.9519 3.3813-2.3642 5.2852-4.2363-0.0317 0.1269-0.0619 0.2691-0.0937 0.4277v0.6192c0 1.3644 0.42646 2.4582 1.2832 3.2832 0.88847 0.7933 2.0638 1.1914 3.5234 1.1914 2.0308 0 4.6467-0.7923 7.8516-2.3789 3.2366-1.6183 6.6165-3.84 10.139-6.6641l0.24023-0.1914c1.6214-1.3174 2.8234-2.362 3.7051-3.1973 0.68515-0.4686 1.6587-1.2314 3.0039-2.3711 2.3164-1.9673 4.4565-3.6961 6.4238-5.1875l-8.6621 11.709c-0.28558-0.1586-0.58504-0.2705-0.90235-0.334-0.31732-0.095-0.6661-0.1406-1.0469-0.1406-0.72982 0-1.3023 0.2198-1.7148 0.6641-0.4125 0.4125-0.61914 0.9982-0.61914 1.7597 0 0.3808 0.0816 0.8112 0.24024 1.2872 0.12692 0.4442 0.33354 0.92 0.61914 1.4277l-21.324 28.701c-0.12695 0.1586-0.22171 0.316-0.28516 0.4746-0.0952 0.1904-0.14453 0.3496-0.14453 0.4765 0 0.3491 0.12896 0.6202 0.38281 0.8106 0.25386 0.1904 0.61778 0.2851 1.0938 0.2851h2.1406c0.5077 0 0.93807-0.1138 1.2871-0.3359 0.34904-0.1904 0.69783-0.5392 1.0469-1.0469l20.465-27.605h1.4766c2.602 0 5.2198-0.491 7.8535-1.4747 2.6654-0.9836 5.4748-2.538 8.4258-4.664 2.2212-1.6183 3.9803-3.0779 5.2812-4.3789 0.32525-0.3253 0.60958-0.6286 0.85351-0.9082 0.4318-0.3062 0.82936-0.581 1.4336-1.0449 1.8087-1.3962 3.6-2.5999 5.377-3.6153-3.2683 3.0462-5.7118 5.7115-7.3301 7.9961-1.6183 2.2847-2.4277 4.2352-2.4277 5.8535 0 1.2058 0.42645 2.1916 1.2832 2.9532 0.88847 0.7615 2.0316 1.1406 3.4277 1.1406 1.9356 0 4.4284-0.7469 7.4746-2.2383 3.0779-1.5231 6.2361-3.6007 9.4727-6.2344l1.0469-0.8554c0.17836-0.1427 0.299-0.2524 0.4668-0.3887-0.45725 1.3409-0.70703 2.7218-0.70703 4.1484 0 1.8087 0.36589 3.2038 1.0957 4.1875 0.72983 0.9837 1.761 1.4766 3.0938 1.4766 1.2693 0 2.7137-0.4607 4.332-1.3809 1.6183-0.9519 3.3793-2.3642 5.2832-4.2363-0.0317 0.1269-0.064 0.2691-0.0957 0.4277v0.6192c0 1.3644 0.42645 2.4582 1.2832 3.2832 0.88846 0.7932 2.0658 1.1914 3.5254 1.1914 2.0308 0 4.6486-0.7923 7.8535-2.3789 3.2366-1.6183 6.6146-3.84 10.137-6.6641l0.23828-0.1914c3.5539-2.8875 5.3301-4.6163 5.3301-5.1875 0-0.2538-0.0796-0.4605-0.23828-0.6191-0.12692-0.1587-0.30132-0.2364-0.52344-0.2364-0.28558 0-1.1575 0.6331-2.6172 1.9024-1.4596 1.2692-2.8245 2.3801-4.0938 3.332-3.0462 2.3164-5.9332 4.1571-8.6621 5.5215-2.7289 1.3327-4.7913 2-6.1875 2-0.47597 0-0.80962-0.08-1-0.2383-0.15866-0.1586-0.23633-0.4469-0.23633-0.8594 0-1.0154 1.2036-2.9337 3.6152-5.7578 2.4116-2.8558 5.7441-6.2982 9.9961-10.328 0.47597-0.4125 1.111-0.96793 1.9043-1.666 1.4596-1.301 2.1895-2.1407 2.1895-2.5215 0-0.4125-0.23889-0.69875-0.71485-0.85741-0.47596-0.19039-1.2683-0.28711-2.3789-0.28711-0.22212 0-0.5709 0.017-1.0469 0.0488-0.47597 0.0318-0.84185 0.0488-1.0957 0.0488-0.72982 0.44424-1.3971 0.92002-2 1.4277-0.57117 0.476-1.0772 0.9669-1.5215 1.4746-0.0952-1.174-0.45913-2.0138-1.0938-2.5215-0.63463-0.50771-1.6356-0.76367-3-0.76367-2.4116 0-5.1867 0.73178-8.3281 2.1914-3.1414 1.4279-6.0778 3.3633-8.8066 5.8066-1.2579 1.089-2.2969 2.1961-3.166 3.3184-0.39612 0.2976-0.86665 0.6683-1.5 1.2031-1.3962 1.1741-2.6814 2.1901-3.8555 3.0469-2.9827 2.2846-5.7901 4.0911-8.4238 5.4238-2.602 1.3327-4.5677 2-5.9004 2-0.44424 0-0.79302-0.1119-1.0469-0.334-0.25385-0.2221-0.38086-0.5386-0.38086-0.9511 0-0.7616 0.69758-2.0469 2.0938-3.8555 1.4279-1.8087 3.5528-4.0949 6.377-6.8555 2.2212-2.1894 4.6173-4.3618 7.1875-6.5195 2.602-2.1895 3.9024-3.3951 3.9024-3.6172 0-0.31731-0.44553-0.57134-1.334-0.76172-0.85676-0.19039-1.9959-0.28515-3.4238-0.28515-1.0788 0-2.7622 0.68243-5.0469 2.0469-2.2847 1.3327-5.221 3.38-8.8066 6.1406l-1.7324 1.3125c-0.0647-0.05-0.13545-0.076-0.2168-0.076-0.22212 0-1.0164 0.6673-2.3809 2-1.3327 1.3327-2.6805 2.489-4.0449 3.4727-2.2529 1.6183-4.3153 2.8258-6.1875 3.6191-1.8404 0.7616-3.6014 1.1426-5.2832 1.1426-0.47596 0-0.98595-0.032-1.5254-0.096-0.5077-0.095-1.0441-0.2242-1.6152-0.3828l18.228-24.178c13.01-8.4722 22.274-15.118 27.795-19.941 5.5212-4.8549 8.2832-8.6954 8.2832-11.52 0-1.1423-0.3185-2.0162-0.95312-2.6191-0.6029-0.60289-1.4578-0.90234-2.5684-0.90234-3.8078 0-9.4719 3.5372-16.992 10.613-7.5203 7.0443-15.962 16.803-25.322 29.273l-3.7617 2.9023c-4.3687 3.3302-7.4577 5.8067-9.3613 7.4902-0.38536 0.1503-1.182 0.7428-2.4414 1.8379-1.4597 1.2693-2.8245 2.3801-4.0938 3.3321-3.0462 2.3163-5.9332 4.157-8.6621 5.5215-2.7289 1.3327-4.7913 2-6.1875 2-0.47597 0-0.80962-0.08-1-0.2383-0.15865-0.1587-0.23633-0.4469-0.23633-0.8594 0-1.0154 1.2037-2.9338 3.6152-5.7578 2.4116-2.8558 5.7441-6.2983 9.9961-10.328 0.47598-0.4126 1.1091-0.96803 1.9024-1.6661 1.4596-1.3009 2.1914-2.1407 2.1914-2.5214 0-0.4125-0.23692-0.6988-0.71289-0.85746-0.47597-0.19039-1.2703-0.28711-2.3809-0.28711-0.22212 0-0.5709 0.017-1.0469 0.0488-0.47596 0.0318-0.83989 0.0488-1.0938 0.0488-0.72982 0.44424-1.3971 0.92007-2 1.4278-0.57116 0.4759-1.0812 0.9669-1.5254 1.4746-0.0952-1.1741-0.45913-2.0138-1.0938-2.5215-0.63463-0.50771-1.6317-0.76367-2.9961-0.76367-2.4116 0-5.1906 0.73178-8.332 2.1914-3.1414 1.4279-6.0758 3.3634-8.8047 5.8067-1.0072 0.8719-1.8807 1.7531-2.6387 2.6464-0.23682 0.1985-0.43931 0.3547-0.74023 0.6368-0.85673 0.7615-1.5714 1.3814-2.1426 1.8574-1.3327 1.1423-2.4587 1.9518-3.3789 2.4277-0.92021 0.476-1.777 0.7129-2.5703 0.7129-0.72982 0-1.3155-0.2559-1.7598-0.7637-0.44423-0.5077-0.66602-1.171-0.66602-1.9961 0-1.1106 0.29945-2.3826 0.90234-3.8105 0.63463-1.4596 1.5388-2.9515 2.7129-4.4746 0.38077-0.50773 0.85658-1.0612 1.4277-1.6641 0.6029-0.6346 0.90625-1.0156 0.90625-1.1426 0-0.2538-0.31851-0.4736-0.95313-0.664-0.63462-0.2221-1.3947-0.334-2.2832-0.334-0.22212 0-0.4781 0.047-0.76367 0.1426-0.25387 0.095-0.41118 0.1899-0.47461 0.2851l-7.7129 6.711c0.53944-1.1424 0.93757-2.1584 1.1914-3.0469 0.25385-0.92023 0.38086-1.7296 0.38086-2.4277 0-0.952-0.25402-1.6969-0.76171-2.2364-0.50771-0.57117-1.2053-0.85742-2.0938-0.85742-1.1423 0-2.856 0.6199-5.1406 1.8574-2.2529 1.2376-4.5997 2.8867-7.043 4.9493-1.6818 1.4279-2.8571 2.4913-3.5234 3.1894-0.33355 0.3502-0.57418 0.6505-0.73242 0.9043-0.39664 0.3047-0.79338 0.607-1.3633 1.0938-1.4914 1.2692-2.8562 2.3649-4.0938 3.2851-3.5539 2.6654-6.9167 4.7279-10.09 6.1875-3.1414 1.4279-6.1232 2.2696-8.9473 2.5235 4.2837-5.6165 8.7896-10.742 13.518-15.375 4.7597-4.6645 7.1387-7.0586 7.1387-7.1855 0-0.4125-0.23692-0.69875-0.71289-0.85741-0.47598-0.19039-1.2703-0.28711-2.3809-0.28711-0.22212 0-0.57091 0.017-1.0469 0.0488-0.47597 0.0318-0.8399 0.0488-1.0938 0.0488-0.66636 0.41251-1.2863 0.87312-1.8574 1.3808-0.57117 0.476-1.0944 0.9821-1.5703 1.5215-0.12693-1.174-0.506-2.0138-1.1406-2.5215-0.6029-0.50771-1.5564-0.76367-2.8574-0.76367-2.4116 0-5.2038 0.73178-8.377 2.1914-3.1414 1.4279-6.1252 3.3936-8.9492 5.9004-0.85505 0.7481-1.6006 1.521-2.2812 2.3086-0.5074 0.275-1.1809 0.6996-2.0508 1.3085-1.5866 1.0789-2.9817 1.6192-4.1875 1.6192-0.85673 0-1.5866-0.1764-2.1894-0.5254-0.60289-0.349-1.0787-0.8874-1.4277-1.6172 1.1106-1.3327 1.9371-2.5705 2.4766-3.7129 0.57117-1.1423 0.85742-2.1735 0.85742-3.0937 0-1.3645-0.49486-2.4602-1.4785-3.2852-0.95194-0.85672-2.2201-1.2832-3.8066-1.2832-1.9673 0-4.2516 0.50608-6.8535 1.5215-2.5702 1.0154-5.0933 2.4125-7.5684 4.1894-2.2485 1.6216-4.1235 3.2747-5.6797 4.9551-0.42665 0.3088-0.98629 0.779-1.6973 1.4239-1.3327 1.2375-2.6028 2.299-3.8086 3.1875-3.2366 2.475-6.171 4.3801-8.8047 5.7129-2.6337 1.3327-4.7435 2-6.3301 2-0.57116 0-0.99958-0.1764-1.2852-0.5254-0.25385-0.3491-0.38086-0.8894-0.38086-1.6192 0-1.3644 0.6199-3.0781 1.8574-5.1406 1.2375-2.0943 3.1558-4.6325 5.7578-7.6152l11.137-12.803h9.3281l1.5723-1.666h-9.6621l8.1875-9.5176c0.19042-0.25386 0.31741-0.47758 0.38086-0.66797 0.0634-0.1904 0.0937-0.39701 0.0937-0.61914 0.00001-0.4125-0.31849-0.76131-0.95312-1.0469-0.63462-0.28559-1.4744-0.42774-2.5215-0.42774-0.57116 0-1.0621 0.0967-1.4746 0.28711-0.38079 0.19039-0.7447 0.48985-1.0938 0.90235l-8.8535 11.09h-8.4746l-1.5684 1.666h8.375l-4.1875 4.6191-3.7598 2.9023c-4.6038 3.5094-7.8056 6.083-9.6719 7.7637-0.51087 0.2733-1.1919 0.7017-2.084 1.3261-1.5866 1.0789-2.9837 1.6192-4.1895 1.6192-0.85675 0-1.5846-0.1764-2.1875-0.5254-0.60289-0.349-1.0807-0.8874-1.4297-1.6172 1.1106-1.3327 1.9371-2.5705 2.4766-3.7129 0.57116-1.1423 0.85547-2.1735 0.85547-3.0937 0-1.3645-0.49094-2.4602-1.4746-3.2852-0.95194-0.85672-2.222-1.2832-3.8086-1.2832-1.9673 0-4.2516 0.50608-6.8535 1.5215-2.5702 1.0154-5.0933 2.4125-7.5684 4.1894-1.8089 1.3046-3.3716 2.63-4.7324 3.9727-0.40293 0.2991-1.0291 0.8606-1.9297 1.7402-1.3327 1.3328-2.6824 2.489-4.0469 3.4727-2.2529 1.6183-4.3154 2.8259-6.1875 3.6191-1.8404 0.7616-3.6034 1.1426-5.2852 1.1426-0.47597 0-0.98205-0.032-1.5215-0.096-0.5077-0.095-1.048-0.2242-1.6191-0.3828l18.231-24.178c13.01-8.4722 22.276-15.118 27.797-19.941 5.5212-4.8549 8.2812-8.6954 8.2812-11.52 0-1.1423-0.3185-2.0162-0.95312-2.6191-0.60289-0.60289-1.4578-0.90234-2.5684-0.90234zm-0.19141 2.8066c0.53943 0 0.92241 0.127 1.1445 0.38086 0.22211 0.22212 0.33008 0.62023 0.33008 1.1914 0 2.0625-2.5856 5.2681-7.7578 9.6152-5.1405 4.3472-12.137 9.1677-20.99 14.467 7.3299-9.1386 13.121-15.692 17.373-19.658 4.252-3.9981 7.5523-5.9961 9.9004-5.9961zm224.85 0c0.53944 0 0.9185 0.127 1.1406 0.38086 0.22212 0.22212 0.33398 0.62023 0.33398 1.1914 0 2.0625-2.5876 5.2681-7.7598 9.6152-5.1405 4.3472-12.137 9.1677-20.99 14.467 7.3299-9.1386 13.121-15.692 17.373-19.658 4.252-3.9981 7.5542-5.9961 9.9024-5.9961zm-0.61915 21.658c-1.0154 0-1.84 0.2843-2.4746 0.85547-0.60289 0.53942-0.90624 1.2522-0.90624 2.1406 0 0.95193 0.30335 1.714 0.90624 2.2852 0.6029 0.57115 1.4275 0.85742 2.4746 0.85742 1.0154 0 1.84-0.28627 2.4746-0.85742 0.63463-0.57117 0.95118-1.3332 0.95118-2.2852 0-0.88848-0.31655-1.6012-0.95118-2.1406-0.60289-0.57117-1.4275-0.85547-2.4746-0.85547zm-234.08 18.02c0.63462 0 1.1256 0.1763 1.4746 0.5254 0.38078 0.349 0.57031 0.8248 0.57031 1.4277 0 1.1424-0.72981 2.6797-2.1895 4.6153-1.4596 1.9038-3.4879 3.9663-6.0898 6.1875-3.0145 2.5385-5.6665 4.4588-7.9512 5.7597-2.2846 1.301-4.1253 1.9532-5.5215 1.9532-0.60289 0-1.0445-0.1119-1.3301-0.334-0.28558-0.2539-0.42969-0.6671-0.42969-1.2383 0-1.0789 0.99898-2.8077 2.998-5.1875 2.0308-2.4116 4.7454-5.0617 8.1406-7.9492 2.0625-1.777 4.0302-3.1721 5.9023-4.1875 1.8721-1.0472 3.3469-1.5723 4.4258-1.5723zm59.781 0c0.63462 0 1.1256 0.1763 1.4746 0.5254 0.38077 0.349 0.57227 0.8248 0.57227 1.4277 0 1.1424-0.72982 2.6797-2.1894 4.6153-1.4596 1.9038-3.4898 3.9663-6.0918 6.1875-3.0145 2.5385-5.6646 4.4588-7.9492 5.7597-2.2846 1.301-4.1253 1.9532-5.5215 1.9532-0.60291 0-1.0484-0.1119-1.334-0.334-0.28558-0.2539-0.42773-0.6671-0.42773-1.2383 0-1.0789 0.99896-2.8077 2.998-5.1875 2.0308-2.4116 4.7454-5.0617 8.1406-7.9492 2.0625-1.777 4.0282-3.1721 5.9004-4.1875 1.8721-1.0472 3.3489-1.5723 4.4277-1.5723zm31.414 0.1914c0.38079 0 0.66704 0.097 0.85742 0.2871 0.19039 0.1587 0.2832 0.4107 0.2832 0.7598 0 0.4125-0.10795 0.8429-0.33008 1.2871-0.22212 0.44423-0.52548 0.87073-0.90625 1.2832l-10.947 11.662c-1.4596 1.5865-2.887 2.8396-4.2832 3.7598-1.3644 0.8884-2.4601 1.332-3.2852 1.332-0.44424 0-0.80816-0.127-1.0938-0.3809-0.25385-0.2855-0.38086-0.6495-0.38086-1.0937 0-1.301 0.96674-3.3009 2.9023-5.9981 1.9356-2.7288 4.4113-5.3467 7.4258-7.8535 1.8404-1.5231 3.6508-2.7438 5.4277-3.664 1.8087-0.9202 3.2512-1.3809 4.3301-1.3809zm71.586 0c0.38077 0 0.68023 0.097 0.90235 0.2871 0.22212 0.1904 0.33398 0.4425 0.33398 0.7598 0 0.3808-0.12701 0.7921-0.38086 1.2363-0.22212 0.44423-0.54062 0.88983-0.95312 1.334l-10.945 11.662c-1.4596 1.5865-2.889 2.8396-4.2852 3.7598-1.3644 0.8884-2.4733 1.332-3.3301 1.332-0.4125 0-0.7613-0.127-1.0469-0.3809-0.25387-0.2855-0.38086-0.6495-0.38086-1.0937 0-1.2693 0.98187-3.2692 2.9492-5.9981 1.9673-2.7288 4.4602-5.3467 7.4746-7.8535 1.8404-1.5548 3.6317-2.7756 5.377-3.664 1.777-0.9202 3.2063-1.3809 4.2852-1.3809zm85.863 0c0.38078 0 0.68412 0.097 0.90625 0.2871 0.22212 0.1904 0.33399 0.4425 0.33399 0.7598 0 0.3808-0.12701 0.7921-0.38086 1.2363-0.22212 0.44423-0.54063 0.88983-0.95313 1.334l-10.947 11.662c-1.4596 1.5865-2.887 2.8396-4.2832 3.7598-1.3644 0.8884-2.4753 1.332-3.332 1.332-0.4125 0-0.76129-0.127-1.0469-0.3809-0.25386-0.2855-0.38086-0.6495-0.38086-1.0937 0-1.2693 0.98187-3.2692 2.9492-5.9981 1.9673-2.7288 4.4582-5.3467 7.4726-7.8535 1.8404-1.5548 3.6356-2.7756 5.3809-3.664 1.7769-0.9202 3.2024-1.3809 4.2812-1.3809zm-176.06 26.32-9.2812 11.709c-3.1097 3.8712-5.4261 6.4739-6.9492 7.8066-1.5548 1.3645-2.9046 2.0469-4.0469 2.0469-0.60289 0-1.0938-0.2862-1.4746-0.8574-0.38079-0.5394-0.56835-1.2369-0.56835-2.0937 0-2.6971 1.998-5.7264 5.9961-9.0899 3.9664-3.3635 9.4068-6.5388 16.324-9.5215z"/>
  <path id="heart" fill="#ff0000" d="m145.78 842.07c-1.3413 0.0366-3.0872 0.84226-5.2441 2.332-2.6484-1.9076-4.6721-2.6029-6.1445-2.0898-0.76937 0.26809-1.33 0.87163-1.6406 1.6211-0.31067 0.74946-0.40406 1.6488-0.33594 2.6406 0.2725 3.9672 3.14 9.5835 7.9688 12.797l0.29102 0.19336 0.29687-0.18555c4.3408-2.7227 7.3785-8.4332 7.8555-12.561 0.11924-1.0318 0.0785-1.9718-0.1875-2.7676-0.26595-0.7958-0.79398-1.4577-1.5703-1.7656-0.38817-0.15397-0.81696-0.22772-1.2891-0.21484zm0.88867 1.2207c0.45692 0.18125 0.75052 0.52454 0.94336 1.1016 0.19284 0.57703 0.24557 1.3776 0.13867 2.3027-0.41631 3.6027-3.277 8.9511-7.0644 11.516-4.3063-3.0372-6.9568-8.2952-7.1914-11.711-0.0601-0.87532 0.0353-1.6184 0.25586-2.1504 0.22053-0.532 0.5334-0.85177 0.99805-1.0137 0.92928-0.32381 2.7501 0.0925 5.459 2.1172l0.31641 0.23633 0.32226-0.22852c2.992-2.1346 4.9084-2.5324 5.8223-2.1699z" />
 </g>
</svg>
